<svg xmlns="http://www.w3.org/2000/svg" width="22" height="22" fill="none" viewBox="0 0 22 22"><g fill="#8d8d8d" clip-path="url(#clip0_427_921)"><path d="M18.586 12H7a1 1 0 0 1 0-2h11.586l-1.293-1.293a1 1 0 1 1 1.414-1.414l3 3a1 1 0 0 1 .066.072l.014.02.044.059.011.018.04.066.006.014q.02.036.035.075l.004.01q.016.039.03.082l.002.01q.013.042.021.084l.004.026a.9.9 0 0 1 .01.27q-.003.037-.01.073l-.004.025-.02.084-.003.01-.03.083-.003.01-.036.075-.006.013-.04.066-.01.018-.045.06-.014.019a1 1 0 0 1-.066.072l-3 3a.996.996 0 0 1-1.414 0 1 1 0 0 1 0-1.414z"/><path d="M8.18 2.82c2.73 0 5.27 1.354 6.794 3.622a1 1 0 0 1-1.66 1.116A6.18 6.18 0 0 0 8.18 4.82 6.187 6.187 0 0 0 2 11a6.187 6.187 0 0 0 6.18 6.18 6.18 6.18 0 0 0 5.125-2.725 1 1 0 0 1 1.657 1.12A8.18 8.18 0 0 1 8.18 19.18C3.67 19.18 0 15.51 0 11s3.67-8.18 8.18-8.18"/></g><defs><clipPath id="clip0_427_921"><path fill="#fff" d="M22 0H0v22h22z"/></clipPath></defs></svg>