<svg width="22" height="22" viewBox="0 0 22 22" fill="none" xmlns="http://www.w3.org/2000/svg">
<path d="M5.49968 18.3334C5.23995 18.3334 5.0224 18.2454 4.84701 18.0694C4.67162 17.8934 4.58362 17.6758 4.58301 17.4167C4.5824 17.1576 4.6704 16.94 4.84701 16.764C5.02362 16.588 5.24118 16.5 5.49968 16.5H16.4997C16.7594 16.5 16.9773 16.588 17.1533 16.764C17.3293 16.94 17.417 17.1576 17.4163 17.4167C17.4157 17.6758 17.3277 17.8937 17.1523 18.0703C16.977 18.2469 16.7594 18.3346 16.4997 18.3334H5.49968ZM6.14134 15.125C5.69829 15.125 5.30504 14.9799 4.96159 14.6896C4.61815 14.3993 4.40793 14.0327 4.33093 13.5896L3.41426 7.76879C3.3837 7.76879 3.34948 7.77276 3.31159 7.78071C3.2737 7.78865 3.23918 7.79232 3.20801 7.79171C2.82607 7.79171 2.50157 7.65818 2.23451 7.39113C1.96745 7.12407 1.83362 6.79926 1.83301 6.41671C1.8324 6.03415 1.96623 5.70965 2.23451 5.44321C2.50279 5.17677 2.82729 5.04293 3.20801 5.04171C3.58873 5.04049 3.91354 5.17432 4.18243 5.44321C4.45132 5.7121 4.58484 6.0366 4.58301 6.41671C4.58301 6.52365 4.5714 6.62296 4.54818 6.71463C4.52495 6.80629 4.49837 6.89032 4.46843 6.96671L7.33301 8.25004L10.1976 4.33129C10.0295 4.20907 9.89204 4.04865 9.78509 3.85004C9.67815 3.65143 9.62468 3.43754 9.62468 3.20838C9.62468 2.82643 9.75851 2.50163 10.0262 2.23396C10.2938 1.96629 10.6183 1.83277 10.9997 1.83338C11.381 1.83399 11.7058 1.96782 11.9741 2.23488C12.2424 2.50193 12.3759 2.82643 12.3747 3.20838C12.3747 3.43754 12.3212 3.65143 12.2143 3.85004C12.1073 4.04865 11.9698 4.20907 11.8018 4.33129L14.6663 8.25004L17.5309 6.96671C17.5004 6.89032 17.4735 6.80629 17.4503 6.71463C17.427 6.62296 17.4157 6.52365 17.4163 6.41671C17.4163 6.03476 17.5502 5.70996 17.8178 5.44229C18.0855 5.17463 18.41 5.0411 18.7913 5.04171C19.1727 5.04232 19.4975 5.17615 19.7658 5.44321C20.034 5.71027 20.1676 6.03476 20.1663 6.41671C20.1651 6.79865 20.0316 7.12346 19.7658 7.39113C19.4999 7.65879 19.1751 7.79232 18.7913 7.79171C18.7608 7.79171 18.7266 7.78804 18.6887 7.78071C18.6508 7.77338 18.6163 7.7694 18.5851 7.76879L17.6684 13.5896C17.592 14.0327 17.3821 14.3993 17.0387 14.6896C16.6952 14.9799 16.3017 15.125 15.858 15.125H6.14134Z" fill="#868686"/>
</svg>
