<svg width="24" height="21" viewBox="0 0 24 21" fill="none" xmlns="http://www.w3.org/2000/svg">
<path d="M8.57143 10.2857C9.9354 10.2857 11.2435 9.74388 12.208 8.77941C13.1725 7.81493 13.7143 6.50683 13.7143 5.14286C13.7143 3.77889 13.1725 2.47078 12.208 1.50631C11.2435 0.541835 9.9354 0 8.57143 0C7.20746 0 5.89935 0.541835 4.93488 1.50631C3.97041 2.47078 3.42857 3.77889 3.42857 5.14286C3.42857 6.50683 3.97041 7.81493 4.93488 8.77941C5.89935 9.74388 7.20746 10.2857 8.57143 10.2857ZM21.7143 6.85714C21.7143 7.76646 21.3531 8.63853 20.7101 9.28151C20.0671 9.92449 19.195 10.2857 18.2857 10.2857C17.3764 10.2857 16.5043 9.92449 15.8613 9.28151C15.2184 8.63853 14.8571 7.76646 14.8571 6.85714C14.8571 5.94783 15.2184 5.07576 15.8613 4.43278C16.5043 3.78979 17.3764 3.42857 18.2857 3.42857C19.195 3.42857 20.0671 3.78979 20.7101 4.43278C21.3531 5.07576 21.7143 5.94783 21.7143 6.85714ZM8.57143 11.4286C10.8491 11.4286 12.92 12.1234 14.4423 13.104C15.2046 13.5954 15.8571 14.1749 16.3314 14.8069C16.7966 15.4297 17.1429 16.1783 17.1429 16.9794C17.1429 17.8423 16.7429 18.5337 16.1554 19.0331C15.6011 19.5017 14.8789 19.8057 14.1326 20.0149C12.632 20.4343 10.6469 20.5714 8.57143 20.5714C6.496 20.5714 4.51086 20.4343 3.01143 20.0149C2.264 19.8057 1.54171 19.5017 0.988571 19.0331C0.398857 18.5349 0 17.8423 0 16.9794C0 16.1771 0.346286 15.4297 0.811429 14.808C1.28571 14.1749 1.93829 13.5943 2.70057 13.1051C4.22286 12.1223 6.29371 11.4286 8.57143 11.4286ZM18.2857 11.4286C19.7943 11.4286 21.1634 11.9269 22.1714 12.6297C23.1109 13.2846 24 14.3177 24 15.5097C24 16.1806 23.7109 16.736 23.2709 17.1394C22.8629 17.5143 22.3463 17.7429 21.8491 17.8937C20.8549 18.1943 19.5749 18.2857 18.2857 18.2857H18.0537C18.2023 17.888 18.2857 17.4514 18.2857 16.9794C18.2857 15.848 17.8023 14.8651 17.2457 14.1223C16.6903 13.3806 15.9543 12.728 15.1326 12.1897C16.1085 11.69 17.1892 11.4291 18.2857 11.4286Z" fill="white"/>
</svg>
