<svg width="22" height="22" viewBox="0 0 22 22" fill="none" xmlns="http://www.w3.org/2000/svg">
<path fill-rule="evenodd" clip-rule="evenodd" d="M11.0001 1.83325C12.2039 1.83325 13.3959 2.07034 14.5081 2.53101C15.6202 2.99167 16.6308 3.66688 17.482 4.51809C18.3332 5.36929 19.0084 6.37982 19.4691 7.49197C19.9297 8.60412 20.1668 9.79612 20.1668 10.9999C20.1668 16.0625 16.0628 20.1666 11.0001 20.1666C5.93757 20.1666 1.8335 16.0625 1.8335 10.9999C1.8335 5.93733 5.93757 1.83325 11.0001 1.83325ZM11.9168 11.9166H10.0835C7.8141 11.9166 5.86577 13.291 5.02543 15.253C6.35505 17.1175 8.53563 18.3333 11.0001 18.3333C13.4647 18.3333 15.6452 17.1175 16.9749 15.2529C16.1346 13.291 14.1862 11.9166 11.9168 11.9166ZM11.0001 4.58325C9.48138 4.58325 8.25015 5.81448 8.25015 7.33325C8.25015 8.85203 9.48138 10.0833 11.0001 10.0833C12.5189 10.0833 13.7501 8.85203 13.7501 7.33325C13.7501 5.81448 12.519 4.58325 11.0001 4.58325Z" fill="#8D8D8D"/>
</svg>
