<svg width="26" height="25" viewBox="0 0 26 25" fill="none" xmlns="http://www.w3.org/2000/svg">
<mask id="mask0_784_454" style="mask-type:luminance" maskUnits="userSpaceOnUse" x="0" y="0" width="26" height="25">
<path d="M9 6.33337H23.6667C24.4 6.33337 25 6.93337 25 7.66671V22.3334C25 23.0667 24.4 23.6667 23.6667 23.6667H2.33333C1.6 23.6667 1 23.0667 1 22.3334V7.66671C1 6.93337 1.6 6.33337 2.33333 6.33337H9Z" fill="white" stroke="white" stroke-width="2" stroke-linecap="round" stroke-linejoin="round"/>
<path d="M9 6.33333V2.33333C9 1.6 9.6 1 10.3333 1H15.6667C16.4 1 17 1.6 17 2.33333V6.33333" stroke="white" stroke-width="2" stroke-linecap="round" stroke-linejoin="round"/>
<path d="M13 11.6666V19.6666" stroke="black" stroke-width="2" stroke-linecap="round" stroke-linejoin="round" stroke-dasharray="8 8"/>
<path d="M9 15.6667H17" stroke="black" stroke-width="2" stroke-linecap="round" stroke-linejoin="round" stroke-dasharray="8 8"/>
</mask>
<g mask="url(#mask0_784_454)">
<path d="M-3 -3.00006H29V28.9999H-3V-3.00006Z" fill="white"/>
</g>
</svg>
