<svg width="24" height="24" viewBox="0 0 24 24" fill="none" xmlns="http://www.w3.org/2000/svg">
<path d="M11.7115 4.80001L15.2635 4.87201C15.5382 4.89502 15.7986 5.00422 16.0075 5.18401L17.3995 6.57601L18.7915 7.96801C18.8899 8.06545 18.968 8.18131 19.0216 8.30897C19.0751 8.43663 19.103 8.57358 19.1035 8.71201L19.1995 12.288C19.2013 12.4304 19.1747 12.5716 19.1211 12.7035C19.0675 12.8354 18.9881 12.9553 18.8875 13.056L13.0555 18.888C12.8528 19.0842 12.5817 19.1939 12.2995 19.1939C12.0174 19.1939 11.7463 19.0842 11.5435 18.888L8.32754 15.672L5.11154 12.456C4.91535 12.2532 4.80566 11.9822 4.80566 11.7C4.80566 11.4179 4.91535 11.1468 5.11154 10.944L10.9435 5.11201C11.0443 5.01145 11.1641 4.93204 11.296 4.87846C11.4279 4.82488 11.5692 4.79821 11.7115 4.80001ZM9.74354 10.488L9.16754 11.04C9.13773 11.0624 9.11354 11.0914 9.09688 11.1247C9.08021 11.158 9.07154 11.1948 9.07154 11.232C9.07154 11.2693 9.08021 11.306 9.09688 11.3393C9.11354 11.3727 9.13773 11.4017 9.16754 11.424L12.5755 14.832C12.5979 14.8618 12.6269 14.886 12.6602 14.9027C12.6935 14.9193 12.7303 14.928 12.7675 14.928C12.8048 14.928 12.8415 14.9193 12.8749 14.9027C12.9082 14.886 12.9372 14.8618 12.9595 14.832L13.5355 14.256C13.5653 14.2337 13.5895 14.2047 13.6062 14.1713C13.6229 14.138 13.6315 14.1013 13.6315 14.064C13.6315 14.0268 13.6229 13.99 13.6062 13.9567C13.5895 13.9234 13.5653 13.8944 13.5355 13.872L10.1035 10.488C10.0825 10.4602 10.0553 10.4376 10.0241 10.422C9.99284 10.4065 9.95843 10.3984 9.92354 10.3984C9.88865 10.3984 9.85424 10.4065 9.82301 10.422C9.79177 10.4376 9.76457 10.4602 9.74354 10.488ZM11.3515 8.85601L10.7755 9.43201C10.7457 9.45437 10.7215 9.48336 10.7049 9.51668C10.6882 9.55001 10.6795 9.58675 10.6795 9.62401C10.6795 9.66127 10.6882 9.69802 10.7049 9.73134C10.7215 9.76467 10.7457 9.79366 10.7755 9.81601L14.1835 13.224C14.2059 13.2538 14.2349 13.278 14.2682 13.2947C14.3015 13.3113 14.3383 13.32 14.3755 13.32C14.4128 13.32 14.4495 13.3113 14.4829 13.2947C14.5162 13.278 14.5452 13.2538 14.5675 13.224L15.1435 12.648C15.1733 12.6257 15.1975 12.5967 15.2142 12.5633C15.2309 12.53 15.2395 12.4933 15.2395 12.456C15.2395 12.4188 15.2309 12.382 15.2142 12.3487C15.1975 12.3154 15.1733 12.2864 15.1435 12.264L11.7355 8.85601C11.6823 8.80975 11.6141 8.78427 11.5435 8.78427C11.473 8.78427 11.4048 8.80975 11.3515 8.85601ZM16.8475 7.15201C16.6981 7.00288 16.5078 6.90139 16.3007 6.86037C16.0936 6.81934 15.8789 6.84063 15.6839 6.92153C15.4889 7.00243 15.3222 7.13932 15.205 7.3149C15.0877 7.49048 15.0252 7.69688 15.0252 7.90801C15.0252 8.11915 15.0877 8.32554 15.205 8.50112C15.3222 8.67671 15.4889 8.81359 15.6839 8.8945C15.8789 8.9754 16.0936 8.99668 16.3007 8.95566C16.5078 8.91464 16.6981 8.81315 16.8475 8.66401C17.0437 8.46125 17.1534 8.19016 17.1534 7.90801C17.1534 7.62587 17.0437 7.35478 16.8475 7.15201Z" fill="#8D8D8D"/>
</svg>
