<svg width="24" height="24" viewBox="0 0 24 24" fill="none" xmlns="http://www.w3.org/2000/svg">
<path d="M10.7909 3.15298C10.9024 2.92714 11.0749 2.737 11.2888 2.60405C11.5027 2.47109 11.7496 2.40063 12.0014 2.40063C12.2533 2.40063 12.5001 2.47109 12.7141 2.60405C12.928 2.737 13.1004 2.92714 13.2119 3.15298L15.4934 7.77598L20.5949 8.51698C20.8443 8.55295 21.0787 8.658 21.2715 8.82025C21.4643 8.98249 21.6078 9.19545 21.6858 9.43504C21.7639 9.67462 21.7733 9.93127 21.7131 10.1759C21.6528 10.4206 21.5253 10.6435 21.3449 10.8195L17.6519 14.4195L18.5234 19.5C18.5658 19.7482 18.5379 20.0033 18.4429 20.2365C18.3478 20.4697 18.1895 20.6717 17.9857 20.8196C17.7819 20.9675 17.5408 21.0555 17.2897 21.0736C17.0385 21.0917 16.7873 21.0392 16.5644 20.922L12.0014 18.525L7.43843 20.925C7.21531 21.0424 6.96375 21.095 6.71226 21.0768C6.46077 21.0587 6.2194 20.9704 6.0155 20.8221C5.81159 20.6738 5.6533 20.4713 5.55855 20.2376C5.46381 20.004 5.4364 19.7484 5.47943 19.5L6.34943 14.4195L2.65943 10.821C2.4791 10.6451 2.35156 10.4223 2.29124 10.1778C2.23091 9.93321 2.24022 9.67665 2.31809 9.43711C2.39596 9.19756 2.5393 8.98458 2.73189 8.82224C2.92449 8.6599 3.15866 8.55468 3.40793 8.51848L8.50793 7.77748L10.7909 3.15298Z" fill="url(#paint0_linear_801_3319)"/>
<defs>
<linearGradient id="paint0_linear_801_3319" x1="21.7499" y1="21.498" x2="1.68743" y2="2.57998" gradientUnits="userSpaceOnUse">
<stop stop-color="#FF6F47"/>
<stop offset="1" stop-color="#FFCD0F"/>
</linearGradient>
</defs>
</svg>
