<svg width="24" height="25" viewBox="0 0 24 25" fill="none" xmlns="http://www.w3.org/2000/svg">
<path d="M8.54307 17.9317C8.54307 17.0753 8.67663 16.2491 8.92933 15.4727C9.18204 14.6831 9.5539 13.9695 10.0082 13.3122C10.4783 12.6523 11.0191 12.0762 11.6593 11.5669C12.2813 11.0536 12.991 10.6569 13.7491 10.3479C13.8015 10.2313 13.8329 10.1161 13.9036 9.93279L14.0188 9.61724C14.0358 9.51904 14.0712 9.42083 14.1026 9.33965C14.2571 9.28728 14.3907 9.2061 14.5203 9.08957C14.6368 8.99136 14.7376 8.84079 14.8398 8.6614C14.9236 8.4794 14.9943 8.21491 15.0257 7.90329C15.0427 7.67153 15.0427 7.47513 15.0087 7.31015C14.9589 7.14517 14.9249 7.01554 14.8542 6.91341C14.7874 6.79688 14.6997 6.69868 14.6015 6.6319C14.6015 6.02043 14.5491 5.42729 14.4862 4.85117C14.4025 4.3379 14.2859 3.79714 14.1 3.23542C13.9311 2.67371 13.643 2.14604 13.2568 1.68645C13.0879 1.49005 12.8535 1.27139 12.568 1.07498C12.28 0.878579 11.9461 0.695269 11.5782 0.53029C11.2063 0.382333 10.8056 0.250087 10.384 0.150576C9.96634 0.0523743 9.5408 0 9.1061 0C8.76959 0 8.41737 0.0314246 8.04552 0.0837989C7.67366 0.133555 7.30442 0.231756 6.93256 0.378405C6.5607 0.526362 6.19146 0.739787 5.85496 0.989875C5.51715 1.23865 5.19766 1.56992 4.89651 1.97975C4.59405 2.40791 4.35574 2.88975 4.20779 3.43052C4.05328 3.97521 3.95508 4.48455 3.8883 4.94807C3.83593 5.50978 3.80451 6.05447 3.80451 6.61226C3.67095 6.76284 3.58715 6.90686 3.51645 7.07184C3.44967 7.23682 3.39991 7.41882 3.38289 7.61654C3.36587 7.81294 3.39991 8.0447 3.46669 8.29478C3.53347 8.55797 3.6356 8.74127 3.73773 8.87483C3.83986 9.00838 3.93806 9.12361 4.02579 9.19039C4.14232 9.25716 4.24314 9.30561 4.34527 9.34096C4.41205 9.57272 4.49977 9.80055 4.56262 10.0192C4.6294 10.2156 4.71713 10.3989 4.81533 10.5809C4.89913 10.7629 5.01566 10.9109 5.13481 11.0091C5.38752 11.2238 5.6232 11.4242 5.82354 11.6206C6.02387 11.817 6.14302 12.1011 6.17837 12.4284C6.19539 12.6785 6.19539 12.8749 6.19539 13.0713C6.19539 13.2546 6.14302 13.4327 6.07886 13.616C5.99506 13.7993 5.87853 13.9774 5.707 14.1607C5.53548 14.3427 5.30372 14.5221 4.98031 14.7224C4.7276 14.8874 4.42514 15.017 4.10566 15.1362C3.78617 15.2527 3.44836 15.3509 3.11185 15.4517C2.75702 15.5499 2.42313 15.6481 2.09972 15.7463C1.78024 15.8629 1.47778 15.9951 1.20805 16.1614C0.937011 16.3447 0.702635 16.5411 0.519325 16.7729C0.333396 17.0046 0.216864 17.2992 0.147468 17.6619C-0.00703675 18.6178 -0.0384613 19.3929 0.0453376 20.0004C0.129137 20.6119 0.245669 20.9733 0.417195 21.0898C0.519325 21.1566 0.736679 21.2404 1.07449 21.3046C1.41231 21.3713 1.83261 21.4551 2.321 21.5193C2.82641 21.6031 3.36456 21.6699 3.9721 21.734C4.57572 21.8008 5.18719 21.8676 5.7908 21.9173C6.41537 21.9671 7.00589 21.9985 7.57808 22.03C8.15026 22.0614 8.65699 22.0823 9.09562 22.0823H9.68876C9.33392 21.4709 9.04587 20.8109 8.84553 20.1196C8.6452 19.4178 8.54307 18.6911 8.54307 17.9317Z" fill="white"/>
<path d="M23.4449 15.2946C23.073 14.4514 22.5702 13.7286 21.9273 13.0857C21.2884 12.4612 20.5473 11.9649 19.6896 11.6035C18.8294 11.2421 17.9233 11.0588 16.9426 11.0588C15.9658 11.0588 15.0388 11.2408 14.1825 11.6035C13.3222 11.9649 12.5811 12.4599 11.9448 13.0857C11.3058 13.7103 10.8004 14.4553 10.4272 15.2946C10.0554 16.1378 9.87207 17.0256 9.87207 17.9814C9.87207 18.9372 10.058 19.8289 10.4272 20.6682C10.7991 21.5114 11.3019 22.2342 11.9448 22.8771C12.5838 23.5017 13.3248 23.9979 14.1825 24.3593C15.0427 24.7207 15.9698 24.904 16.9426 24.904C17.9155 24.904 18.8281 24.722 19.6896 24.3593C20.5499 23.9979 21.291 23.503 21.9273 22.8771C22.5702 22.2525 23.0717 21.5075 23.4449 20.6682C23.8167 19.825 24 18.9372 24 17.9814C24 17.0295 23.8141 16.1378 23.4449 15.2946ZM18.8805 21.044C18.6094 21.044 18.3397 20.9393 18.1354 20.735L16.0352 18.6269C15.8454 18.441 15.7262 18.1739 15.7262 17.8858V13.6815C15.7262 13.0988 16.1963 12.6314 16.7763 12.6314C17.3564 12.6314 17.8264 13.1014 17.8264 13.6815V17.4537L19.6216 19.2489C20.0327 19.66 20.0327 20.3239 19.6216 20.735C19.4173 20.9379 19.1502 21.044 18.8805 21.044Z" fill="white"/>
</svg>
