<svg width="24" height="24" viewBox="0 0 24 24" fill="none" xmlns="http://www.w3.org/2000/svg">
<path d="M14.4 16.428V12H16.2V15.384L19.128 17.076L18.228 18.636L14.4 16.428ZM0 22.8V0H21.6V9.71999C23.088 11.232 24 13.308 24 15.6C24 20.244 20.244 24 15.6 24C14.4436 24.0032 13.2992 23.7659 12.2394 23.3031C11.1796 22.8404 10.2277 22.1623 9.444 21.312L7.2 22.8L3.6 20.4L0 22.8ZM8.004 12C8.436 11.1 9 10.284 9.72 9.59999H4.8V12H8.004ZM16.8 7.19999V4.79999H4.8V7.19999H16.8ZM15.6 21.6C18.912 21.6 21.6 18.912 21.6 15.6C21.6 12.288 18.912 9.59999 15.6 9.59999C12.288 9.59999 9.6 12.288 9.6 15.6C9.6 18.912 12.288 21.6 15.6 21.6Z" fill="white"/>
</svg>
