<svg width="24" height="24" viewBox="0 0 24 24" fill="none" xmlns="http://www.w3.org/2000/svg">
<path d="M22.5123 12L23.8387 9.70763C23.9982 9.43183 24.0415 9.10401 23.9593 8.79625C23.877 8.48849 23.6759 8.22598 23.4002 8.06646L21.1054 6.74006V4.09689C21.1054 3.77825 20.9789 3.47265 20.7535 3.24734C20.5282 3.02203 20.2226 2.89545 19.904 2.89545H17.262L15.9368 0.60189C15.7776 0.325956 15.5152 0.124568 15.2075 0.0420175C15.0551 0.00117028 14.8961 -0.00924328 14.7396 0.0113714C14.5832 0.0319862 14.4323 0.0832254 14.2956 0.162162L12.0009 1.48856L9.70609 0.16096C9.43015 0.00164619 9.10221 -0.0415272 8.79443 0.0409373C8.48666 0.123402 8.22424 0.32475 8.06491 0.600689L6.73851 2.89545H4.09653C3.77788 2.89545 3.47229 3.02203 3.24697 3.24734C3.02166 3.47265 2.89508 3.77825 2.89508 4.09689V6.73886L0.600309 8.06526C0.463618 8.14425 0.343835 8.2494 0.247808 8.37471C0.151781 8.50002 0.0813924 8.64303 0.0406657 8.79556C-6.09552e-05 8.94809 -0.0103269 9.10715 0.0104546 9.26365C0.0312361 9.42015 0.0826575 9.57101 0.16178 9.70763L1.48818 12L0.16178 14.2923C0.00317481 14.5684 -0.0398572 14.896 0.0420653 15.2036C0.123988 15.5113 0.324221 15.7741 0.599107 15.9347L2.89388 17.2611V19.9031C2.89388 20.2217 3.02046 20.5273 3.24577 20.7526C3.47109 20.9779 3.77668 21.1045 4.09532 21.1045H6.73851L8.06491 23.3993C8.17128 23.5811 8.32315 23.7321 8.50558 23.8374C8.68801 23.9428 8.89472 23.9988 9.10537 24C9.31442 24 9.52227 23.9447 9.70729 23.8378L11.9997 22.5114L14.2944 23.8378C14.5702 23.9972 14.8981 24.0406 15.2058 23.9583C15.5136 23.8761 15.7761 23.675 15.9356 23.3993L17.2608 21.1045H19.9028C20.2214 21.1045 20.527 20.9779 20.7523 20.7526C20.9777 20.5273 21.1042 20.2217 21.1042 19.9031V17.2611L23.399 15.9347C23.5357 15.8557 23.6555 15.7506 23.7515 15.6253C23.8475 15.4999 23.9179 15.3569 23.9587 15.2044C23.9994 15.0519 24.0096 14.8928 23.9889 14.7363C23.9681 14.5798 23.9167 14.429 23.8375 14.2923L22.5123 12ZM8.99603 5.98075C9.47416 5.98091 9.93264 6.171 10.2706 6.50919C10.6086 6.84739 10.7984 7.306 10.7982 7.78412C10.798 8.26224 10.608 8.72072 10.2698 9.05869C9.93157 9.39666 9.47296 9.58644 8.99483 9.58628C8.51671 9.58612 8.05823 9.39604 7.72026 9.05784C7.38228 8.71964 7.1925 8.26104 7.19266 7.78292C7.19282 7.30479 7.38291 6.84632 7.7211 6.50835C8.0593 6.17037 8.51791 5.98059 8.99603 5.98075ZM9.35647 17.5146L7.43415 16.0741L14.6428 6.46253L16.5652 7.90306L9.35647 17.5146ZM15.0033 17.9952C14.7665 17.9951 14.5321 17.9484 14.3134 17.8577C14.0947 17.7671 13.8961 17.6342 13.7287 17.4667C13.5614 17.2993 13.4286 17.1005 13.3381 16.8818C13.2476 16.663 13.201 16.4286 13.2011 16.1918C13.2012 15.9551 13.2479 15.7207 13.3386 15.502C13.4292 15.2833 13.5621 15.0846 13.7296 14.9172C13.897 14.7499 14.0958 14.6172 14.3145 14.5267C14.5333 14.4361 14.7677 14.3896 15.0045 14.3897C15.4826 14.3898 15.9411 14.5799 16.2791 14.9181C16.617 15.2563 16.8068 15.7149 16.8067 16.193C16.8065 16.6711 16.6164 17.1296 16.2782 17.4676C15.94 17.8056 15.4814 17.9953 15.0033 17.9952Z" fill="white"/>
</svg>
