<svg width="24" height="24" viewBox="0 0 24 24" fill="none" xmlns="http://www.w3.org/2000/svg">
<path d="M18.6936 2.93248L16.2936 1.6664C14.1864 0.555868 13.1328 0 12 0C10.8672 0 9.8136 0.554662 7.7064 1.6664L7.3212 1.87018L18.0288 8.01849L22.848 5.59486C22.0728 4.71222 20.8224 4.05265 18.6936 2.93006M23.6976 7.19132L18.9 9.60289V13.2637C18.9 13.5035 18.8052 13.7335 18.6364 13.9031C18.4676 14.0727 18.2387 14.168 18 14.168C17.7613 14.168 17.5324 14.0727 17.3636 13.9031C17.1948 13.7335 17.1 13.5035 17.1 13.2637V10.5072L12.9 12.6174V24C13.7616 23.7842 14.742 23.2681 16.2936 22.4494L18.6936 21.1833C21.2748 19.8219 22.566 19.1419 23.2836 17.918C24 16.6953 24 15.1724 24 12.1302V11.9891C24 9.70659 24 8.27894 23.6976 7.19132ZM11.1 24V12.6174L0.3024 7.19132C1.07288e-07 8.27894 0 9.70659 0 11.9867V12.1278C0 15.1724 -1.43051e-07 16.6953 0.7164 17.918C1.434 19.1419 2.7252 19.8232 5.3064 21.1845L7.7064 22.4494C9.258 23.2681 10.2384 23.7842 11.1 24ZM1.152 5.59606L12 11.0462L16.0932 8.99035L5.43 2.86736L5.3064 2.93248C3.1788 4.05386 1.9272 4.71342 1.152 5.59727" fill="white"/>
</svg>
