<svg width="24" height="24" viewBox="0 0 24 24" fill="none" xmlns="http://www.w3.org/2000/svg">
<g clip-path="url(#clip0_801_3821)">
<path fill-rule="evenodd" clip-rule="evenodd" d="M1.7725 7.73879H12.9963C13.6536 7.73879 13.5942 7.52627 14.2516 6.46909C14.5613 5.97202 14.8675 5.3903 15.2403 4.92564C15.5033 5.13276 16.058 6.1143 16.2615 6.43668C16.8756 7.40561 16.8558 7.73879 17.5816 7.73879C19.0008 7.73879 21.5654 7.81804 22.8531 7.66675C23.0602 7.04541 22.0048 5.3867 21.5546 4.46099C21.1782 3.68836 21.2826 3.71718 20.2164 3.71718C14.5884 3.71718 8.96025 3.71718 3.33216 3.71718C2.61356 3.71718 2.46588 4.50241 1.86615 5.70007C1.25201 6.92654 0.587449 7.73879 1.7707 7.73879H1.7725ZM12.9963 8.51862H2.65138C2.66399 10.4853 2.61176 17.1616 2.78286 18.6222C3.65814 18.8167 6.63698 18.6888 7.7626 18.6888C7.2277 17.5056 6.78646 16.8212 6.98637 15.2021C7.26912 12.922 9.11694 11.1787 11.415 10.8563C13.0629 10.6258 13.7257 11.1427 14.8639 11.6469V7.05802C14.2354 7.72799 14.293 8.51862 12.9963 8.51862ZM16.2813 18.6888C17.4105 18.6888 20.3785 18.8167 21.2412 18.6186C21.4897 17.864 21.3331 10.0333 21.3331 8.51682C20.1138 8.51682 18.8963 8.51862 17.677 8.52042C16.3371 8.52222 16.2525 7.86486 15.6798 7.01479L15.6527 12.1404C15.732 12.8608 17.0971 13.4695 17.0863 15.9495C17.0809 17.2102 16.6973 17.7739 16.2813 18.687V18.6888ZM12.0075 11.6325C14.3956 11.6325 16.3335 13.5686 16.3335 15.9585C16.3335 18.3466 14.3974 20.2827 12.0075 20.2827C9.61942 20.2827 7.68155 18.3466 7.68155 15.9585C7.68155 13.5704 9.61762 11.6325 12.0075 11.6325ZM14.0192 15.9585C14.0192 16.126 13.8824 16.2647 13.7131 16.2647H12.3137V17.6641C12.3137 17.8315 12.1768 17.9702 12.0075 17.9702C11.84 17.9702 11.7014 17.8333 11.7014 17.6641V16.2647H10.302C10.1345 16.2647 9.99582 16.1278 9.99582 15.9585C9.99582 15.791 10.1327 15.6523 10.302 15.6523H11.7014V14.253C11.7014 14.0855 11.8382 13.9468 12.0075 13.9468C12.175 13.9468 12.3137 14.0837 12.3137 14.253V15.6523H13.7131C13.8806 15.6523 14.0192 15.7892 14.0192 15.9585Z" fill="#8D8D8D"/>
</g>
<defs>
<clipPath id="clip0_801_3821">
<rect width="24" height="24" fill="white"/>
</clipPath>
</defs>
</svg>
