<svg width="24" height="24" viewBox="0 0 24 24" fill="none" xmlns="http://www.w3.org/2000/svg">
<path d="M11.7115 4.79989L15.2635 4.87189C15.5382 4.8949 15.7986 5.0041 16.0075 5.18389L17.3995 6.57589L18.7915 7.96789C18.8899 8.06533 18.968 8.18118 19.0216 8.30884C19.0751 8.4365 19.103 8.57346 19.1035 8.71189L19.1995 12.2879C19.2013 12.4302 19.1747 12.5715 19.1211 12.7034C19.0675 12.8353 18.9881 12.9551 18.8875 13.0559L13.0555 18.8879C12.8528 19.0841 12.5817 19.1938 12.2995 19.1938C12.0174 19.1938 11.7463 19.0841 11.5435 18.8879L8.32754 15.6719L5.11154 12.4559C4.91535 12.2531 4.80566 11.982 4.80566 11.6999C4.80566 11.4177 4.91535 11.1467 5.11154 10.9439L10.9435 5.11189C11.0443 5.01133 11.1641 4.93192 11.296 4.87834C11.4279 4.82476 11.5692 4.79809 11.7115 4.79989ZM9.74354 10.4879L9.16754 11.0399C9.13773 11.0622 9.11354 11.0912 9.09688 11.1246C9.08021 11.1579 9.07154 11.1946 9.07154 11.2319C9.07154 11.2691 9.08021 11.3059 9.09688 11.3392C9.11354 11.3725 9.13773 11.4015 9.16754 11.4239L12.5755 14.8319C12.5979 14.8617 12.6269 14.8859 12.6602 14.9026C12.6935 14.9192 12.7303 14.9279 12.7675 14.9279C12.8048 14.9279 12.8415 14.9192 12.8749 14.9026C12.9082 14.8859 12.9372 14.8617 12.9595 14.8319L13.5355 14.2559C13.5653 14.2335 13.5895 14.2045 13.6062 14.1712C13.6229 14.1379 13.6315 14.1011 13.6315 14.0639C13.6315 14.0266 13.6229 13.9899 13.6062 13.9566C13.5895 13.9232 13.5653 13.8942 13.5355 13.8719L10.1035 10.4879C10.0825 10.4601 10.0553 10.4375 10.0241 10.4219C9.99284 10.4064 9.95843 10.3983 9.92354 10.3983C9.88865 10.3983 9.85424 10.4064 9.82301 10.4219C9.79177 10.4375 9.76457 10.4601 9.74354 10.4879ZM11.3515 8.85589L10.7755 9.43189C10.7457 9.45425 10.7215 9.48323 10.7049 9.51656C10.6882 9.54988 10.6795 9.58663 10.6795 9.62389C10.6795 9.66115 10.6882 9.6979 10.7049 9.73122C10.7215 9.76455 10.7457 9.79354 10.7755 9.81589L14.1835 13.2239C14.2059 13.2537 14.2349 13.2779 14.2682 13.2946C14.3015 13.3112 14.3383 13.3199 14.3755 13.3199C14.4128 13.3199 14.4495 13.3112 14.4829 13.2946C14.5162 13.2779 14.5452 13.2537 14.5675 13.2239L15.1435 12.6479C15.1733 12.6255 15.1975 12.5965 15.2142 12.5632C15.2309 12.5299 15.2395 12.4931 15.2395 12.4559C15.2395 12.4186 15.2309 12.3819 15.2142 12.3486C15.1975 12.3152 15.1733 12.2862 15.1435 12.2639L11.7355 8.85589C11.6823 8.80963 11.6141 8.78415 11.5435 8.78415C11.473 8.78415 11.4048 8.80963 11.3515 8.85589ZM16.8475 7.15189C16.6981 7.00276 16.5078 6.90127 16.3007 6.86024C16.0936 6.81922 15.8789 6.84051 15.6839 6.92141C15.4889 7.00231 15.3222 7.1392 15.205 7.31478C15.0877 7.49036 15.0252 7.69676 15.0252 7.90789C15.0252 8.11902 15.0877 8.32542 15.205 8.501C15.3222 8.67658 15.4889 8.81347 15.6839 8.89437C15.8789 8.97528 16.0936 8.99656 16.3007 8.95554C16.5078 8.91451 16.6981 8.81302 16.8475 8.66389C17.0437 8.46113 17.1534 8.19003 17.1534 7.90789C17.1534 7.62575 17.0437 7.35465 16.8475 7.15189Z" fill="#8D8D8D"/>
</svg>
