<svg width="24" height="25" viewBox="0 0 24 25" fill="none" xmlns="http://www.w3.org/2000/svg">
<path d="M15.503 12.5217C15.503 12.4031 15.4559 12.2893 15.3721 12.2054C15.2882 12.1216 15.1744 12.0745 15.0558 12.0745C14.9372 12.0745 14.8235 12.1216 14.7396 12.2054C14.6557 12.2893 14.6086 12.4031 14.6086 12.5217V13.4638C13.75 13.5323 13.1871 13.7005 12.7733 14.1149C12.3589 14.5287 12.1907 15.0922 12.1216 15.9502H23.9528C23.8836 15.0916 23.7155 14.5287 23.3011 14.1149C22.8873 13.7005 22.3238 13.5323 21.4658 13.4632V12.5217C21.4658 12.4031 21.4186 12.2893 21.3348 12.2054C21.2509 12.1216 21.1372 12.0745 21.0186 12.0745C20.9 12.0745 20.7862 12.1216 20.7023 12.2054C20.6185 12.2893 20.5714 12.4031 20.5714 12.5217V13.4238C20.1748 13.4161 19.73 13.4161 19.2297 13.4161H16.8447C16.3444 13.4161 15.8996 13.4161 15.503 13.4238V12.5217Z" fill="white"/>
<path fill-rule="evenodd" clip-rule="evenodd" d="M12.0747 18.1863C12.0747 17.6861 12.0747 17.2412 12.0825 16.8447H23.9924C24.0001 17.2412 24.0001 17.6861 24.0001 18.1863V19.3789C24.0001 21.6274 24.0001 22.752 23.3013 23.4502C22.6025 24.1485 21.4785 24.1491 19.23 24.1491H16.8449C14.5963 24.1491 13.4718 24.1491 12.7735 23.4502C12.0753 22.7514 12.0747 21.6274 12.0747 19.3789V18.1863ZM21.0188 19.3789C21.1769 19.3789 21.3286 19.3161 21.4404 19.2042C21.5522 19.0924 21.6151 18.9408 21.6151 18.7826C21.6151 18.6245 21.5522 18.4728 21.4404 18.361C21.3286 18.2492 21.1769 18.1863 21.0188 18.1863C20.8606 18.1863 20.709 18.2492 20.5972 18.361C20.4853 18.4728 20.4225 18.6245 20.4225 18.7826C20.4225 18.9408 20.4853 19.0924 20.5972 19.2042C20.709 19.3161 20.8606 19.3789 21.0188 19.3789ZM21.0188 21.764C21.1769 21.764 21.3286 21.7012 21.4404 21.5893C21.5522 21.4775 21.6151 21.3258 21.6151 21.1677C21.6151 21.0096 21.5522 20.8579 21.4404 20.7461C21.3286 20.6342 21.1769 20.5714 21.0188 20.5714C20.8606 20.5714 20.709 20.6342 20.5972 20.7461C20.4853 20.8579 20.4225 21.0096 20.4225 21.1677C20.4225 21.3258 20.4853 21.4775 20.5972 21.5893C20.709 21.7012 20.8606 21.764 21.0188 21.764ZM18.6337 18.7826C18.6337 18.9408 18.5709 19.0924 18.4591 19.2042C18.3472 19.3161 18.1956 19.3789 18.0374 19.3789C17.8793 19.3789 17.7276 19.3161 17.6158 19.2042C17.504 19.0924 17.4412 18.9408 17.4412 18.7826C17.4412 18.6245 17.504 18.4728 17.6158 18.361C17.7276 18.2492 17.8793 18.1863 18.0374 18.1863C18.1956 18.1863 18.3472 18.2492 18.4591 18.361C18.5709 18.4728 18.6337 18.6245 18.6337 18.7826ZM18.6337 21.1677C18.6337 21.3258 18.5709 21.4775 18.4591 21.5893C18.3472 21.7012 18.1956 21.764 18.0374 21.764C17.8793 21.764 17.7276 21.7012 17.6158 21.5893C17.504 21.4775 17.4412 21.3258 17.4412 21.1677C17.4412 21.0096 17.504 20.8579 17.6158 20.7461C17.7276 20.6342 17.8793 20.5714 18.0374 20.5714C18.1956 20.5714 18.3472 20.6342 18.4591 20.7461C18.5709 20.8579 18.6337 21.0096 18.6337 21.1677ZM15.0561 19.3789C15.2142 19.3789 15.3659 19.3161 15.4777 19.2042C15.5895 19.0924 15.6523 18.9408 15.6523 18.7826C15.6523 18.6245 15.5895 18.4728 15.4777 18.361C15.3659 18.2492 15.2142 18.1863 15.0561 18.1863C14.8979 18.1863 14.7463 18.2492 14.6344 18.361C14.5226 18.4728 14.4598 18.6245 14.4598 18.7826C14.4598 18.9408 14.5226 19.0924 14.6344 19.2042C14.7463 19.3161 14.8979 19.3789 15.0561 19.3789ZM15.0561 21.764C15.2142 21.764 15.3659 21.7012 15.4777 21.5893C15.5895 21.4775 15.6523 21.3258 15.6523 21.1677C15.6523 21.0096 15.5895 20.8579 15.4777 20.7461C15.3659 20.6342 15.2142 20.5714 15.0561 20.5714C14.8979 20.5714 14.7463 20.6342 14.6344 20.7461C14.5226 20.8579 14.4598 21.0096 14.4598 21.1677C14.4598 21.3258 14.5226 21.4775 14.6344 21.5893C14.7463 21.7012 14.8979 21.764 15.0561 21.764Z" fill="white"/>
<path d="M9.37762 19.6834C9.37762 18.7434 9.52422 17.8365 9.80161 16.9842C10.079 16.1175 10.4872 15.3342 10.9859 14.6127C11.5019 13.8883 12.0955 13.2559 12.7983 12.6968C13.481 12.1334 14.26 11.6979 15.0922 11.3587C15.1497 11.2308 15.1842 11.1043 15.2618 10.9031L15.3883 10.5567C15.407 10.4489 15.4458 10.3411 15.4803 10.252C15.6498 10.1945 15.7964 10.1054 15.9387 9.9775C16.0667 9.8697 16.1773 9.70442 16.2894 9.50751C16.3814 9.30773 16.459 9.01741 16.4935 8.67534C16.5122 8.42094 16.5122 8.20535 16.4748 8.02425C16.4202 7.84316 16.3829 7.70087 16.3052 7.58876C16.2319 7.46085 16.1356 7.35305 16.0278 7.27975C16.0278 6.60855 15.9704 5.95747 15.9014 5.32507C15.8094 4.76166 15.6815 4.16807 15.4774 3.55148C15.292 2.9349 14.9758 2.35568 14.5518 1.8512C14.3664 1.63561 14.1091 1.39559 13.7958 1.18C13.4796 0.964405 13.1131 0.763188 12.7092 0.582093C12.301 0.419682 11.8612 0.274518 11.3984 0.165286C10.9399 0.0574906 10.4728 0 9.99565 0C9.62627 0 9.23964 0.0344943 8.83146 0.091985C8.42328 0.146601 8.01797 0.254396 7.60978 0.41537C7.2016 0.577781 6.79629 0.812055 6.42691 1.08657C6.0561 1.35965 5.70541 1.72328 5.37484 2.17315C5.04283 2.64313 4.78125 3.17205 4.61883 3.76564C4.44924 4.36354 4.34144 4.92264 4.26814 5.43143C4.21065 6.04801 4.17616 6.64592 4.17616 7.25819C4.02956 7.42348 3.93757 7.58158 3.85996 7.76267C3.78666 7.94377 3.73204 8.14355 3.71336 8.36057C3.69467 8.57616 3.73204 8.83056 3.80534 9.10508C3.87864 9.39397 3.99075 9.59519 4.10286 9.74179C4.21496 9.88839 4.32276 10.0149 4.41905 10.0882C4.54697 10.1615 4.65764 10.2146 4.76975 10.2535C4.84305 10.5078 4.93934 10.7579 5.00833 10.998C5.08163 11.2135 5.17793 11.4148 5.28573 11.6145C5.37771 11.8143 5.50563 11.9767 5.63642 12.0845C5.91381 12.3202 6.17252 12.5401 6.39242 12.7557C6.61232 12.9713 6.74311 13.2832 6.78192 13.6425C6.8006 13.917 6.8006 14.1326 6.8006 14.3482C6.8006 14.5494 6.74311 14.7449 6.67269 14.9461C6.5807 15.1473 6.45279 15.3428 6.2645 15.544C6.07622 15.7438 5.82183 15.9407 5.46682 16.1606C5.18943 16.3417 4.85742 16.484 4.50673 16.6148C4.15603 16.7427 3.78522 16.8505 3.41584 16.9612C3.02634 17.069 2.65984 17.1768 2.30484 17.2846C1.95414 17.4125 1.62214 17.5576 1.32606 17.7402C1.02854 17.9414 0.771274 18.157 0.570057 18.4114C0.365965 18.6658 0.238048 18.9892 0.161873 19.3873C-0.00772415 20.4365 -0.0422185 21.2873 0.0497665 21.9542C0.141752 22.6254 0.269668 23.0221 0.45795 23.15C0.570057 23.2233 0.808643 23.3153 1.17946 23.3857C1.55027 23.4591 2.01163 23.551 2.54773 23.6215C3.10252 23.7134 3.69323 23.7867 4.36013 23.8572C5.02271 23.9305 5.69391 24.0038 6.35649 24.0584C7.04206 24.113 7.69027 24.1475 8.31836 24.182C8.94644 24.2165 9.50266 24.2395 9.98415 24.2395H10.6352C10.2457 23.5683 9.92953 22.8439 9.70963 22.085C9.48973 21.3146 9.37762 20.517 9.37762 19.6834Z" fill="white"/>
</svg>
