<svg width="24" height="24" viewBox="0 0 24 24" fill="none" xmlns="http://www.w3.org/2000/svg">
<path d="M9.12395 19.4286C9.88473 19.4286 11.9997 19.4286 11.9997 19.4286C11.9997 19.4286 14.1143 19.4286 14.8755 19.4286C15.6359 19.4286 15.9811 18.3222 15.541 17.5402C15.2095 16.9509 14.6664 16.2828 13.7824 15.9033C13.2765 16.2575 12.6619 16.4658 11.9997 16.4658C11.3367 16.4658 10.7229 16.2575 10.2169 15.9033C9.33268 16.2828 8.78987 16.9509 8.45804 17.5402C8.01831 18.3222 8.36316 19.4286 9.12395 19.4286Z" fill="black"/>
<path d="M11.9999 15.7253C13.2989 15.7253 14.3514 14.6733 14.3514 13.3741V12.8109C14.3514 11.5118 13.299 10.459 11.9999 10.459C10.7008 10.459 9.64795 11.5118 9.64795 12.8109V13.3741C9.64795 14.6733 10.7008 15.7253 11.9999 15.7253Z" fill="black"/>
<path d="M18.9831 2.66675H15.4284V3.42865C15.4284 4.89889 14.2319 6.09533 12.7617 6.09533H11.2379C9.76767 6.09533 8.57123 4.89889 8.57123 3.42865V2.66675H5.01656C3.82382 2.66675 2.85693 3.63364 2.85693 4.82633V21.8405C2.85693 23.0332 3.82382 24.0001 5.01656 24.0001H18.9831C20.1757 24.0001 21.1426 23.0332 21.1426 21.8405V4.82633C21.1427 3.63364 20.1758 2.66675 18.9831 2.66675ZM18.857 21.7144H5.14265V7.04769H18.857V21.7144Z" fill="black"/>
<path d="M11.2378 5.33334H12.7616C13.8119 5.33334 14.6664 4.47881 14.6664 3.42858V1.90477C14.6664 0.854531 13.8118 0 12.7616 0H11.2378C10.1875 0 9.33301 0.854531 9.33301 1.90477V3.42858C9.33301 4.47877 10.1875 5.33334 11.2378 5.33334ZM10.8568 1.90477C10.8568 1.6942 11.0272 1.52381 11.2378 1.52381H12.7616C12.9722 1.52381 13.1425 1.6942 13.1425 1.90477V2.66667C13.1425 2.87723 12.9722 3.04762 12.7616 3.04762H11.2378C11.0272 3.04762 10.8568 2.87723 10.8568 2.66667V1.90477Z" fill="black"/>
</svg>
