<svg width="17" height="17" viewBox="0 0 17 17" fill="none" xmlns="http://www.w3.org/2000/svg">
<path d="M4.04978 8.772C3.86844 8.9527 3.77778 9.17685 3.77778 9.44444V12.2778C3.77778 12.5454 3.86844 12.7698 4.04978 12.9512C4.23111 13.1325 4.45526 13.2229 4.72222 13.2222C4.98918 13.2216 5.21365 13.1309 5.39561 12.9502C5.57757 12.7695 5.66793 12.5454 5.66667 12.2778V9.44444C5.66667 9.17685 5.576 8.9527 5.39467 8.772C5.21333 8.5913 4.98918 8.50063 4.72222 8.5C4.45526 8.49937 4.23111 8.59004 4.04978 8.772ZM11.6053 4.04978C11.424 4.23048 11.3333 4.45463 11.3333 4.72222V12.2778C11.3333 12.5454 11.424 12.7698 11.6053 12.9512C11.7867 13.1325 12.0108 13.2229 12.2778 13.2222C12.5447 13.2216 12.7692 13.1309 12.9512 12.9502C13.1331 12.7695 13.2235 12.5454 13.2222 12.2778V4.72222C13.2222 4.45463 13.1316 4.23048 12.9502 4.04978C12.7689 3.86907 12.5447 3.77841 12.2778 3.77778C12.0108 3.77715 11.7867 3.86781 11.6053 4.04978ZM7.82756 10.6609C7.64622 10.8416 7.55555 11.0657 7.55555 11.3333V12.2778C7.55555 12.5454 7.64622 12.7698 7.82756 12.9512C8.00889 13.1325 8.23304 13.2229 8.5 13.2222C8.76696 13.2216 8.99143 13.1309 9.17339 12.9502C9.35535 12.7695 9.4457 12.5454 9.44444 12.2778V11.3333C9.44444 11.0657 9.35378 10.8416 9.17244 10.6609C8.99111 10.4802 8.76696 10.3895 8.5 10.3889C8.23304 10.3883 8.00889 10.4789 7.82756 10.6609ZM1.88889 17C1.36944 17 0.924926 16.8152 0.555333 16.4456C0.185741 16.076 0.00062963 15.6312 0 15.1111V1.88889C0 1.36944 0.185111 0.924926 0.555333 0.555333C0.925556 0.185741 1.37007 0.00062963 1.88889 0H15.1111C15.6306 0 16.0754 0.185111 16.4456 0.555333C16.8158 0.925556 17.0006 1.37007 17 1.88889V15.1111C17 15.6306 16.8152 16.0754 16.4456 16.4456C16.076 16.8158 15.6312 17.0006 15.1111 17H1.88889ZM9.17339 8.22894C9.35409 8.04761 9.44444 7.82315 9.44444 7.55555C9.44444 7.28796 9.35378 7.06381 9.17244 6.88311C8.99111 6.70241 8.76696 6.61174 8.5 6.61111C8.23304 6.61048 8.00889 6.70115 7.82756 6.88311C7.64622 7.06507 7.55555 7.28922 7.55555 7.55555C7.55555 7.82189 7.64622 8.04635 7.82756 8.22894C8.00889 8.41154 8.23304 8.50189 8.5 8.5C8.76696 8.49811 8.99143 8.40744 9.17339 8.228" fill="#868686"/>
</svg>
