<svg width="22" height="22" viewBox="0 0 22 22" fill="none" xmlns="http://www.w3.org/2000/svg">
<path fill-rule="evenodd" clip-rule="evenodd" d="M3.39453 15.6264C3.39453 16.0611 3.49205 16.5176 3.62602 16.8169C3.78847 17.1799 3.96298 17.3998 4.22947 17.6685C4.47882 17.9198 4.76268 18.0996 5.11365 18.2396C5.53341 18.4071 5.82476 18.4042 6.40408 18.4042C8.3443 18.4042 10.2843 18.4042 12.2245 18.4042C12.1825 18.3414 11.9554 18.1549 11.8747 18.0926C11.7268 17.9787 11.678 17.8802 11.5549 17.751C11.3806 17.5683 11.1308 17.2106 11.0116 16.9714C10.376 15.6954 10.2761 14.4057 10.8672 13.0781C11.4948 11.6689 12.7623 10.7403 14.2929 10.518C15.3832 10.3597 16.6773 10.6708 17.539 11.3699C17.8726 11.6405 18.0184 11.759 18.2815 12.0827C18.3363 12.15 18.3969 12.2219 18.442 12.2859C18.5014 12.3701 18.5188 12.4249 18.6074 12.4843V9.93799H3.39477V15.6261L3.39453 15.6264Z" fill="#868686"/>
<path fill-rule="evenodd" clip-rule="evenodd" d="M7.29703 3.91914V4.64666C6.43819 4.64666 5.5627 4.54408 4.86028 4.9216C4.52548 5.10167 4.36858 5.24408 4.11344 5.49753C3.24157 6.36434 3.39461 7.63135 3.39461 8.87953H18.6072C18.6072 7.28255 18.8194 5.86299 17.163 4.93318C16.5779 4.60491 16.0469 4.64642 15.3995 4.64642V6.3991C15.3995 7.08148 14.8363 7.62266 14.2751 7.62266C14.0108 7.62266 14.0654 7.641 13.8452 7.58959V6.829C14.3159 7.14424 14.705 6.77372 14.705 6.43216V3.91866C14.705 3.23941 13.6468 3.22565 13.6468 3.91866V4.64618H9.04994V6.39885C9.04994 7.08124 8.4868 7.62242 7.92558 7.62242C7.66127 7.62242 7.71582 7.64076 7.49568 7.58935V6.82875C7.96638 7.144 8.35548 6.77348 8.35548 6.43192V3.91842C8.35548 3.23917 7.29727 3.22541 7.29727 3.91842L7.29703 3.91914Z" fill="#868686"/>
<path fill-rule="evenodd" clip-rule="evenodd" d="M12.9522 14.7003C12.9522 14.2689 13.4652 14.0283 13.7713 14.2781C14.0076 14.4712 14.2697 14.8391 14.5067 14.9979C14.6612 14.9566 15.585 13.9694 15.7716 13.7825C15.9181 13.636 16.0151 13.4767 16.2925 13.4767C16.6017 13.4767 16.8332 13.7391 16.8136 14.0326C16.7955 14.3066 16.517 14.4924 16.3504 14.659C15.9731 15.0363 15.62 15.3894 15.2425 15.7669C15.0904 15.9188 14.8727 16.2123 14.6472 16.2659C14.248 16.3607 13.8038 15.7669 13.407 15.3701C13.2351 15.1982 12.9522 15.016 12.9522 14.7005V14.7003ZM11.1665 14.8326C11.1665 16.5152 12.0601 17.6072 13.3597 18.2614C14.6639 18.9177 16.4417 18.5757 17.4914 17.5199C17.8006 17.2087 18.0526 16.8522 18.2552 16.4315C18.6884 15.5316 18.7249 14.2776 18.2774 13.377C17.8921 12.6019 17.2706 11.8467 16.4441 11.5063C15.9285 11.2941 15.5285 11.1616 14.8374 11.1616C12.8533 11.1616 11.1665 12.8484 11.1665 14.8326Z" fill="#868686"/>
</svg>
