<svg xmlns="http://www.w3.org/2000/svg" width="20" height="20" fill="none" viewBox="0 0 20 20"><path fill="#fff" fill-rule="evenodd" d="M.52 5.823C0 6.77 0 7.915 0 10.203v1.522c0 3.9 0 5.851 1.172 7.063S4.229 20 8 20h4c3.771 0 5.657 0 6.828-1.212S20 15.626 20 11.725v-1.521c0-2.289 0-3.433-.52-4.381-.518-.949-1.467-1.537-3.364-2.715l-2-1.241C12.111.622 11.108 0 10 0S7.89.622 5.884 1.867l-2 1.241C1.987 4.286 1.038 4.874.519 5.823m6.927 7.575a.75.75 0 1 0-.894 1.204A5.77 5.77 0 0 0 10 15.75a5.77 5.77 0 0 0 3.447-1.148.75.75 0 1 0-.894-1.204A4.27 4.27 0 0 1 10 14.25a4.27 4.27 0 0 1-2.553-.852" clip-rule="evenodd"/></svg>