<svg width="18" height="12" viewBox="0 0 18 12" fill="none" xmlns="http://www.w3.org/2000/svg">
<path d="M0.91667 11.9167C0.656948 11.9167 0.439392 11.8287 0.264003 11.6527C0.0886144 11.4767 0.000614272 11.2591 3.16092e-06 11C-0.00060795 10.7409 0.0873922 10.5233 0.264003 10.3473C0.440614 10.1713 0.65817 10.0833 0.91667 10.0833H8.25C8.50973 10.0833 8.72759 10.1713 8.90359 10.3473C9.07959 10.5233 9.16728 10.7409 9.16667 11C9.16606 11.2591 9.07806 11.477 8.90267 11.6536C8.72728 11.8302 8.50973 11.9179 8.25 11.9167H0.91667ZM0.91667 7.33333C0.656948 7.33333 0.439392 7.24533 0.264003 7.06933C0.0886144 6.89333 0.000614272 6.67578 3.16092e-06 6.41667C-0.00060795 6.15756 0.0873922 5.94 0.264003 5.764C0.440614 5.588 0.65817 5.5 0.91667 5.5H3.66667C3.92639 5.5 4.14425 5.588 4.32025 5.764C4.49625 5.94 4.58395 6.15756 4.58334 6.41667C4.58273 6.67578 4.49473 6.89364 4.31934 7.07025C4.14395 7.24686 3.92639 7.33456 3.66667 7.33333H0.91667ZM0.91667 2.75C0.656948 2.75 0.439392 2.662 0.264003 2.486C0.0886144 2.31 0.000614272 2.09244 3.16092e-06 1.83333C-0.00060795 1.57422 0.0873922 1.35667 0.264003 1.18067C0.440614 1.00467 0.65817 0.916667 0.91667 0.916667H3.66667C3.92639 0.916667 4.14425 1.00467 4.32025 1.18067C4.49625 1.35667 4.58395 1.57422 4.58334 1.83333C4.58273 2.09244 4.49473 2.31031 4.31934 2.48692C4.14395 2.66353 3.92639 2.75122 3.66667 2.75H0.91667ZM11 9.16667C9.73195 9.16667 8.6512 8.71964 7.75775 7.82558C6.86431 6.93153 6.41728 5.85078 6.41667 4.58333C6.41606 3.31589 6.86309 2.23514 7.75775 1.34108C8.65242 0.447028 9.73317 0 11 0C12.2668 0 13.3479 0.447028 14.2432 1.34108C15.1384 2.23514 15.5852 3.31589 15.5833 4.58333C15.5833 5.02639 15.5183 5.46578 15.3881 5.9015C15.2579 6.33722 15.0633 6.73811 14.8042 7.10417L17.6917 9.99167C17.8597 10.1597 17.9438 10.3736 17.9438 10.6333C17.9438 10.8931 17.8597 11.1069 17.6917 11.275C17.5236 11.4431 17.3097 11.5271 17.05 11.5271C16.7903 11.5271 16.5764 11.4431 16.4083 11.275L13.5208 8.3875C13.1542 8.64722 12.7533 8.84217 12.3182 8.97233C11.8831 9.1025 11.4437 9.16728 11 9.16667ZM11 7.33333C11.7639 7.33333 12.4132 7.06597 12.9479 6.53125C13.4826 5.99653 13.75 5.34722 13.75 4.58333C13.75 3.81944 13.4826 3.17014 12.9479 2.63542C12.4132 2.10069 11.7639 1.83333 11 1.83333C10.2361 1.83333 9.58681 2.10069 9.05209 2.63542C8.51736 3.17014 8.25 3.81944 8.25 4.58333C8.25 5.34722 8.51736 5.99653 9.05209 6.53125C9.58681 7.06597 10.2361 7.33333 11 7.33333Z" fill="#868686"/>
</svg>
