<svg width="14" height="15" viewBox="0 0 14 15" fill="none" xmlns="http://www.w3.org/2000/svg">
<path d="M8.42768 12.75C9.07643 12.75 9.41918 13.518 8.98643 14.001C8.70506 14.3153 8.36058 14.5667 7.97546 14.7389C7.59035 14.911 7.17326 15 6.75143 15C6.32959 15 5.9125 14.911 5.52739 14.7389C5.14227 14.5667 4.79779 14.3153 4.51643 14.001C4.10243 13.539 4.39793 12.8167 4.99193 12.7552L5.07443 12.7507L8.42768 12.75ZM6.75143 0C7.76993 0 8.63093 0.67725 8.90768 1.60575L8.94217 1.734L8.94818 1.76625C9.77508 2.23253 10.4797 2.88815 11.0043 3.67935C11.5289 4.47055 11.8585 5.37481 11.9662 6.318L11.9872 6.53325L12.0014 6.75V8.94825L12.0172 9.05025C12.1199 9.60287 12.4257 10.097 12.8744 10.4355L12.9997 10.5233L13.1212 10.5975C13.7662 10.9627 13.5412 11.922 12.8384 11.9955L12.7514 12H0.751425C-0.0195747 12 -0.288825 10.977 0.381675 10.5975C0.667448 10.4358 0.91436 10.2135 1.10508 9.94618C1.2958 9.67888 1.4257 9.37309 1.48568 9.05025L1.50143 8.943L1.50218 6.7155C1.5479 5.73591 1.83305 4.78246 2.33264 3.9386C2.83223 3.09474 3.53105 2.3862 4.36793 1.875L4.55393 1.7655L4.56143 1.73325C4.66722 1.28462 4.90825 0.87931 5.25191 0.572134C5.59557 0.264958 6.02528 0.0707407 6.48293 0.0157499L6.61943 0.00299996L6.75143 0Z" fill="#868686"/>
</svg>
