<svg width="22" height="22" viewBox="0 0 22 22" fill="none" xmlns="http://www.w3.org/2000/svg">
<path d="M13.9 2.75C12.5958 2.75 11.5037 3.65784 11.2211 4.87603H3.5C3.08578 4.87603 2.75 5.21182 2.75 5.62603C2.75 6.04025 3.08578 6.37603 3.5 6.37603H11.2925C11.6582 7.4653 12.6875 8.25 13.9 8.25C15.1125 8.25 16.1417 7.4653 16.5075 6.37603H18.5C18.9142 6.37603 19.25 6.04025 19.25 5.62603C19.25 5.21182 18.9142 4.87603 18.5 4.87603H16.5789C16.2963 3.65784 15.2042 2.75 13.9 2.75Z" fill="#868686"/>
<path d="M6.89999 8.25C5.63512 8.25 4.56969 9.10397 4.24882 10.2669L3.48035 10.2869C3.06627 10.2978 2.73941 10.6423 2.75026 11.0564C2.76112 11.4704 3.10558 11.7973 3.51966 11.7864L4.25841 11.7671C4.59046 12.9126 5.64743 13.75 6.89999 13.75C8.14538 13.75 9.19737 12.9222 9.53581 11.7868H18.5C18.9142 11.7868 19.25 11.451 19.25 11.0368C19.25 10.6225 18.9142 10.2867 18.5 10.2867H9.55661C9.24247 9.11375 8.1721 8.25 6.89999 8.25Z" fill="#868686"/>
<path d="M13.9 13.75C12.6604 13.75 11.6124 14.5701 11.2689 15.6974H3.5C3.08578 15.6974 2.75 16.0331 2.75 16.4474C2.75 16.8615 3.08578 17.1974 3.5 17.1974H11.2391C11.5479 18.3784 12.6221 19.25 13.9 19.25C15.1778 19.25 16.2521 18.3784 16.5608 17.1974H18.5C18.9142 17.1974 19.25 16.8615 19.25 16.4474C19.25 16.0331 18.9142 15.6974 18.5 15.6974H16.531C16.1876 14.5701 15.1396 13.75 13.9 13.75Z" fill="#868686"/>
</svg>
