<svg xmlns="http://www.w3.org/2000/svg" width="131" height="114" fill="none" viewBox="0 0 131 114"><path fill="#121212" d="M14.046 113.788h-3.294l-7.458-11.285v11.285H0V97.32h3.294l7.458 11.308V97.32h3.294zm15.372-6.809q0 .706-.094 1.272h-9.529q.118 1.414.989 2.215.87.801 2.14.801 1.836 0 2.612-1.578h3.553q-.565 1.885-2.165 3.109-1.6 1.202-3.929 1.202-1.882 0-3.388-.825a6.06 6.06 0 0 1-2.33-2.379q-.822-1.531-.823-3.534 0-2.027.824-3.558a5.76 5.76 0 0 1 2.306-2.356q1.482-.824 3.411-.824 1.86 0 3.318.801a5.5 5.5 0 0 1 2.282 2.285q.823 1.461.823 3.369m-3.411-.942q-.024-1.273-.918-2.026-.894-.778-2.188-.778-1.224 0-2.07.754-.825.73-1.012 2.05zM37.61 114q-1.881 0-3.388-.825a6.2 6.2 0 0 1-2.376-2.379Q31 109.265 31 107.262t.87-3.534a6.14 6.14 0 0 1 2.424-2.356q1.53-.848 3.412-.848 1.883 0 3.411.848a6 6 0 0 1 2.4 2.356q.894 1.531.894 3.534t-.917 3.534a6.25 6.25 0 0 1-2.447 2.379q-1.53.825-3.435.825m0-2.874q.896 0 1.671-.424.8-.449 1.27-1.32.471-.872.471-2.12 0-1.861-.988-2.851-.964-1.013-2.376-1.013t-2.377 1.013q-.94.99-.94 2.851 0 1.862.917 2.874.94.99 2.353.99m21.189-8.694q0 1.32-.635 2.474-.612 1.155-1.953 1.861-1.317.707-3.34.707H50.12v6.314h-3.294V97.343h6.047q1.906 0 3.247.66t2 1.814q.682 1.155.682 2.615m-6.07 2.38q1.365 0 2.023-.613.66-.636.66-1.767 0-2.403-2.683-2.403H50.12v4.783zm7.562 2.403q0-1.98.776-3.511.8-1.53 2.141-2.356 1.365-.824 3.035-.824 1.46 0 2.541.589 1.107.589 1.765 1.484v-1.861h3.318v13.052h-3.318v-1.908q-.635.919-1.765 1.531-1.106.59-2.564.589a5.6 5.6 0 0 1-3.012-.848q-1.34-.849-2.14-2.38-.777-1.554-.777-3.557m10.258.047q0-1.201-.47-2.05-.471-.872-1.271-1.319a3.33 3.33 0 0 0-1.718-.471q-.917 0-1.694.447-.775.449-1.27 1.32-.47.847-.47 2.026 0 1.177.47 2.073.495.872 1.27 1.343a3.3 3.3 0 0 0 1.695.471q.917 0 1.717-.447a3.43 3.43 0 0 0 1.27-1.32q.471-.872.471-2.073m9.828-4.5a4.7 4.7 0 0 1 1.648-1.626q1.035-.589 2.352-.589v3.464h-.87q-1.553 0-2.353.73-.776.73-.776 2.544v6.503h-3.294v-13.052h3.294zm9.513-6.408v17.434h-3.294V96.354zM98.935 114q-1.882 0-3.388-.825a6.2 6.2 0 0 1-2.376-2.379q-.847-1.531-.847-3.534t.87-3.534a6.14 6.14 0 0 1 2.424-2.356q1.53-.848 3.411-.848t3.412.848a6 6 0 0 1 2.4 2.356q.894 1.531.894 3.534t-.918 3.534a6.25 6.25 0 0 1-2.447 2.379q-1.529.825-3.435.825m0-2.874a3.44 3.44 0 0 0 1.671-.424 3.2 3.2 0 0 0 1.27-1.32q.471-.872.471-2.12 0-1.861-.988-2.851-.965-1.013-2.377-1.013-1.41 0-2.376 1.013-.94.99-.941 2.851 0 1.862.917 2.874.942.99 2.353.99m21.521-10.39v13.052h-3.317v-1.649a4.4 4.4 0 0 1-1.671 1.343 5.2 5.2 0 0 1-2.211.471q-1.53 0-2.706-.636-1.176-.66-1.859-1.909-.659-1.272-.659-3.015v-7.657h3.294v7.186q0 1.554.777 2.403.776.824 2.117.824 1.365 0 2.141-.824.777-.849.777-2.403v-7.186zm6.544 2.026a4.7 4.7 0 0 1 1.647-1.626q1.036-.589 2.353-.589v3.464h-.871q-1.552 0-2.352.73-.777.73-.777 2.544v6.503h-3.294v-13.052H127z"/><path fill="#361438" fill-rule="evenodd" d="M104.86 1.094c1.116 8.06-.963 14.728-6.586 20.035-6.31 5.963-12.856 11.683-19.264 17.548-.801.73-1.222.778-1.975-.032a114 114 0 0 0-5.663-5.72c-.914-.859-.752-1.304.097-2.058 10.114-8.984 20.195-18.01 30.284-27.027.939-.834 1.877-1.653 3.115-2.738z" clip-rule="evenodd"/><path fill="#ef3e23" fill-rule="evenodd" d="M95.806 43.263c-6.092-3.71-13.455-3.703-19.402-.016A10257 10257 0 0 1 41.395 8.442C38.661 5.695 36.047 2.827 33.37 0c-.42.462-.542.527-.558.616-1.319 7.72-.146 14.793 5.558 20.602 2.986 3.038 6.1 5.955 9.143 8.936l12.403 12.104c4.66 5.137 8.965 9.876 13.447 14.81.542-1.32.866-2.252 1.287-3.127 3.058-6.279 10.696-8.92 16.974-5.89 4.547 2.196 7.476 6.935 7.08 11.877-.413 5.201-3.107 9.01-8.05 10.889-5.09 1.928-9.896.98-13.618-2.974-6.488-6.886-12.694-14.04-19.102-21.007-4.183-4.561-9.523-6.781-15.745-6.206-8.447.786-14.87 6.424-16.845 14.323-1.885 7.543 1.36 15.629 7.97 19.842 7.006 4.472 15.316 4.196 22.193-.98 1.731-1.313 2.88-1.58 4.021.356 0 0 6.764 3.953 11.521 3.427C66 72 61.315 66.815 56.468 61.427c-.542 1.353-.857 2.309-1.294 3.2-3.026 6.076-10.065 8.66-16.376 6.044-6.028-2.504-9.11-9.39-6.942-15.531 3.115-8.88 14.718-11.229 21.344-4.172 6.408 6.813 12.484 13.926 18.868 20.764 5.089 5.453 11.489 7.348 18.803 5.501 7.613-1.92 13.228-8.126 14.021-15.515.85-7.931-2.144-14.234-9.078-18.455zm-28.245 1.02c-1.222.122-2.403-1.06-2.435-2.316-.016-1.224 1.149-2.39 2.37-2.374 1.246.016 2.436 1.19 2.33 2.414-.113 1.353-.938 2.147-2.265 2.277" clip-rule="evenodd"/></svg>