<svg width="100" height="97" viewBox="0 0 100 97" fill="none" xmlns="http://www.w3.org/2000/svg">
<path fill-rule="evenodd" clip-rule="evenodd" d="M98.9366 1.3501C100.317 11.3001 97.7465 19.5301 90.7965 26.0801C82.9965 33.4401 74.9064 40.5001 66.9864 47.7401C65.9964 48.6401 65.4765 48.7001 64.5465 47.7001C62.2865 45.2701 59.9665 42.9001 57.5465 40.6401C56.4165 39.5801 56.6166 39.0301 57.6666 38.1001C70.1666 27.0101 82.6265 15.8701 95.0965 4.74011C96.2565 3.71011 97.4166 2.70011 98.9466 1.36011L98.9366 1.3501Z" fill="#868686"/>
<path fill-rule="evenodd" clip-rule="evenodd" d="M87.7463 53.4C80.2163 48.82 71.1163 48.83 63.7663 53.38C49.3063 39.09 34.8863 24.78 20.4963 10.42C17.1163 7.03004 13.8864 3.49 10.5764 0C10.0564 0.57 9.90643 0.65001 9.88643 0.76001C8.25643 10.29 9.7063 19.0199 16.7563 26.1899C20.4463 29.9399 24.2963 33.54 28.0563 37.22C33.1663 42.2 38.2764 47.18 43.3864 52.16C49.1464 58.5 54.4663 64.3499 60.0063 70.4399C60.6763 68.8099 61.0764 67.66 61.5964 66.58C65.3764 58.83 74.8164 55.5701 82.5764 59.3101C88.1964 62.0201 91.8164 67.87 91.3264 73.97C90.8164 80.39 87.4864 85.09 81.3764 87.41C75.0864 89.79 69.1463 88.62 64.5463 83.74C56.5263 75.24 48.8565 66.4001 40.9365 57.8101C35.7665 52.1801 29.1663 49.44 21.4763 50.15C11.0363 51.12 3.09644 58.08 0.656444 67.83C-1.67356 77.14 2.3363 87.1199 10.5063 92.3199C19.1663 97.8399 29.4365 97.5 37.9365 91.11C40.0765 89.49 41.4964 89.16 42.9064 91.55C42.9064 91.55 51.2664 96.43 57.1464 95.78C50.9064 88.87 45.1164 82.4699 39.1264 75.8199C38.4564 77.4899 38.0663 78.67 37.5263 79.77C33.7863 87.27 25.0863 90.46 17.2863 87.23C9.83633 84.14 6.02649 75.6401 8.70649 68.0601C12.5565 57.1001 26.8964 54.2 35.0864 62.91C43.0064 71.32 50.5164 80.1 58.4064 88.54C64.6964 95.27 72.6064 97.61 81.6464 95.33C91.0564 92.96 97.9963 85.3001 98.9763 76.1801C100.026 66.3901 96.3263 58.61 87.7563 53.4H87.7463ZM52.8364 54.65C51.3264 54.8 49.8664 53.34 49.8264 51.79C49.8064 50.28 51.2463 48.84 52.7563 48.86C54.2963 48.88 55.7664 50.33 55.6364 51.84C55.4964 53.51 54.4764 54.49 52.8364 54.65Z" fill="#FF0B01"/>
</svg>
