<svg width="90" height="90" viewBox="0 0 90 90" fill="none" xmlns="http://www.w3.org/2000/svg">
<circle cx="44.5" cy="44.5" r="29.5" fill="#FF0B01"/>
<path d="M43.2254 53.5142C43.2254 53.8764 43.3692 54.2238 43.6254 54.4799C43.8815 54.7361 44.2289 54.8799 44.5911 54.8799C44.9533 54.8799 45.3007 54.7361 45.5568 54.4799C45.8129 54.2238 45.9568 53.8764 45.9568 53.5142V47.596H51.875C52.2373 47.596 52.5846 47.4521 52.8408 47.196C53.0969 46.9399 53.2408 46.5925 53.2408 46.2303C53.2408 45.868 53.0969 45.5207 52.8408 45.2645C52.5846 45.0084 52.2373 44.8645 51.875 44.8645H45.9568V38.9463C45.9568 38.5841 45.8129 38.2367 45.5568 37.9806C45.3007 37.7245 44.9533 37.5806 44.5911 37.5806C44.2289 37.5806 43.8815 37.7245 43.6254 37.9806C43.3692 38.2367 43.2254 38.5841 43.2254 38.9463V44.8645H37.3071C36.9449 44.8645 36.5975 45.0084 36.3414 45.2645C36.0853 45.5207 35.9414 45.868 35.9414 46.2303C35.9414 46.5925 36.0853 46.9399 36.3414 47.196C36.5975 47.4521 36.9449 47.596 37.3071 47.596H43.2254V53.5142Z" fill="white"/>
<path d="M30.9329 12.4863L28.612 5.59381L31.3717 4.66455C31.8787 4.49381 32.327 4.42656 32.7164 4.46281C33.1058 4.49905 33.4307 4.62196 33.6911 4.83154C33.9508 5.03887 34.1388 5.3153 34.2551 5.66082C34.3458 5.93006 34.3717 6.18489 34.3327 6.42533C34.293 6.66352 34.2008 6.87941 34.0562 7.073C33.913 7.2636 33.7305 7.42624 33.5085 7.56092L33.5312 7.62823C33.7975 7.55106 34.0681 7.54237 34.343 7.60217C34.6202 7.66122 34.8722 7.78997 35.0988 7.98842C35.3248 8.18462 35.4948 8.45212 35.6089 8.79091C35.732 9.15662 35.7511 9.51367 35.6661 9.86205C35.5825 10.2074 35.3926 10.5224 35.0962 10.8071C34.7999 11.0917 34.3937 11.3209 33.8776 11.4947L30.9329 12.4863ZM31.9889 10.8042L33.1769 10.4042C33.583 10.2674 33.8531 10.0903 33.9872 9.87279C34.1206 9.65303 34.1434 9.41301 34.0558 9.15275C33.9916 8.96204 33.8889 8.80926 33.7478 8.69439C33.6067 8.57953 33.4369 8.5093 33.2385 8.48371C33.0422 8.45735 32.8275 8.48346 32.5941 8.56203L31.3725 8.9734L31.9889 10.8042ZM31.0404 7.98732L32.1207 7.62355C32.3204 7.55631 32.486 7.46185 32.6173 7.34017C32.7502 7.21549 32.8396 7.07297 32.8856 6.91262C32.9337 6.75151 32.9272 6.58009 32.866 6.39836C32.7822 6.14931 32.6259 5.97835 32.3973 5.88547C32.1709 5.79183 31.8962 5.7994 31.5731 5.90819L30.4659 6.28103L31.0404 7.98732ZM43.4176 6.09605C43.5125 6.88344 43.4439 7.57129 43.212 8.15961C42.9824 8.74764 42.6289 9.21826 42.1517 9.57145C41.6765 9.92201 41.1204 10.1357 40.4834 10.2124C39.8417 10.2897 39.2483 10.2134 38.7032 9.98341C38.158 9.75342 37.7041 9.38009 37.3414 8.86343C36.9787 8.34676 36.75 7.69591 36.6554 6.91087C36.5605 6.12348 36.6279 5.43576 36.8575 4.84773C37.0871 4.25969 37.4395 3.7904 37.9147 3.43984C38.3896 3.08692 38.9479 2.87181 39.5896 2.79449C40.2265 2.71774 40.8176 2.79436 41.3628 3.02435C41.91 3.25171 42.365 3.62372 42.7277 4.14039C43.0927 4.65677 43.3227 5.30865 43.4176 6.09605ZM41.8698 6.28255C41.8084 5.7725 41.6801 5.35158 41.4852 5.01978C41.2925 4.68769 41.0478 4.44772 40.751 4.29988C40.4542 4.15203 40.1213 4.10034 39.7523 4.14481C39.3833 4.18927 39.0722 4.31857 38.819 4.53269C38.5658 4.7468 38.3839 5.03818 38.2733 5.4068C38.1651 5.77514 38.1417 6.21433 38.2032 6.72437C38.2646 7.23441 38.3917 7.65547 38.5843 7.98756C38.7793 8.31936 39.0252 8.55919 39.322 8.70704C39.6188 8.85488 39.9517 8.90657 40.3207 8.86211C40.6897 8.81764 41.0008 8.68835 41.254 8.47423C41.5072 8.26011 41.6879 7.96888 41.7961 7.60054C41.9067 7.23192 41.9313 6.79259 41.8698 6.28255ZM51.9873 6.77758C51.9063 7.56652 51.6878 8.22236 51.3319 8.74508C50.9783 9.26804 50.5299 9.64918 49.9865 9.88849C49.4457 10.1257 48.8562 10.2115 48.218 10.146C47.575 10.08 47.0131 9.87471 46.532 9.53021C46.0509 9.18571 45.6905 8.72151 45.4505 8.13761C45.2106 7.5537 45.1311 6.86846 45.2118 6.08187C45.2928 5.29293 45.5101 4.63698 45.8637 4.11402C46.2173 3.59105 46.6644 3.21097 47.2052 2.97378C47.7462 2.73422 48.3382 2.64746 48.9811 2.71347C49.6194 2.77901 50.179 2.98402 50.6601 3.32852C51.1437 3.67091 51.5055 4.13405 51.7454 4.71796C51.9877 5.3021 52.0683 5.98865 51.9873 6.77758ZM50.4365 6.61835C50.489 6.1073 50.4567 5.66847 50.3396 5.30185C50.2249 4.93547 50.0391 4.64747 49.7822 4.43784C49.5253 4.22821 49.212 4.10441 48.8422 4.06645C48.4725 4.02848 48.1405 4.08602 47.8464 4.23907C47.5522 4.39211 47.3106 4.63622 47.1215 4.97141C46.9347 5.30683 46.8151 5.73007 46.7626 6.24111C46.7102 6.75216 46.7413 7.19087 46.856 7.55724C46.973 7.92386 47.16 8.21199 47.4169 8.42162C47.6738 8.63125 47.9872 8.75505 48.3569 8.79301C48.7266 8.83098 49.0586 8.77344 49.3527 8.62039C49.6469 8.46735 49.8874 8.22311 50.0741 7.88769C50.2632 7.55251 50.384 7.12939 50.4365 6.61835ZM52.7045 10.6397L54.9446 3.72049L56.4074 4.19408L55.4198 7.24487L55.511 7.2744L58.9886 5.02971L60.7421 5.59737L57.1714 7.8642L58.5325 12.5264L56.7824 11.9598L55.808 8.50152L54.804 9.14696L54.1674 11.1133L52.7045 10.6397Z" fill="black"/>
<path d="M8.44514 66.1713L7.53886 64.7952L14.9936 62.8918L16.0835 64.5467L11.3886 70.6406L10.4823 69.2645L14.1662 64.6571L14.1349 64.6096L8.44514 66.1713ZM10.7759 64.513L12.9166 67.7634L11.9142 68.4236L9.77349 65.1731L10.7759 64.513ZM12.8576 72.3916L18.0326 67.2817L20.0487 69.3234C20.4362 69.7159 20.6914 70.1243 20.8143 70.5487C20.9389 70.9713 20.9404 71.3856 20.819 71.7917C20.7009 72.1977 20.47 72.5704 20.1264 72.9097C19.7827 73.2491 19.4063 73.4744 18.9971 73.5856C18.588 73.6969 18.1712 73.6842 17.7469 73.5476C17.3242 73.4126 16.9166 73.1464 16.524 72.7488L15.239 71.4475L16.1159 70.5817L17.2262 71.7061C17.4341 71.9167 17.6416 72.0545 17.8488 72.1194C18.0593 72.1843 18.2627 72.1865 18.459 72.1258C18.6586 72.0651 18.8434 71.9508 19.0136 71.7828C19.1854 71.6131 19.3012 71.4305 19.3611 71.235C19.4242 71.0396 19.423 70.8378 19.3574 70.6298C19.2934 70.4202 19.1566 70.2092 18.947 69.997L18.2185 69.2591L13.9379 73.4858L12.8576 72.3916ZM18.5128 77.7728L22.651 71.7922L25.0105 73.4248C25.4641 73.7387 25.7906 74.0927 25.99 74.4869C26.1908 74.8791 26.2691 75.286 26.2251 75.7075C26.1843 76.1284 26.0265 76.5374 25.7517 76.9345C25.4769 77.3317 25.1488 77.6229 24.7673 77.808C24.3859 77.9932 23.974 78.058 23.5317 78.0024C23.0913 77.9482 22.6414 77.7621 22.1819 77.4442L20.678 76.4036L21.3791 75.3903L22.6786 76.2894C22.922 76.4578 23.1515 76.5547 23.3671 76.5801C23.586 76.6049 23.7863 76.5693 23.9679 76.4732C24.1528 76.3766 24.3132 76.23 24.4493 76.0334C24.5867 75.8348 24.6667 75.6339 24.6892 75.4307C24.7151 75.2269 24.6765 75.0289 24.5734 74.8367C24.4717 74.6425 24.2982 74.4606 24.0529 74.2908L23.2002 73.7008L19.7773 78.6477L18.5128 77.7728ZM32.7453 81.3288C32.4336 82.0581 32.0303 82.6195 31.5352 83.013C31.0423 83.4074 30.5009 83.6381 29.911 83.7053C29.3241 83.7712 28.7357 83.6782 28.1458 83.4261C27.5514 83.1721 27.0757 82.8093 26.7187 82.3375C26.3616 81.8657 26.1552 81.3154 26.0995 80.6866C26.0438 80.0578 26.1713 79.3798 26.4819 78.6527C26.7935 77.9234 27.1958 77.3615 27.6887 76.9671C28.1816 76.5727 28.7215 76.3426 29.3083 76.2766C29.896 76.2085 30.4871 76.3014 31.0814 76.5554C31.6714 76.8075 32.1449 77.1694 32.502 77.6412C32.8622 78.1118 33.0701 78.6614 33.1258 79.2902C33.1837 79.92 33.0569 80.5995 32.7453 81.3288ZM31.3117 80.7163C31.5135 80.2439 31.613 79.8152 31.6101 79.4304C31.6094 79.0465 31.5174 78.7163 31.3344 78.4398C31.1513 78.1634 30.8888 77.9521 30.547 77.8061C30.2052 77.66 29.8712 77.6164 29.5448 77.6752C29.2185 77.734 28.9153 77.8954 28.6352 78.1593C28.3572 78.4241 28.1174 78.7928 27.9155 79.2652C27.7137 79.7376 27.6131 80.1658 27.6138 80.5497C27.6167 80.9345 27.7097 81.2652 27.8928 81.5416C28.0759 81.8181 28.3384 82.0293 28.6802 82.1754C29.022 82.3214 29.356 82.365 29.6824 82.3062C30.0087 82.2474 30.3108 82.0856 30.5888 81.8208C30.8689 81.5569 31.1098 81.1887 31.3117 80.7163ZM36.7256 78.7156L34.9206 85.7607L33.4311 85.3791L35.2361 78.3339L36.7256 78.7156ZM44.0164 79.5742L43.2564 86.8071L41.9355 86.6683L39.2671 81.7853L39.2141 81.7797L38.7358 86.3321L37.2066 86.1714L37.9666 78.9385L39.3086 79.0795L41.9527 83.9564L42.0163 83.963L42.4942 79.4142L44.0164 79.5742ZM45.1135 80.8676L44.9925 79.6057L50.9383 79.0356L51.0593 80.2975L48.8429 80.51L49.416 86.4876L47.9031 86.6327L47.3299 80.6551L45.1135 80.8676ZM51.8781 78.8036L53.6777 78.2057L57.1191 82.2113L57.2 82.1844L57.5599 76.9158L59.3595 76.3178L61.6527 83.2196L60.2373 83.6898L58.7447 79.1977L58.6874 79.2167L58.3827 84.2686L57.4189 84.5889L54.1458 80.707L54.0885 80.726L55.5867 85.2351L54.1714 85.7054L51.8781 78.8036ZM64.226 82.033L60.4779 75.8005L64.6776 73.2749L65.3309 74.3613L62.449 76.0945L63.3421 77.5796L66.0079 75.9764L66.6613 77.0628L63.9954 78.666L64.8903 80.1541L67.7845 78.4137L68.4378 79.5001L64.226 82.033ZM70.1727 68.4879L75.0321 73.8988L74.044 74.7863L68.6314 73.4948L68.5918 73.5304L71.6503 76.936L70.5063 77.9634L65.6468 72.5525L66.6508 71.6508L72.0426 72.9563L72.0901 72.9135L69.034 69.5106L70.1727 68.4879ZM71.8666 68.5418L70.849 67.7857L74.4113 62.9912L75.429 63.7473L74.101 65.5345L78.9211 69.1159L78.0147 70.3359L73.1946 66.7545L71.8666 68.5418Z" fill="black"/>
</svg>
