<svg xmlns="http://www.w3.org/2000/svg" width="36" height="36" fill="none" viewBox="0 0 36 36"><g fill-rule="evenodd" clip-path="url(#clip0_159_489)" clip-rule="evenodd"><path fill="#868686" d="M16.665 9.645h2.67c2.881 0 5.238 2.357 5.238 5.237v4.21c0 2.462-1.722 4.541-4.022 5.093v3.187h5.187a4.74 4.74 0 0 1 4.727 4.727H5.535c0-2.6 2.128-4.727 4.728-4.727h5.187v-3.187c-2.3-.552-4.023-2.631-4.023-5.094v-4.209c0-2.88 2.357-5.237 5.238-5.237m4.646 9.197a3.371 3.371 0 0 1-6.512 0 .483.483 0 0 1 .93-.25 2.407 2.407 0 0 0 4.65 0 .483.483 0 0 1 .931.25z"/><path fill="#ff0b01" d="M19.62 8.645s-5.087-.313-7.474 1.996c-2.386 2.308-1.565 5.673-1.565 5.673s1.146 5.262-2.123 1.714-.859-7.924-.859-7.924 1.987-3.62 7.192-4.48c5.204-.862 4.828 3.021 4.828 3.021"/><path fill="#ff0b01" d="M17.197 4.238s6.458 3.875 7.965 7.965c0 0 1.116 3.034 1.116 6.948 0 0 4.4-1.966 2.535-8.389 0 0-2.732-8.65-11.616-6.524"/></g><defs><clipPath id="clip0_159_489"><path fill="#fff" d="M0 0h36v36H0z"/></clipPath></defs></svg>