<svg xmlns="http://www.w3.org/2000/svg" width="36" height="36" fill="none" viewBox="0 0 36 36"><g fill-rule="evenodd" clip-path="url(#clip0_159_483)" clip-rule="evenodd"><path fill="#ff0b01" d="M17.874 26.576c0-.68.474-1.514 1.262-1.514 1.725 0 5.72 6.306 2.9 6.306-1.365 0-2.142-.729-2.933-1.607-.587-.652-1.229-1.982-1.229-3.185m8.828-8.702-.948.216c.292-.145.637-.216.948-.216m-3.204.73-.263.06-1.326-.646c-.12-.066-.177-.104-.325-.197-.276-.173-.328-.213-.64-.37l-2.495-1.413c-.198-.213-.176-.324-.304-.579a6 6 0 0 0-.376-.632l-1.21-1.545c-.076-.1-.27-.42-.41-.598L13.17 8.957c-.205-.243-.28-.294-.467-.541-1-1.31-3.516-4.243-4.792-4.918.085.32.402.811.587 1.178.238.474.44.763.673 1.219l3.91 7.187-.58-.287-2.953-1.603c-.237-.119-.323-.191-.555-.33l-5.496-2.95c.742 1.401 1.91 2.142 2.745 2.93l8.53 6.854c1.913 1.4.629-.486 3.017 3.793.28.501.932 1.633.967 2.06-1.326.03-1.956 1.385-2.118 2.554-.078.559.12 1.498.27 1.943 1.771 5.31 8.731 6.061 7.577 1.146a4 4 0 0 0-.142-.508c-.211-.607-.43-1.02-.74-1.532-.188-.312-.255-.43-.431-.687-1.198-1.749-2.05-2.114-2.322-2.489l-1.337-4.462c.663.055 2.78.81 3.631 1.033 1.703.446.86.998 3.233 2.57 1.501.993 4.413 2.552 5.652.59 1.61-2.554-1.2-5.827-3.889-6.767-1.266-.443-2.687-.49-3.788.37-.385.301-.559.544-.74 1-.015.036-.05.15-.064.184l-.05.111m-.263.06.263-.06-.03.067c-.009.02-.026.06-.045.086zm2.519-.574.948-.216c1.834 0 4.666 1.805 4.666 4.162 0 2.199-3.518.168-4.512-.66-.565-.47-1.572-1.258-1.75-2.046-.135-.603.191-1.013.648-1.24m-8.847-1.857a.654.654 0 1 1 0 1.308.654.654 0 0 1 0-1.308"/><path fill="#868686" d="M16.866 11.568c.098.187.119.225.247.4.016.022.04.05.057.072l2.092 2.933c1.023-.685.729-.608 2.931 1.356.136.122.183.187.318.313l.408.349 1.038-.98-.63-.69c-.287-.307-.323-.448-.627-.76-1.516-1.558-1.386-1.347-.79-2.236 1.181 0 1.37.79 2.574 1.713 1.859 1.423 1.114 1.44 2.974 1.44-.292-1.096-3.657-4.36-3.657-4.667 0-.188.44-1.515 1.549-.393l2.538 2.234c.722.56 1.541 1.294 2.345 1.312-.247-1.062-3.443-4.774-4.035-5.17 0-1.09.525-1.552 1.423-.645l2.16 2.125c.626.63 1.35 1.531 2.092 1.924 1.34-.898.223-2.49-.579-3.709-1.061-1.613-1.744-2.533-3.17-3.746l-.428-.457c-2.448-2.197-4.52.908-6.89 3.277l-1.954 1.955c-.55.55-1.608 1.485-1.987 2.05M3.498 25.819c0 .959.511 1.589 1.12 2.192.017.018.045.042.063.06l.115.13c1.135 1.386 4.716 4.302 6.395 4.302.56 0 .785-.297 1.009-.63-.438-.827-2.513-2.73-3.374-3.562L7.66 27.08c0-.799.367-.884 1.134-.884.166.314 2.376 2.185 2.648 2.397.161.126 3.35 2.78 2.45.978l-1.079-1.466c-.411-.55-.765-.92-1.206-1.442l-1.258-1.376c-.696-.717-.388-1.103.338-1.487.36-.046 1.95 1.551 2.366 1.922l2.426 1.862c0-1.953.074-1.168-1.26-2.902l-.937-1.08c-.482-.642-.956-.598-.956-1.441 0-.285.33-.63.631-.63.578 0 1.515 1.04 2.3 1.736.27.239.475.44.727.66l1.038-.98c-.61-.874-2.425-2.38-2.425-3.056 0-.303.204-.37.378-.63-1.058-.56-1.813-1.266-2.79-1.984l-.143-.109c-.24-.176-.213-.167-.472-.303l-6.336 6.293c-.432.446-.73.647-1.084 1.168-.289.426-.651 1.057-.651 1.492z"/></g><defs><clipPath id="clip0_159_483"><path fill="#fff" d="M0 0h36v36H0z"/></clipPath></defs></svg>