<svg xmlns="http://www.w3.org/2000/svg" width="36" height="36" fill="none" viewBox="0 0 36 36"><g fill-rule="evenodd" clip-path="url(#clip0_159_496)" clip-rule="evenodd"><path fill="#868686" d="M13.138 24.625c2.66 0 3.286 3.457 1.142 4.508-.961.47-2.034.29-2.812-.486-1.428-1.424-.408-4.022 1.67-4.022m1.603-1.335c-.907-.211-.774-.368-2.03-.266-1.17.095-2.362.909-2.937 1.87-.656 1.099-.791 2.355-.308 3.563.183.457.33.666.573 1.03-.074.054-.855.991-.855 1.282 0 .637.27.908.908.908.471 0 1.097-1.032 1.122-1.122.331.028 2.083 1.187 4.19-.191 1.67-1.094 2.263-3.3 1.439-5.01-.184-.382-.451-.892-.767-1.103.185-.35.404-.684.618-1.039.342-.569.704-1.264 1.15-1.735.668-.704 1.85-.834 2.711-.423.501.239.994.692 1.624-.264l4.466-6.38c.566-.834 1.078-1.712 1.42-2.694.724-2.08 1.015-4.064.705-6.302-.065-.464-.122-1.092-.886-1.092-.58 0-.728.471-1.047.93-.153.222-.264.37-.416.598l-1.208 1.785c-.273.41-.538.78-.823 1.208l-8.11 11.924z"/><path fill="#868686" d="M22.755 24.625c2.645 0 3.294 3.453 1.142 4.508-1.213.593-2.68.144-3.28-1.195-.684-1.53.484-3.313 2.138-3.313m-3.793-2.03c.052.197.801 1.354.961 1.656-.315.211-.582.722-.766 1.104-.702 1.454-.375 3.349.825 4.501 1.06 1.017 2.56 1.452 4.022.987.178-.056.19-.088.354-.126.44.295.513.961 1.23.961.573 0 1.141-.687.547-1.402a6 6 0 0 1-.387-.52c.163-.244.476-.505.71-1.053.798-1.868.229-3.951-1.375-5.015-.404-.269-1.158-.615-1.742-.661-1.303-.102-1.15.047-2.081.264-.312-.59-.24-.297-.818-.518-.673-.258-.779-.645-1.48-.177"/><path fill="#ff0b01" d="M4.323 9.933c0 .358.062.69.477.859.157.064.796.082 1.058.117 1.726.227 3.505 1.535 5.41 1.535 2.48 0 2.94-.597 5.055-1.303 2.383-.795 3.749.287 4.402.341l.908-1.335c-.776-.411-2.417-.908-3.313-.908-1.72 0-2.183.19-3.694.793-.48.192-.88.352-1.4.523-3.298 1.083-4.573-1.317-8.21-1.317-.327 0-.694.367-.694.695m.001 3.205c0 1.053.72.868 1.535.976 1.726.228 3.505 1.536 5.41 1.536 1.718 0 2.129-.168 3.656-.78.876-.35 2.034-.824 3.023-.824.323 0 .668.083.961.107l.962-1.442c-.527-.253-1.542-.267-2.19-.267-1.111 0-2.255.475-3.054.793-2.7 1.08-3.374 1.08-6.076 0-1.283-.513-1.964-.793-3.533-.793-.328 0-.695.366-.695.694"/><path fill="#868686" d="M11.376 17.199c.075.324 1.76 2.58 2.03 2.991.154.235.54.822.748.962l2.885-4.274c-.161-.306-.396-.622-.588-.909-.618.144-1.95.94-3.635 1.174-.296.04-1.218.162-1.44.056M7.155 7.903c.801.186 1.506.473 2.228.763.379.151.71.283 1.09.406.475.153.713.167 1.33.167-.068-.257-2.63-3.963-2.98-4.5-.172-.265-.397-.39-.621-.416h-.186a.85.85 0 0 0-.665.464c-.166.37-.179 1.603-.235 2.009-.057.411.039.689.039 1.107"/><path fill="#ff0b01" d="M28.419 14.58c.189-.015.63-.206.847-.274a6.4 6.4 0 0 1 .924-.199c.264-.027.842-.041 1.01-.11a.75.75 0 0 0 .478-.652v-.163c-.034-.38-.298-.74-.695-.74-.431 0-1.45-.062-1.642.282-.067.12-.11.286-.174.415-.244.495-.495.961-.748 1.442m1.549-3.633c.757-.177 1.71.157 1.71-1.015 0-.328-.367-.695-.695-.695h-.694c-.006.248-.105.66-.147.869-.056.28-.168.578-.174.84"/></g><defs><clipPath id="clip0_159_496"><path fill="#fff" d="M0 0h36v36H0z"/></clipPath></defs></svg>