<svg xmlns="http://www.w3.org/2000/svg" width="36" height="36" fill="none" viewBox="0 0 36 36"><g fill-rule="evenodd" clip-path="url(#clip0_159_535)" clip-rule="evenodd"><path fill="#868686" d="M27.26 4.634c0 .642-.003 1.048.57 1.6 1.152 1.113 3.181.31 3.181-1.424 0-.945-.76-1.817-1.993-1.817-.852 0-1.758.808-1.758 1.641"/><path fill="#ff0b01" d="M17.294 5.924c0 .978.58 1.58.644 1.817-.905.02-1.758.881-1.758 2.111a2.031 2.031 0 0 0 3.83.84c.074-.113.019-.046.097-.136.33 1.416 2.422 2.435 3.81 1.7.04.475.353.982.628 1.247.16.154.342.28.568.371 1.632.658 2.85-.65 2.85-1.735 0-.715-.072-1.04-.63-1.599-.486-.487-.953-.57-1.657-.57l.016-.548c-.055-1.044-.637-1.923-1.579-2.405-.446-.228-.627-.212-1.135-.33.167-.715.177-1.305-.136-1.975l-.552-.856c-.48-.52-1.204-.82-1.938-.863h-.368c-.388.023-.767.12-1.106.296-.225.117-.639.403-.8.606-.427.54-.785 1.087-.785 2.028m-5.743.47c-.257-.172-.493-.363-.813-.477-2.472-.882-4.535 1.221-4.009 3.48.062.267.17.397.19.632-1.284.299-3.1 3.564-.895 5.76 2.532 2.522 6.405.608 6.405-2.595 0-.402-.1-.73-.176-1.054.54.36.823.879 2.169.879.718 0 1.002-.272 1.348-.352-.14-.21-.318-.324-.495-.56-.906-1.207-1.142-2.624-.443-4.012.113-.225.203-.434.369-.628.17-.2.323-.42.51-.544-.157-.674.018-.678-.69-1.127-1.147-.728-2.828-.361-3.472.6z"/><path fill="#868686" d="M13.952 14.718c-.106.223-.187.525-.293.761-.29.645-.867 1.46-1.405 1.877-1.332 1.028-2.128 1.29-3.87 1.29-.514 0-.81-.141-1.23-.176-.495 2.124-.761 4.816.353 6.74.497.859 1.069 1.397 1.874 1.936 0-.41-.059-.572-.059-.997 0-1.254-.177-2.318.688-3.181.424-.424.814-.708 1.543-.803 1.774-.232 3.332-1.314 4.018-2.958.599-1.436.188-2.345 1.422-3.269 1.239-.929 3.995-.436 5.152.026.882.352 1.794.905 2.405 1.522.358.361.603.597.92 1.014 1.812 2.389 1.498 4.679 1.498 7.647 0 .425-.059.587-.059.997 1.623-1.086 2.638-2.716 2.638-4.865 0-1.588-.059-2.794-.52-4.17-.206-.62-.582-1.523-.91-2.078-.108-.18-.343-.504-.387-.67-.25.058-.478.187-.781.274-1.405.409-3.056-.133-3.842-1.162-.24-.315-.217-.268-.71-.285a4 4 0 0 1-.845-.153 4.6 4.6 0 0 1-1.384-.668c-.631-.462-.22-.056-1.421.104-.925.124-.543-.268-1.616.377-1.23.74-1.696.869-3.177.869z"/><path fill="#868686" d="M11.021 24.8c0 1.576-.007 2.416.56 3.837.97 2.425 3.576 4.37 6.24 4.37 1.444 0 2.203-.12 3.458-.703 1.456-.677 2.847-2.216 3.442-3.71.687-1.723.544-3.415.544-5.318 0-.98-.184-1.785-.46-2.47-.27-.673-.945-1.706-1.5-2.136-.181-.141-.236-.216-.419-.342-1.576-1.09-2.4-1.148-4.362-1.148-1.071 0-.715 1.057-1.272 2.48-.36.92-.778 1.523-1.43 2.204l-.09.086c-1.132 1.048-2.1 1.63-3.74 1.887-.583.091-.971.301-.971.963m4.749 1.349c.854 0 .704.322 1.126.748.165.167.238.267.455.367.677.312 1.429.203 1.91-.32.41-.447.319-.795 1.081-.795.924 0 1.277 1.15-.165 2.296-1.01.803-2.5.926-3.646.344-.575-.292-1.467-1.138-1.51-1.772-.025-.394.337-.867.75-.867z"/></g><defs><clipPath id="clip0_159_535"><path fill="#fff" d="M0 0h36v36H0z"/></clipPath></defs></svg>