<svg xmlns="http://www.w3.org/2000/svg" width="36" height="36" fill="none" viewBox="0 0 36 36"><g clip-path="url(#clip0_159_515)"><path fill="#ff0b01" d="M19.887 16.129a6.8 6.8 0 0 1-5.024 2.233c-1.117 0-2.233-.28-3.21-.884-2.65-1.536-3.814-4.885-2.836-7.908.093-.326.418-.559.79-.559.14 0 .28.047.42.093L19.7 14.78a.82.82 0 0 1 .419.604c0 .279-.093.558-.232.744zM3.7 30.921c-.047-1.21 2.092-6.42 5.953-13.768.419.419.93.837 1.488 1.163a8 8 0 0 0 1.721.744c-4.465 6.838-8.047 11.303-9.164 11.862zM23.143 9.85l-3.164 4.046-.93-.558 2.464-4.558c.28-.466.884-.651 1.349-.372.512.325.65.976.279 1.442zm-2.931-1.769-2.977 4.187-.884-.512 2.233-4.652a.912.912 0 0 1 1.303-.419c.512.28.65.93.325 1.395zm-2.93-1.767-2.791 4.372-.885-.512L15.56 5.43c.232-.559.884-.744 1.396-.465a.98.98 0 0 1 .325 1.348zM14.49 4.081c0 .14-.046.326-.14.466l-2.604 4.512-.931-.512 1.767-4.791c.186-.559.884-.79 1.395-.512a.98.98 0 0 1 .512.837z"/><path fill="#868686" d="M29.423 31.944c-.28.28-.651.466-1.023.466l-10.047-.094a1.33 1.33 0 0 1-1.024-.465c-1.953-2.233-3.023-4.79-2.93-6.698.047-.698.651-1.303 1.349-1.303l15.164-.14c.698 0 1.303.512 1.349 1.163.278 2-.838 4.744-2.837 7.07zm-9.537-11.675c1.396-.279 3.024-.604 3.675-2.605 2.186.837 2.465 1.675 2.791 2.558.14.466.326.977.744 1.442.233.279.745.698 1.21 1.116l-11.908.14.651-1.21a7.5 7.5 0 0 0 1.954.233c1.349 0 3.35-.279 6.047-1.256.233-.094.372-.372.28-.605-.094-.232-.373-.372-.605-.279-3.49 1.257-5.675 1.257-6.745 1.117.558-.372 1.21-.512 1.907-.651"/></g><defs><clipPath id="clip0_159_515"><path fill="#fff" d="M0 0h36v36H0z"/></clipPath></defs></svg>