<svg width="48" height="48" viewBox="0 0 48 48" fill="none" xmlns="http://www.w3.org/2000/svg">
<g clip-path="url(#clip0_656_2476)">
<path fill-rule="evenodd" clip-rule="evenodd" d="M8.36768 9.80656V34.9734C8.36768 36.0195 9.26087 36.9855 10.0204 37.3114C10.4696 37.5037 11.0413 37.6566 11.5135 37.814C12.478 38.1355 18.5076 40.2516 19.1172 40.2516C20.141 40.2516 20.7432 40.0964 21.4508 39.302C22.2415 38.414 22.1427 37.353 22.1427 36.1316H26.455C27.8382 36.1316 29.1621 35.1315 29.7352 34.1982C29.8384 34.0304 29.9936 33.7156 30.0798 33.5129C30.2713 33.0615 30.3812 32.3146 30.3812 31.6901V26.6696C30.3812 24.7614 27.8315 24.5505 27.5635 26.4268C27.5004 26.8663 27.545 31.0791 27.5509 31.8847C27.5568 32.7897 27.0089 33.3637 26.262 33.3637H22.1427V13.0244C22.1427 11.8216 21.5443 10.7228 20.4692 10.2565L20.0185 10.0635L25.8759 10.0627C26.4142 10.0597 26.5552 10.0583 26.9049 10.2565C27.6571 10.6827 27.5487 11.2952 27.5487 11.9946C27.5487 12.7668 27.5487 13.5397 27.5487 14.3119C27.5487 15.1858 27.4677 15.8584 27.8583 16.3834C28.5332 17.2899 30.3805 17.1318 30.3805 15.2771C30.3805 13.934 30.5289 11.0524 30.0976 9.96025C30.0159 9.75236 29.8689 9.46205 29.7583 9.26975C29.6142 9.0188 29.4442 8.86288 29.2779 8.65573C28.7634 8.01498 27.5969 7.29626 26.4535 7.29626H10.8772C10.2313 7.29626 9.48732 7.74769 9.15321 8.0818C8.8191 8.41591 8.36768 9.16061 8.36768 9.80582V9.80656Z" fill="#EAEAEA"/>
<path fill-rule="evenodd" clip-rule="evenodd" d="M33.0848 15.4063V19.6547H27.4851C25.761 19.6547 25.8316 22.4227 27.5497 22.4227H33.0848V26.6065C33.0848 27.3371 33.6877 27.8939 34.5653 27.8939C35.2402 27.8939 35.9047 27.0371 36.4801 26.4617L40.6958 22.246C41.1554 21.7893 41.3232 21.6349 41.3232 20.9422C41.3232 20.32 40.8941 20.0304 40.5667 19.703L37.4772 16.6136C36.786 15.9223 36.1423 15.2749 35.451 14.5844C34.4383 13.5724 33.084 14.4775 33.084 15.4063H33.0848Z" fill="#EAEAEA"/>
</g>
<defs>
<clipPath id="clip0_656_2476">
<rect width="48" height="48" fill="white"/>
</clipPath>
</defs>
</svg>
