<svg xmlns="http://www.w3.org/2000/svg" width="36" height="36" fill="none" viewBox="0 0 36 36"><g fill-rule="evenodd" clip-path="url(#clip0_159_554)" clip-rule="evenodd"><path fill="#868686" d="M13.92 10.434v1.799c0 .994-.845 1.8-1.89 1.8h-1.889c-1.043 0-1.889-.806-1.889-1.8v-1.8c0-.993.846-1.799 1.89-1.799h1.889c1.043 0 1.89.806 1.89 1.8m6.913 0v1.799c0 .994-.846 1.8-1.89 1.8h-1.889c-1.043 0-1.889-.806-1.889-1.8v-1.8c0-.993.846-1.799 1.89-1.799h1.889c1.043 0 1.89.806 1.89 1.8m-6.915 6.644v1.799c0 .994-.845 1.8-1.89 1.8h-1.889c-1.043 0-1.889-.806-1.889-1.8v-1.8c0-.993.846-1.799 1.89-1.799h1.889c1.043 0 1.89.806 1.89 1.8"/><path fill="#ff0b01" d="M20.834 17.078v1.799c0 .994-.846 1.8-1.89 1.8h-1.889c-1.043 0-1.889-.806-1.889-1.8v-1.8c0-.993.846-1.799 1.89-1.799h1.889c1.043 0 1.89.806 1.89 1.8"/><path fill="#868686" d="M27.748 10.478v1.8c0 .994-.845 1.8-1.89 1.8H23.97c-1.043 0-1.889-.806-1.889-1.8v-1.8c0-.994.846-1.8 1.89-1.8h1.889c1.044 0 1.89.806 1.89 1.8m-.002 6.644v1.8c0 .994-.845 1.8-1.89 1.8H23.97c-1.043 0-1.889-.806-1.889-1.8v-1.8c0-.994.846-1.8 1.89-1.8h1.889c1.044 0 1.89.806 1.89 1.8m-13.83 6.6v1.8c0 .994-.845 1.8-1.89 1.8h-1.889c-1.043 0-1.889-.806-1.889-1.8v-1.8c0-.994.846-1.8 1.89-1.8h1.889c1.043 0 1.89.806 1.89 1.8m6.913 0v1.8c0 .994-.846 1.8-1.89 1.8h-1.889c-1.043 0-1.889-.806-1.889-1.8v-1.8c0-.994.846-1.8 1.89-1.8h1.889c1.043 0 1.89.806 1.89 1.8m6.913.045v1.8c0 .993-.845 1.799-1.89 1.799H23.97c-1.043 0-1.889-.806-1.889-1.8v-1.799c0-.994.846-1.8 1.89-1.8h1.889c1.044 0 1.89.806 1.89 1.8"/></g><defs><clipPath id="clip0_159_554"><path fill="#fff" d="M0 0h36v36H0z"/></clipPath></defs></svg>