<svg width="43" height="43" viewBox="0 0 43 43" fill="none" xmlns="http://www.w3.org/2000/svg">
<path fill-rule="evenodd" clip-rule="evenodd" d="M17.7379 36.55C18.023 36.55 18.2964 36.4367 18.498 36.2351C18.6996 36.0335 18.8129 35.7601 18.8129 35.475V20.425C18.8129 20.1399 18.6996 19.8664 18.498 19.6648C18.2964 19.4632 18.023 19.35 17.7379 19.35H15.5879C15.3028 19.35 15.0294 19.4632 14.8278 19.6648C14.6262 19.8664 14.5129 20.1399 14.5129 20.425V35.475C14.5129 35.7601 14.6262 36.0335 14.8278 36.2351C15.0294 36.4367 15.3028 36.55 15.5879 36.55H17.7379ZM8.06289 36.55C8.348 36.55 8.62143 36.4367 8.82303 36.2351C9.02463 36.0335 9.13789 35.7601 9.13789 35.475V30.1C9.13789 29.8149 9.02463 29.5414 8.82303 29.3398C8.62143 29.1382 8.348 29.025 8.06289 29.025H5.91289C5.62778 29.025 5.35435 29.1382 5.15275 29.3398C4.95115 29.5414 4.83789 29.8149 4.83789 30.1V35.475C4.83789 35.7601 4.95115 36.0335 5.15275 36.2351C5.35435 36.4367 5.62778 36.55 5.91289 36.55H8.06289ZM27.4129 26.875C27.698 26.875 27.9714 26.9882 28.173 27.1898C28.3746 27.3914 28.4879 27.6649 28.4879 27.95V35.475C28.4879 35.7601 28.3746 36.0335 28.173 36.2351C27.9714 36.4367 27.698 36.55 27.4129 36.55H25.2629C24.9778 36.55 24.7044 36.4367 24.5028 36.2351C24.3011 36.0335 24.1879 35.7601 24.1879 35.475V27.95C24.1879 27.6649 24.3011 27.3914 24.5028 27.1898C24.7044 26.9882 24.9778 26.875 25.2629 26.875H27.4129ZM37.0879 36.55C37.373 36.55 37.6464 36.4367 37.848 36.2351C38.0496 36.0335 38.1629 35.7601 38.1629 35.475V20.425C38.1629 20.1399 38.0496 19.8664 37.848 19.6648C37.6464 19.4632 37.373 19.35 37.0879 19.35H34.9379C34.6528 19.35 34.3794 19.4632 34.1778 19.6648C33.9762 19.8664 33.8629 20.1399 33.8629 20.425V35.475C33.8629 35.7601 33.9762 36.0335 34.1778 36.2351C34.3794 36.4367 34.6528 36.55 34.9379 36.55H37.0879Z" fill="#EAEAEA"/>
<path d="M17.7377 20.425V35.475H19.8877V20.425H17.7377ZM15.5877 20.425H17.7377V18.275H15.5877V20.425ZM15.5877 35.475V20.425H13.4377V35.475H15.5877ZM17.7377 35.475H15.5877V37.625H17.7377V35.475ZM8.0627 30.1V35.475H10.2127V30.1H8.0627ZM5.9127 30.1H8.0627V27.95H5.9127V30.1ZM5.9127 35.475V30.1H3.7627V35.475H5.9127ZM8.0627 35.475H5.9127V37.625H8.0627V35.475ZM29.5627 35.475V27.95H27.4127V35.475H29.5627ZM25.2627 37.625H27.4127V35.475H25.2627V37.625ZM23.1127 27.95V35.475H25.2627V27.95H23.1127ZM27.4127 25.8H25.2627V27.95H27.4127V25.8ZM37.0877 20.425V35.475H39.2377V20.425H37.0877ZM34.9377 20.425H37.0877V18.275H34.9377V20.425ZM34.9377 35.475V20.425H32.7877V35.475H34.9377ZM37.0877 35.475H34.9377V37.625H37.0877V35.475ZM32.7877 35.475C32.7877 36.0452 33.0142 36.5921 33.4174 36.9953C33.8206 37.3985 34.3675 37.625 34.9377 37.625V35.475H32.7877ZM34.9377 18.275C34.3675 18.275 33.8206 18.5015 33.4174 18.9047C33.0142 19.3079 32.7877 19.8548 32.7877 20.425H34.9377V18.275ZM37.0877 35.475V37.625C37.6579 37.625 38.2048 37.3985 38.608 36.9953C39.0112 36.5921 39.2377 36.0452 39.2377 35.475H37.0877ZM39.2377 20.425C39.2377 19.8548 39.0112 19.3079 38.608 18.9047C38.2048 18.5015 37.6579 18.275 37.0877 18.275V20.425H39.2377ZM25.2627 27.95V25.8C24.6925 25.8 24.1456 26.0265 23.7424 26.4297C23.3392 26.8329 23.1127 27.3798 23.1127 27.95H25.2627ZM25.2627 35.475H23.1127C23.1127 36.0452 23.3392 36.5921 23.7424 36.9953C24.1456 37.3985 24.6925 37.625 25.2627 37.625V35.475ZM29.5627 27.95C29.5627 27.3798 29.3362 26.8329 28.933 26.4297C28.5298 26.0265 27.9829 25.8 27.4127 25.8V27.95H29.5627ZM27.4127 35.475V37.625C27.9829 37.625 28.5298 37.3985 28.933 36.9953C29.3362 36.5921 29.5627 36.0452 29.5627 35.475H27.4127ZM3.7627 35.475C3.7627 36.0452 3.98921 36.5921 4.39242 36.9953C4.79562 37.3985 5.34248 37.625 5.9127 37.625V35.475H3.7627ZM5.9127 27.95C5.34248 27.95 4.79562 28.1765 4.39242 28.5797C3.98921 28.9829 3.7627 29.5298 3.7627 30.1H5.9127V27.95ZM8.0627 35.475V37.625C8.63291 37.625 9.17977 37.3985 9.58297 36.9953C9.98618 36.5921 10.2127 36.0452 10.2127 35.475H8.0627ZM10.2127 30.1C10.2127 29.5298 9.98618 28.9829 9.58297 28.5797C9.17977 28.1765 8.63291 27.95 8.0627 27.95V30.1H10.2127ZM13.4377 35.475C13.4377 36.0452 13.6642 36.5921 14.0674 36.9953C14.4706 37.3985 15.0175 37.625 15.5877 37.625V35.475H13.4377ZM15.5877 18.275C15.0175 18.275 14.4706 18.5015 14.0674 18.9047C13.6642 19.3079 13.4377 19.8548 13.4377 20.425H15.5877V18.275ZM17.7377 35.475V37.625C18.3079 37.625 18.8548 37.3985 19.258 36.9953C19.6612 36.5921 19.8877 36.0452 19.8877 35.475H17.7377ZM19.8877 20.425C19.8877 19.8548 19.6612 19.3079 19.258 18.9047C18.8548 18.5015 18.3079 18.275 17.7377 18.275V20.425H19.8877Z" fill="#EAEAEA"/>
<path d="M8.06289 15.6795C7.86125 15.8812 7.748 16.1547 7.74805 16.44C7.7481 16.7252 7.86145 16.9987 8.06316 17.2003C8.26487 17.402 8.53843 17.5152 8.82364 17.5152C9.10886 17.5151 9.38237 17.4018 9.58402 17.2001L8.06289 15.6795ZM15.5879 11.1951C15.6906 11.0959 15.7725 10.9773 15.8288 10.8462C15.8851 10.715 15.9148 10.574 15.916 10.4312C15.9173 10.2885 15.8901 10.1469 15.836 10.0148C15.782 9.88269 15.7022 9.76267 15.6012 9.66173C15.5003 9.5608 15.3803 9.48098 15.2481 9.42692C15.116 9.37287 14.9745 9.34567 14.8317 9.34691C14.689 9.34815 14.5479 9.37781 14.4168 9.43415C14.2856 9.49049 14.167 9.57238 14.0678 9.67506L15.5879 11.1951ZM19.3332 9.4262C19.2253 9.33181 19.0996 9.25996 18.9636 9.21486C18.8275 9.16977 18.6838 9.15234 18.5409 9.1636C18.398 9.17487 18.2588 9.2146 18.1315 9.28045C18.0042 9.34631 17.8913 9.43696 17.7995 9.54708C17.7078 9.6572 17.639 9.78456 17.5971 9.92167C17.5553 10.0588 17.5413 10.2029 17.556 10.3454C17.5707 10.488 17.6138 10.6262 17.6827 10.7519C17.7516 10.8776 17.8449 10.9883 17.9572 11.0774L19.3332 9.4262ZM23.6676 15.8364C23.8872 16.0142 24.1679 16.0985 24.4491 16.0709C24.7302 16.0433 24.9893 15.9062 25.1701 15.6891C25.3509 15.472 25.439 15.1925 25.4154 14.9109C25.3917 14.6294 25.2581 14.3685 25.0436 14.1847L23.6676 15.8364ZM27.6322 14.1847C27.4176 14.3685 27.2841 14.6294 27.2604 14.9109C27.2367 15.1925 27.3249 15.472 27.5057 15.6891C27.6865 15.9062 27.9455 16.0433 28.2267 16.0709C28.5079 16.0985 28.7886 16.0142 29.0082 15.8364L27.6322 14.1847ZM34.7191 11.0779C34.8276 10.9875 34.9172 10.8767 34.9828 10.7517C35.0484 10.6267 35.0887 10.49 35.1015 10.3494C35.1143 10.2088 35.0993 10.067 35.0573 9.93223C35.0153 9.79745 34.9471 9.67225 34.8567 9.5638C34.7663 9.45534 34.6555 9.36575 34.5305 9.30014C34.4055 9.23453 34.2688 9.19418 34.1282 9.18141C33.9876 9.16863 33.8458 9.18367 33.711 9.22567C33.5762 9.26767 33.451 9.33581 33.3426 9.4262L34.7191 11.0779ZM9.58402 17.2001L15.5879 11.1951L14.0678 9.67506L8.06289 15.6795L9.58402 17.2001ZM17.9572 11.0779L23.6676 15.8364L25.0436 14.1847L19.3332 9.4262L17.9572 11.0779ZM29.0082 15.8364L34.7191 11.0779L33.3426 9.4262L27.6322 14.1847L29.0082 15.8364Z" fill="#EAEAEA"/>
<path fill-rule="evenodd" clip-rule="evenodd" d="M18.8129 7.52495C18.8129 7.23984 18.6996 6.96641 18.498 6.76481C18.2964 6.56321 18.023 6.44995 17.7379 6.44995H15.5879C15.3028 6.44995 15.0294 6.56321 14.8278 6.76481C14.6262 6.96641 14.5129 7.23984 14.5129 7.52495V9.67495C14.5129 9.96006 14.6262 10.2335 14.8278 10.4351C15.0294 10.6367 15.3028 10.75 15.5879 10.75H17.7379C18.023 10.75 18.2964 10.6367 18.498 10.4351C18.6996 10.2335 18.8129 9.96006 18.8129 9.67495V7.52495ZM9.13789 17.2C9.13789 16.9148 9.02463 16.6414 8.82303 16.4398C8.62143 16.2382 8.348 16.125 8.06289 16.125H5.91289C5.62778 16.125 5.35435 16.2382 5.15275 16.4398C4.95115 16.6414 4.83789 16.9148 4.83789 17.2V19.35C4.83789 19.6351 4.95115 19.9085 5.15275 20.1101C5.35435 20.3117 5.62778 20.425 5.91289 20.425H8.06289C8.348 20.425 8.62143 20.3117 8.82303 20.1101C9.02463 19.9085 9.13789 19.6351 9.13789 19.35V17.2ZM24.1879 15.5875C24.1879 15.3023 24.3011 15.0289 24.5028 14.8273C24.7044 14.6257 24.9778 14.5125 25.2629 14.5125H27.4129C27.698 14.5125 27.9714 14.6257 28.173 14.8273C28.3746 15.0289 28.4879 15.3023 28.4879 15.5875V17.7375C28.4879 18.0226 28.3746 18.296 28.173 18.4976C27.9714 18.6992 27.698 18.8125 27.4129 18.8125H25.2629C24.9778 18.8125 24.7044 18.6992 24.5028 18.4976C24.3011 18.296 24.1879 18.0226 24.1879 17.7375V15.5875ZM38.1629 7.52495C38.1629 7.23984 38.0496 6.96641 37.848 6.76481C37.6464 6.56321 37.373 6.44995 37.0879 6.44995H34.9379C34.6528 6.44995 34.3794 6.56321 34.1778 6.76481C33.9762 6.96641 33.8629 7.23984 33.8629 7.52495V9.67495C33.8629 9.96006 33.9762 10.2335 34.1778 10.4351C34.3794 10.6367 34.6528 10.75 34.9379 10.75H37.0879C37.373 10.75 37.6464 10.6367 37.848 10.4351C38.0496 10.2335 38.1629 9.96006 38.1629 9.67495V7.52495Z" fill="#EAEAEA"/>
<path d="M15.5877 7.525H17.7377V5.375H15.5877V7.525ZM15.5877 9.675V7.525H13.4377V9.675H15.5877ZM17.7377 9.675H15.5877V11.825H17.7377V9.675ZM17.7377 7.525V9.675H19.8877V7.525H17.7377ZM5.9127 17.2H8.0627V15.05H5.9127V17.2ZM5.9127 19.35V17.2H3.7627V19.35H5.9127ZM8.0627 19.35H5.9127V21.5H8.0627V19.35ZM8.0627 17.2V19.35H10.2127V17.2H8.0627ZM27.4127 13.4375H25.2627V15.5875H27.4127V13.4375ZM29.5627 17.7375V15.5875H27.4127V17.7375H29.5627ZM25.2627 19.8875H27.4127V17.7375H25.2627V19.8875ZM23.1127 15.5875V17.7375H25.2627V15.5875H23.1127ZM34.9377 7.525H37.0877V5.375H34.9377V7.525ZM34.9377 9.675V7.525H32.7877V9.675H34.9377ZM37.0877 9.675H34.9377V11.825H37.0877V9.675ZM37.0877 7.525V9.675H39.2377V7.525H37.0877ZM37.0877 11.825C37.6579 11.825 38.2048 11.5985 38.608 11.1953C39.0112 10.7921 39.2377 10.2452 39.2377 9.675H37.0877V11.825ZM32.7877 9.675C32.7877 10.2452 33.0142 10.7921 33.4174 11.1953C33.8206 11.5985 34.3675 11.825 34.9377 11.825V9.675H32.7877ZM37.0877 7.525H39.2377C39.2377 6.95478 39.0112 6.40792 38.608 6.00472C38.2048 5.60152 37.6579 5.375 37.0877 5.375V7.525ZM34.9377 5.375C34.3675 5.375 33.8206 5.60152 33.4174 6.00472C33.0142 6.40792 32.7877 6.95478 32.7877 7.525H34.9377V5.375ZM25.2627 17.7375H23.1127C23.1127 18.3077 23.3392 18.8546 23.7424 19.2578C24.1456 19.661 24.6925 19.8875 25.2627 19.8875V17.7375ZM27.4127 17.7375V19.8875C27.9829 19.8875 28.5298 19.661 28.933 19.2578C29.3362 18.8546 29.5627 18.3077 29.5627 17.7375H27.4127ZM25.2627 13.4375C24.6925 13.4375 24.1456 13.664 23.7424 14.0672C23.3392 14.4704 23.1127 15.0173 23.1127 15.5875H25.2627V13.4375ZM27.4127 15.5875H29.5627C29.5627 15.0173 29.3362 14.4704 28.933 14.0672C28.5298 13.664 27.9829 13.4375 27.4127 13.4375V15.5875ZM8.0627 21.5C8.63291 21.5 9.17977 21.2735 9.58297 20.8703C9.98618 20.4671 10.2127 19.9202 10.2127 19.35H8.0627V21.5ZM3.7627 19.35C3.7627 19.9202 3.98921 20.4671 4.39242 20.8703C4.79562 21.2735 5.34248 21.5 5.9127 21.5V19.35H3.7627ZM8.0627 17.2H10.2127C10.2127 16.6298 9.98618 16.0829 9.58297 15.6797C9.17977 15.2765 8.63291 15.05 8.0627 15.05V17.2ZM5.9127 15.05C5.34248 15.05 4.79562 15.2765 4.39242 15.6797C3.98921 16.0829 3.7627 16.6298 3.7627 17.2H5.9127V15.05ZM17.7377 11.825C18.3079 11.825 18.8548 11.5985 19.258 11.1953C19.6612 10.7921 19.8877 10.2452 19.8877 9.675H17.7377V11.825ZM13.4377 9.675C13.4377 10.2452 13.6642 10.7921 14.0674 11.1953C14.4706 11.5985 15.0175 11.825 15.5877 11.825V9.675H13.4377ZM17.7377 7.525H19.8877C19.8877 6.95478 19.6612 6.40792 19.258 6.00472C18.8548 5.60152 18.3079 5.375 17.7377 5.375V7.525ZM15.5877 5.375C15.0175 5.375 14.4706 5.60152 14.0674 6.00472C13.6642 6.40792 13.4377 6.95478 13.4377 7.525H15.5877V5.375Z" fill="#EAEAEA"/>
</svg>
