<svg width="46" height="46" viewBox="0 0 46 46" fill="none" xmlns="http://www.w3.org/2000/svg">
<path d="M1.6875 1.75195V8.90855C5.70208 9.41005 9.01129 11.1516 12.1684 13.1452L9.94477 14.9478L19.0893 19.6111L16.5791 9.56836L14.2517 11.4551C12.4346 7.86043 10.4084 4.47152 7.71557 1.75195H1.6875ZM26.608 1.75195C25.2043 4.33631 23.9839 6.97421 22.8543 9.67222L20.1419 9.09668L22.4725 19.1816L28.4974 10.8711L25.8388 10.3069C28.8297 7.18507 31.9119 4.2161 35.5475 1.75195H26.608ZM44.3521 10.1832C40.9392 10.4062 37.8798 11.9511 34.9159 13.8584L33.7955 10.9358L26.6024 18.3787L36.8531 18.9121L35.6626 15.8068C38.5592 15.7229 41.4556 15.971 44.3521 17.7272V10.1832ZM26.9198 21.6859C26.4454 21.6967 26.0025 21.903 25.398 22.548L24.8083 23.174L24.1962 22.5703C23.5326 21.9162 23.0089 21.7356 22.478 21.759C21.9472 21.7823 21.323 22.0615 20.6249 22.6265L20.0663 23.0784L19.5357 22.5956C18.7361 21.8722 18.0546 21.6578 17.4019 21.6915C16.9268 21.7161 16.4338 21.8951 15.9419 22.2081L19.6226 28.8285C21.0111 29.6777 23.8483 29.9971 25.7994 29.0139L29.3567 22.4244C28.682 22.1493 28.0755 21.8672 27.5514 21.759C27.3616 21.7197 27.1855 21.6911 27.015 21.6859C26.9833 21.6851 26.9515 21.6851 26.9198 21.6859ZM18.8365 30.328C17.2162 31.4728 15.9152 33.4472 15.4112 36.339C14.9229 39.1418 15.6923 41.0347 17.0537 42.3248C18.4153 43.6149 20.459 44.2777 22.5342 44.2507C24.6096 44.2238 26.6792 43.5041 28.0708 42.1901C29.4625 40.8759 30.2495 39.0073 29.8032 36.3333C29.3417 33.57 28.1501 31.6482 26.6416 30.4851C24.0827 31.8377 20.8832 31.5502 18.8365 30.3278V30.328Z" fill="#EAEAEA"/>
</svg>
