<svg xmlns="http://www.w3.org/2000/svg" width="36" height="36" fill="none" viewBox="0 0 36 36"><path fill="#868686" fill-rule="evenodd" d="M26.165 6.854a.44.44 0 0 1 .578.228.455.455 0 0 1-.245.592c-.533.201-.885-.583-.332-.82M17.08 24.596a54 54 0 0 1-1.988 2.838c-.46.611-.967 1.108-.874 2.058.134 1.37 1.713 2.603 3.402 1.3.49-.376 1.913-2.883 2.298-3.515 1.433-2.346 2.873-5.353 4.015-7.97a61 61 0 0 0 1.667-4.266l1.303-4.299c.287-1.09.624-2.74.825-3.897.406-2.333-1.886-3.264-2.517-.458a39.5 39.5 0 0 1-1.574 5.346c-1.842 4.563-3.85 8.761-6.557 12.863" clip-rule="evenodd"/><path fill="#ff0b01" fill-rule="evenodd" d="m24.26 8.36.459-1.907c-3.39.25-9.4 2.075-13.21 2.963-2.18.508-4.358.99-6.534 1.493-.367.085-.7.156-.995.312-.659.348.002 2.94.276 3.526.159.34.937.006 1.325-.054 1.17-.522 12.979-2.745 13.37-3.173.428-.468.376-1.62.776-2.191.198-.283.675-.316 1.107-.4l3.425-.567zm-6.935.187c.522-.115 1.146-.38 1.245.26.057.376.1 1.394.084 1.784-.123-.204-.198-.768-.265-1.053-.1-.43-.058-.758-.596-.646-.665.139-1.463.318-2.074.48-3.51.822-7.032 1.606-10.546 2.41-.255.059-.54.08-.622.324-.073.22.062 1.38.04 1.739a15 15 0 0 1-.402-1.695c-.099-.599.323-.675.807-.784 4.11-.925 8.218-1.914 12.329-2.82M31.443 6.61c.392-.227.879-.574.86-1.207-.548-1.35-1.023-.102-1.6.344-1 .775-2.087.568-2.435.768l-.23 1.168c1.027-.116 2.612-.633 3.405-1.072" clip-rule="evenodd"/></svg>