<svg width="48" height="48" viewBox="0 0 48 48" fill="none" xmlns="http://www.w3.org/2000/svg">
<g clip-path="url(#clip0_656_2469)">
<path fill-rule="evenodd" clip-rule="evenodd" d="M7.40625 34.0933C7.40625 35.0418 7.61902 36.0377 7.91131 36.6907C8.26574 37.4828 8.64651 37.9626 9.22793 38.5488C9.77196 39.097 10.3913 39.4894 11.1571 39.7948C12.0729 40.1603 12.7086 40.154 13.9725 40.154C18.2057 40.154 22.4384 40.154 26.6717 40.154C26.58 40.0171 26.0844 39.61 25.9085 39.4741C25.5857 39.2255 25.4793 39.0106 25.2107 38.7289C24.8305 38.3302 24.2854 37.5497 24.0252 37.0278C22.6386 34.2439 22.4205 31.43 23.7103 28.5334C25.0796 25.4589 27.845 23.4328 31.1845 22.9478C33.5634 22.6023 36.3868 23.2812 38.2669 24.8063C38.9948 25.3967 39.3129 25.6553 39.8869 26.3615C40.0065 26.5085 40.1386 26.6654 40.2371 26.805C40.3667 26.9888 40.4046 27.1083 40.5979 27.2379V21.6823H7.40678V34.0928L7.40625 34.0933Z" fill="#EAEAEA"/>
<path fill-rule="evenodd" clip-rule="evenodd" d="M15.9207 8.55075V10.1381C14.0469 10.1381 12.1367 9.91425 10.6042 10.7379C9.87369 11.1308 9.53137 11.4415 8.9747 11.9945C7.07244 13.8857 7.40633 16.6501 7.40633 19.3734H40.5974C40.5974 15.8891 41.0604 12.7919 37.4465 10.7632C36.1699 10.047 35.0113 10.1376 33.5988 10.1376V13.9616C33.5988 15.4504 32.3701 16.6312 31.1456 16.6312C30.569 16.6312 30.688 16.6712 30.2077 16.559V14.8995C31.2346 15.5873 32.0836 14.7789 32.0836 14.0337V8.5497C32.0836 7.0677 29.7748 7.03769 29.7748 8.5497V10.137H19.7452V13.961C19.7452 15.4499 18.5166 16.6306 17.2921 16.6306C16.7154 16.6306 16.8344 16.6707 16.3541 16.5585V14.899C17.3811 15.5868 18.2301 14.7784 18.2301 14.0332V8.54917C18.2301 7.06718 15.9212 7.03716 15.9212 8.54917L15.9207 8.55075Z" fill="#EAEAEA"/>
<path fill-rule="evenodd" clip-rule="evenodd" d="M28.259 32.0731C28.259 31.132 29.3781 30.6069 30.0459 31.152C30.5615 31.5733 31.1334 32.3759 31.6506 32.7225C31.9876 32.6324 34.0031 30.4784 34.4102 30.0708C34.7299 29.7511 34.9416 29.4035 35.5467 29.4035C36.2214 29.4035 36.7264 29.976 36.6838 30.6164C36.6443 31.2142 36.0365 31.6197 35.6731 31.9831C34.85 32.8062 34.0795 33.5767 33.2558 34.4004C32.924 34.7317 32.449 35.3721 31.9571 35.489C31.086 35.6959 30.117 34.4004 29.2512 33.5346C28.8762 33.1596 28.259 32.762 28.259 32.0736V32.0731ZM24.3628 32.3617C24.3628 36.033 26.3125 38.4156 29.1479 39.8428C31.9934 41.2748 35.8722 40.5285 38.1626 38.2249C38.8373 37.5461 39.3871 36.7682 39.8289 35.8503C40.7743 33.8869 40.8538 31.151 39.8774 29.186C39.0369 27.4949 37.6807 25.8471 35.8775 25.1045C34.7526 24.6415 33.8799 24.3524 32.3721 24.3524C28.043 24.3524 24.3628 28.0327 24.3628 32.3617Z" fill="#EAEAEA"/>
</g>
<defs>
<clipPath id="clip0_656_2469">
<rect width="48" height="48" fill="white"/>
</clipPath>
</defs>
</svg>
