<svg width="38" height="38" viewBox="0 0 38 38" fill="none" xmlns="http://www.w3.org/2000/svg">
<g clip-path="url(#clip0_755_453)">
<path d="M32.0047 14.2289L33.1236 15.0734L23.8136 27.3812L16.3191 16.2134L9.62688 26.0089L4.87688 21.7867L6.33355 20.1084L9.18355 22.6312L16.3191 12.2023L23.9086 23.5073L30.9386 14.2078C29.8734 14.1179 28.8379 13.8115 27.8954 13.3073C26.9528 12.8032 26.1231 12.1119 25.4571 11.2759C24.791 10.4399 24.3026 9.47667 24.0218 8.44531C23.7411 7.41394 23.6738 6.33611 23.8241 5.27783H4.22244C3.66254 5.27783 3.12557 5.50025 2.72966 5.89616C2.33375 6.29207 2.11133 6.82904 2.11133 7.38894V30.6112C2.11133 31.1711 2.33375 31.708 2.72966 32.1039C3.12557 32.4999 3.66254 32.7223 4.22244 32.7223H33.778C34.3379 32.7223 34.8749 32.4999 35.2708 32.1039C35.6667 31.708 35.8891 31.1711 35.8891 30.6112V13.0256C34.7222 13.7604 33.3826 14.1753 32.0047 14.2289Z" fill="#EAEAEA"/>
<path d="M31.6664 11.6111C34.5813 11.6111 36.9442 9.24816 36.9442 6.33332C36.9442 3.41848 34.5813 1.05554 31.6664 1.05554C28.7516 1.05554 26.3887 3.41848 26.3887 6.33332C26.3887 9.24816 28.7516 11.6111 31.6664 11.6111Z" fill="#EAEAEA"/>
</g>
<defs>
<clipPath id="clip0_755_453">
<rect width="38" height="38" fill="white"/>
</clipPath>
</defs>
</svg>
