<svg xmlns="http://www.w3.org/2000/svg" width="36" height="36" fill="none" viewBox="0 0 36 36"><g fill-rule="evenodd" clip-path="url(#clip0_159_543)" clip-rule="evenodd"><path fill="#868686" d="M10.002 5.678c4.872-.816 5.66 6.523 1.313 7.263-5.036.856-5.979-6.481-1.313-7.263m16.566.654c-2.734-.945-9.521-1.776-12.74-2.314-2.69-.45-4.037-.967-6.394.458-3.41 2.062-3.646 7.336.096 9.765 2.034 1.32 3.979.772 6.32.374 2.7-.459 10.726-1.517 12.72-2.333zM13.292 22.155c.07-2.851.397-4.19.938-6.732-.893.108-1.758.29-2.646.418-1.222.176-1.648-.007-2.752.007l.004 6.353 4.456-.047"/><path fill="#ff0b01" d="M30.513 12.74c.809-2.24 1.072-4.793-.147-6.982l-2.946.577-.004 5.949c.933.344 2.114.603 3.097.456M8.922 10.064c.565-.095 1.137-.074 1.807-.083 1.423-.02 1.364-.293 1.547.729-.575.145-1.065.108-1.774.116-1.297.016-1.331.286-1.58-.762m1.582-1.396c-1.29.004-1.35.287-1.581-.836l3.345.093c-.222 1.073-.521.739-1.764.743M7.789 9.736c.176 1.447 1.526 2.557 3.136 2.406 1.557-.146 2.725-1.447 2.475-3.27-.48-3.509-6.088-3.049-5.612.864m3.65 18.986c-.124-1.575.222-.63-.495-.937-.303.659-.175 1.328-.166 2.175.295 3.218 5.295 3.356 5.987.231.313-1.414-.43-3.84.782-4.456 1.203-.612 3.656.409 4.684-.481-.39-.972-3.49-.714-4.506-.488-1.453.324-1.742 1.48-1.728 3.085.016 1.69.026 3.177-1.417 3.677-2.271.787-3.002-1.016-3.142-2.806"/><path fill="#868686" d="M8.847 23.13c-.048 1.903.15 3.797 2.314 3.724 2.061-.07 2.187-1.842 2.111-3.788l-4.425.065"/><path fill="#ff0b01" d="M14.451 18.258c2.005-.03 2.233-1.145 1.913-3.208-1.246.19-1.08-.114-1.441 1.067-.212.69-.372 1.402-.472 2.14z"/></g><defs><clipPath id="clip0_159_543"><path fill="#fff" d="M0 0h36v36H0z"/></clipPath></defs></svg>