<svg width="21" height="17" viewBox="0 0 21 17" fill="none" xmlns="http://www.w3.org/2000/svg">
<path d="M0 1.125C0 0.826631 0.118526 0.540483 0.329505 0.329505C0.540483 0.118526 0.826631 0 1.125 0H16.125C16.4234 0 16.7095 0.118526 16.9205 0.329505C17.1315 0.540483 17.25 0.826631 17.25 1.125C17.25 1.42337 17.1315 1.70952 16.9205 1.9205C16.7095 2.13147 16.4234 2.25 16.125 2.25H1.125C0.826631 2.25 0.540483 2.13147 0.329505 1.9205C0.118526 1.70952 0 1.42337 0 1.125ZM1.125 4.5C0.826631 4.5 0.540483 4.61853 0.329505 4.8295C0.118526 5.04048 0 5.32663 0 5.625C0 5.92337 0.118526 6.20952 0.329505 6.4205C0.540483 6.63147 0.826631 6.75 1.125 6.75H10.125C10.4234 6.75 10.7095 6.63147 10.9205 6.4205C11.1315 6.20952 11.25 5.92337 11.25 5.625C11.25 5.32663 11.1315 5.04048 10.9205 4.8295C10.7095 4.61853 10.4234 4.5 10.125 4.5H1.125ZM14.5695 16.4145C14.775 16.5001 15.0012 16.5225 15.2195 16.479C15.4378 16.4354 15.6381 16.3279 15.795 16.17L20.295 11.67C20.4055 11.567 20.4942 11.4428 20.5557 11.3048C20.6172 11.1668 20.6502 11.0178 20.6529 10.8668C20.6556 10.7157 20.6278 10.5657 20.5712 10.4256C20.5146 10.2855 20.4304 10.1583 20.3236 10.0514C20.2167 9.94462 20.0895 9.8604 19.9494 9.80382C19.8093 9.74723 19.6593 9.71945 19.5082 9.72211C19.3572 9.72478 19.2082 9.75784 19.0702 9.81933C18.9322 9.88082 18.808 9.96947 18.705 10.08L16.125 12.66V5.625C16.125 5.32663 16.0065 5.04048 15.7955 4.8295C15.5845 4.61853 15.2984 4.5 15 4.5C14.7016 4.5 14.4155 4.61853 14.2045 4.8295C13.9935 5.04048 13.875 5.32663 13.875 5.625V12.66L11.295 10.08C11.0817 9.88128 10.7997 9.77309 10.5082 9.77824C10.2168 9.78338 9.93869 9.90145 9.73257 10.1076C9.52645 10.3137 9.40838 10.5918 9.40324 10.8832C9.39809 11.1747 9.50628 11.4567 9.705 11.67L14.205 16.17C14.3092 16.2747 14.4331 16.3578 14.5695 16.4145ZM1.125 9C0.826631 9 0.540483 9.11853 0.329505 9.32951C0.118526 9.54048 0 9.82663 0 10.125C0 10.4234 0.118526 10.7095 0.329505 10.9205C0.540483 11.1315 0.826631 11.25 1.125 11.25H5.625C5.92337 11.25 6.20952 11.1315 6.4205 10.9205C6.63147 10.7095 6.75 10.4234 6.75 10.125C6.75 9.82663 6.63147 9.54048 6.4205 9.32951C6.20952 9.11853 5.92337 9 5.625 9H1.125ZM0 14.625C0 14.3266 0.118526 14.0405 0.329505 13.8295C0.540483 13.6185 0.826631 13.5 1.125 13.5H5.625C5.92337 13.5 6.20952 13.6185 6.4205 13.8295C6.63147 14.0405 6.75 14.3266 6.75 14.625C6.75 14.9234 6.63147 15.2095 6.4205 15.4205C6.20952 15.6315 5.92337 15.75 5.625 15.75H1.125C0.826631 15.75 0.540483 15.6315 0.329505 15.4205C0.118526 15.2095 0 14.9234 0 14.625Z" fill="#8D8D8D"/>
</svg>
