<svg width="24" height="24" viewBox="0 0 24 24" fill="none" xmlns="http://www.w3.org/2000/svg">
<path fill-rule="evenodd" clip-rule="evenodd" d="M0.703088 5.43136C0.846705 5.47004 1.13614 5.65967 1.2804 5.74706L9.98426 10.8151L18.6832 5.74172C18.9194 5.60093 19.17 5.52044 19.2188 5.33681C19.0655 5.30073 18.7875 5.11657 18.6363 5.02632L14.5942 2.67576C13.8941 2.29064 10.2047 0.0627752 9.9376 0L5.31149 2.70663C4.80036 2.99315 0.819041 5.27182 0.703218 5.43123L0.703088 5.43136ZM0 17.427L2.31674 18.7767C3.10308 19.2424 3.87041 19.6554 4.638 20.1217L9.28117 22.811V11.9959L0 6.61198V17.427ZM10.6406 12.1376V22.6693C10.6406 22.9407 11.0184 22.6268 11.3992 22.3946L13.0943 21.4104C13.3139 21.2897 13.7741 20.9742 13.9689 20.922C13.9108 20.2184 13.8283 20.3476 13.8283 19.3161C13.8283 18.1414 14.4406 16.6365 15.1763 15.8099L15.5048 15.4324C15.9418 14.9922 16.5895 14.574 17.1405 14.294C18.1041 13.8046 18.8745 13.7433 19.969 13.7433V6.61211C18.4561 7.41868 15.7248 9.07167 14.1071 10.01C13.702 10.2451 13.3296 10.4553 12.9177 10.7007L11.1658 11.722C11.0227 11.8084 10.6407 11.9609 10.6407 12.1378L10.6406 12.1376ZM17.1094 18.891H18.7968C18.9049 18.891 18.9374 18.8581 18.9374 18.7493V17.0493H20.2969V18.7493C20.2969 18.8582 20.3294 18.891 20.4374 18.891H22.1248V20.2606H20.2967V22.1026H18.9372V20.2606H17.1091V18.891H17.1094ZM24 19.195V19.997C23.9529 20.4961 23.8171 20.9996 23.5792 21.4897C22.2682 24.1892 18.7308 24.9278 16.4413 22.634C15.7553 21.9467 15.1874 20.8652 15.1874 19.5053C15.1874 18.8741 15.4067 18.1321 15.6031 17.7043C15.8343 17.2011 16.1428 16.7714 16.5113 16.3994C16.6947 16.2141 16.9112 16.0475 17.1288 15.8881C17.3286 15.7416 17.5855 15.6064 17.825 15.5034C20.929 14.1711 23.7465 16.4596 24 19.195Z" fill="white"/>
</svg>
