<svg width="16" height="16" viewBox="0 0 16 16" fill="none" xmlns="http://www.w3.org/2000/svg">
<path fill-rule="evenodd" clip-rule="evenodd" d="M6.51834 14H9.48101C11.5617 14 12.6023 14 13.3497 13.51C13.6722 13.2988 13.95 13.026 14.167 12.7074C14.6663 11.974 14.6663 10.952 14.6663 8.90936C14.6663 6.8667 14.6663 5.8447 14.167 5.11136C13.95 4.79269 13.6722 4.51994 13.3497 4.3087C12.8697 3.99336 12.2683 3.8807 11.3477 3.8407C10.9083 3.8407 10.5303 3.51403 10.4443 3.0907C10.3786 2.78061 10.2079 2.50272 9.96091 2.304C9.71396 2.10527 9.40598 1.9979 9.08901 2.00003H6.91034C6.25167 2.00003 5.68434 2.4567 5.55501 3.0907C5.46901 3.51403 5.09101 3.8407 4.65167 3.8407C3.73167 3.8807 3.13034 3.99403 2.64967 4.3087C2.32737 4.52001 2.04986 4.79276 1.83301 5.11136C1.33301 5.8447 1.33301 6.86603 1.33301 8.90936C1.33301 10.9527 1.33301 11.9734 1.83234 12.7074C2.04834 13.0247 2.32567 13.2974 2.64967 13.51C3.39701 14 4.43767 14 6.51834 14ZM7.99967 6.18203C6.46567 6.18203 5.22167 7.4027 5.22167 8.9087C5.22167 10.4147 6.46634 11.6374 7.99967 11.6374C9.53301 11.6374 10.7777 10.416 10.7777 8.91003C10.7777 7.40403 9.53301 6.18203 7.99967 6.18203ZM7.99967 7.2727C7.07967 7.2727 6.33301 8.00536 6.33301 8.90936C6.33301 9.8127 7.07967 10.5454 7.99967 10.5454C8.91967 10.5454 9.66634 9.8127 9.66634 8.90936C9.66634 8.00603 8.91967 7.2727 7.99967 7.2727ZM11.1477 6.72736C11.1477 6.42603 11.3963 6.18203 11.7037 6.18203H12.4437C12.7503 6.18203 12.9997 6.42603 12.9997 6.72736C12.9983 6.8733 12.939 7.0127 12.8349 7.11495C12.7307 7.21721 12.5903 7.27394 12.4443 7.2727H11.7037C11.6314 7.2734 11.5596 7.25985 11.4925 7.23283C11.4255 7.2058 11.3644 7.16583 11.3127 7.11519C11.2611 7.06455 11.2199 7.00424 11.1916 6.93769C11.1633 6.87115 11.1484 6.79968 11.1477 6.72736Z" fill="black"/>
</svg>
