<svg width="16" height="16" viewBox="0 0 16 16" fill="none" xmlns="http://www.w3.org/2000/svg">
<g clip-path="url(#clip0_801_3941)">
<path d="M11.9997 5.33333C11.9997 5.68696 11.8592 6.02609 11.6091 6.27614C11.3591 6.52619 11.02 6.66667 10.6663 6.66667C10.3127 6.66667 9.97358 6.52619 9.72353 6.27614C9.47348 6.02609 9.33301 5.68696 9.33301 5.33333C9.33301 4.97971 9.47348 4.64057 9.72353 4.39052C9.97358 4.14048 10.3127 4 10.6663 4C11.02 4 11.3591 4.14048 11.6091 4.39052C11.8592 4.64057 11.9997 4.97971 11.9997 5.33333Z" fill="black"/>
<path fill-rule="evenodd" clip-rule="evenodd" d="M7.96167 0.83343H8.03767C9.57701 0.83343 10.783 0.83343 11.7243 0.960097C12.687 1.08943 13.447 1.3601 14.0437 1.9561C14.6403 2.55276 14.9103 3.31276 15.0397 4.2761C15.1663 5.21676 15.1663 6.42276 15.1663 7.9621V8.02076C15.1663 9.29343 15.1663 10.3348 15.097 11.1828C15.0277 12.0361 14.8857 12.7474 14.567 13.3394C14.4275 13.5999 14.253 13.8348 14.0437 14.0441C13.447 14.6408 12.687 14.9108 11.7237 15.0401C10.783 15.1668 9.57701 15.1668 8.03767 15.1668H7.96167C6.42234 15.1668 5.21634 15.1668 4.27501 15.0401C3.31234 14.9108 2.55234 14.6401 1.95567 14.0441C1.42701 13.5154 1.15367 12.8574 1.00901 12.0401C0.865675 11.2381 0.839674 10.2401 0.834341 9.00143C0.833452 8.68588 0.833008 8.3521 0.833008 8.0001V7.96143C0.833008 6.4221 0.833008 5.2161 0.959675 4.27476C1.08901 3.3121 1.35967 2.5521 1.95567 1.95543C2.55234 1.35876 3.31234 1.08876 4.27567 0.95943C5.21634 0.832764 6.42234 0.832764 7.96167 0.832764M4.40834 1.9501C3.55634 2.06476 3.04234 2.28343 2.66301 2.66276C2.28301 3.04276 2.06501 3.5561 1.95034 4.40876C1.83434 5.27543 1.83301 6.4141 1.83301 7.99943V8.5621L2.50034 7.9781C2.79306 7.72186 3.17222 7.58647 3.56103 7.59935C3.94984 7.61222 4.31922 7.7724 4.59434 8.04743L7.45434 10.9074C7.67628 11.1293 7.96937 11.2658 8.28204 11.2929C8.59471 11.32 8.9069 11.2359 9.16367 11.0554L9.36234 10.9154C9.7328 10.6551 10.1806 10.5282 10.6326 10.5555C11.0845 10.5827 11.5138 10.7625 11.8503 11.0654L13.737 12.7634C13.9277 12.3648 14.0403 11.8408 14.1003 11.1014C14.1657 10.2981 14.1663 9.29676 14.1663 7.99943C14.1663 6.4141 14.165 5.27543 14.049 4.40876C13.9343 3.5561 13.7157 3.0421 13.3363 2.6621C12.9563 2.28276 12.443 2.06476 11.5903 1.9501C10.7237 1.8341 9.58501 1.83276 7.99967 1.83276C6.41434 1.83276 5.27501 1.8341 4.40834 1.9501Z" fill="black"/>
</g>
<defs>
<clipPath id="clip0_801_3941">
<rect width="16" height="16" fill="white"/>
</clipPath>
</defs>
</svg>
