<svg width="28" height="28" viewBox="0 0 28 28" fill="none" xmlns="http://www.w3.org/2000/svg">
<g clip-path="url(#clip0_801_3984)">
<path fill-rule="evenodd" clip-rule="evenodd" d="M4.60062 8.57545C4.72011 8.6074 4.96093 8.764 5.08096 8.83617L12.3228 13.0215L19.5607 8.83176C19.7572 8.71549 19.9657 8.64902 20.0063 8.49737C19.8787 8.46758 19.6474 8.31549 19.5216 8.24096L16.1585 6.2998C15.576 5.98176 12.5062 4.14193 12.284 4.09009L8.43495 6.3253C8.00968 6.56192 4.69709 8.4437 4.60072 8.57535L4.60062 8.57545ZM4.01562 18.4818L5.94323 19.5964C6.59748 19.981 7.23593 20.3221 7.87459 20.7071L11.7379 22.928V13.9967L4.01562 9.55044V18.4818ZM12.8689 14.1137V22.811C12.8689 23.0351 13.1833 22.7759 13.5001 22.5842L14.9105 21.7714C15.0932 21.6717 15.4761 21.4112 15.6382 21.368C15.5898 20.787 15.5212 20.8937 15.5212 20.0419C15.5212 19.0717 16.0307 17.8289 16.6428 17.1463L16.9161 16.8346C17.2797 16.4711 17.8186 16.1257 18.2771 15.8945C19.0788 15.4903 19.7198 15.4397 20.6305 15.4397V9.55055C19.3717 10.2166 17.0991 11.5817 15.7532 12.3567C15.4161 12.5508 15.1063 12.7244 14.7636 12.927L13.3059 13.7705C13.1868 13.8418 12.869 13.9677 12.869 14.1138L12.8689 14.1137ZM18.2512 19.6908H19.6552C19.7451 19.6908 19.7721 19.6636 19.7721 19.5738V18.1699H20.9033V19.5738C20.9033 19.6637 20.9304 19.6908 21.0202 19.6908H22.4242V20.8219H20.9032V22.343H19.772V20.8219H18.251V19.6908H18.2512ZM23.9844 19.9419V20.6042C23.9452 21.0163 23.8322 21.4321 23.6343 21.8369C22.5435 24.0662 19.6002 24.6761 17.6953 22.7818C17.1245 22.2143 16.652 21.3211 16.652 20.1981C16.652 19.6768 16.8345 19.0641 16.9979 18.7108C17.1902 18.2952 17.447 17.9404 17.7535 17.6332C17.9061 17.4801 18.0863 17.3426 18.2673 17.2109C18.4336 17.0899 18.6473 16.9783 18.8466 16.8932C21.4292 15.7929 23.7735 17.6829 23.9844 19.9419Z" fill="#8D8D8D"/>
</g>
<defs>
<clipPath id="clip0_801_3984">
<rect width="28" height="28" fill="white"/>
</clipPath>
</defs>
</svg>
