<svg width="24" height="24" viewBox="0 0 24 24" fill="none" xmlns="http://www.w3.org/2000/svg">
<g clip-path="url(#clip0_801_4005)">
<path fill-rule="evenodd" clip-rule="evenodd" d="M5.66075 17.3387L7.30232 20.8085C8.54934 20.8931 14.168 20.96 15.1015 20.6958C16.3521 20.3435 19.0399 18.635 20.3257 17.9199C21.4776 17.2788 20.611 15.7147 19.445 16.377C18.3776 16.9829 15.2706 19.026 14.2209 19.0613L11.2442 19.0683C10.751 19.0718 10.589 19.1458 10.5819 18.6386C11.3921 18.2898 14.1187 18.8499 14.7422 18.3673C15.2565 17.9692 15.1438 17.1273 14.5943 16.8807C13.9038 16.5672 12.1883 17.0533 10.4939 16.5355C9.94785 16.3664 9.35252 16.1128 8.74661 16.0494C7.76379 15.9472 6.68233 16.7504 5.65723 17.3422L5.66075 17.3387Z" fill="#8D8D8D"/>
<path fill-rule="evenodd" clip-rule="evenodd" d="M2.87402 18.0009C2.89868 18.3919 4.69877 22.1154 4.9982 22.5099C5.39626 22.5311 6.77363 21.8371 7.01317 21.6152C7.02726 21.1255 5.79785 18.8851 5.51955 18.2862C5.25888 17.7297 5.10036 16.856 4.45923 17.1378C4.01185 17.3351 3.15584 17.7191 2.87402 18.0009Z" fill="#8D8D8D"/>
<path fill-rule="evenodd" clip-rule="evenodd" d="M14.8271 12.7663C15.2323 13.0481 15.7853 13.3369 16.2327 13.5941C16.6519 13.8336 17.2613 14.2282 17.7228 14.4043L17.7157 11.0542C16.8139 10.7301 15.7184 9.80368 14.8483 9.47607L14.8307 12.7663H14.8271Z" fill="#8D8D8D"/>
<path fill-rule="evenodd" clip-rule="evenodd" d="M8.01074 12.8084C8.87028 13.136 10.1138 14.1681 10.9029 14.3865L10.8993 11.0999L8.02483 9.44067L8.01074 12.8084Z" fill="#8D8D8D"/>
<path fill-rule="evenodd" clip-rule="evenodd" d="M11.4209 6.88334L14.2884 8.53195L14.313 7.61253V7.03481V5.96392L14.306 5.22063L11.435 3.54736L11.4209 6.88334Z" fill="#8D8D8D"/>
<path fill-rule="evenodd" clip-rule="evenodd" d="M16.5321 4.21667C16.5321 4.50201 16.5286 4.75564 16.4194 4.94587C16.0354 4.98109 16.0777 4.79439 15.9474 4.56894L14.8307 5.20654L14.8271 8.48616C15.0737 8.44741 17.3564 7.11583 17.6876 6.86925L17.7157 3.57202L16.5321 4.21667Z" fill="#8D8D8D"/>
<path fill-rule="evenodd" clip-rule="evenodd" d="M19.9421 10.1135C19.9315 10.4059 19.9949 10.7265 19.766 10.8462C19.4595 11.0083 19.4454 10.5961 19.3538 10.4482L18.2547 11.0822L18.2266 14.4076L21.1081 12.7837L21.1222 9.48999L19.9386 10.117L19.9421 10.1135Z" fill="#8D8D8D"/>
<path fill-rule="evenodd" clip-rule="evenodd" d="M13.1537 10.1029C13.1008 10.5574 13.2171 10.6172 12.9529 10.8709C12.738 10.8533 12.8296 10.9343 12.5654 10.5891L11.4346 11.1034L11.417 14.4006C11.7481 14.3196 14.0801 12.9422 14.3056 12.7273V9.46533L13.1502 10.1065L13.1537 10.1029Z" fill="#8D8D8D"/>
<path fill-rule="evenodd" clip-rule="evenodd" d="M15.126 9.02506C15.4747 9.2188 17.7821 10.6913 18.0991 10.5856C18.3281 10.5081 18.9868 10.1065 19.1242 9.89868L16.2885 8.31348C15.9468 8.46495 15.3127 8.79961 15.1295 9.02858L15.126 9.02506Z" fill="#8D8D8D"/>
<path fill-rule="evenodd" clip-rule="evenodd" d="M13.4248 2.10312C13.5516 2.21232 16.0316 3.79048 16.3944 3.69537C16.5459 3.65662 17.3033 3.18458 17.3984 3.07538C17.187 2.88515 14.7634 1.39506 14.4499 1.4937C14.3231 1.53245 13.5058 2.03619 13.4248 2.10312Z" fill="#8D8D8D"/>
<path fill-rule="evenodd" clip-rule="evenodd" d="M11.7441 3.07518L12.7023 3.68108C13.0687 3.89597 14.3791 4.7872 14.7243 4.66743C14.9427 4.58993 15.5592 4.20596 15.6931 4.06505C15.4606 3.86074 13.0792 2.3636 12.7199 2.48337C12.6002 2.52212 11.8498 2.98711 11.7441 3.07518Z" fill="#8D8D8D"/>
<path fill-rule="evenodd" clip-rule="evenodd" d="M10.0225 8.0353C10.3289 8.22905 12.6856 9.698 12.9921 9.59937C13.1083 9.56414 13.8481 9.10619 13.9819 9.01461C13.8481 8.83143 13.7706 8.82438 13.5487 8.69756L12.0304 7.82394C11.7028 7.63724 11.3752 7.28145 10.9877 7.42235C10.7376 7.51394 10.1775 7.85564 10.0225 8.03882V8.0353Z" fill="#8D8D8D"/>
<path fill-rule="evenodd" clip-rule="evenodd" d="M8.31348 8.99334C8.85949 9.38084 9.638 9.78242 10.2791 10.1453C11.4839 10.8251 11.0753 10.6913 12.3047 10.0008C12.2483 9.92685 9.72255 8.2712 9.31744 8.38392C9.21528 8.4121 8.40154 8.90528 8.31348 8.99334Z" fill="#8D8D8D"/>
<path fill-rule="evenodd" clip-rule="evenodd" d="M16.8564 8.0246C17.4166 8.43675 18.2197 8.83482 18.8256 9.18708C20.1537 9.95855 19.5724 9.56049 20.823 9.03913C20.8089 9.02152 20.7878 8.97572 20.7772 8.98981C20.7701 9.0039 20.742 8.95106 20.7314 8.94402L19.8578 8.40153C17.878 7.22848 18.1598 7.232 17.3461 7.68995C17.258 7.73926 17.1876 7.76744 17.0819 7.8379L16.8564 8.02812V8.0246Z" fill="#8D8D8D"/>
</g>
<defs>
<clipPath id="clip0_801_4005">
<rect width="24" height="24" fill="white"/>
</clipPath>
</defs>
</svg>
