<svg width="24" height="24" viewBox="0 0 24 24" fill="none" xmlns="http://www.w3.org/2000/svg">
<path fill-rule="evenodd" clip-rule="evenodd" d="M5.99961 2.3999C4.67413 2.3999 3.59961 3.47442 3.59961 4.7999V21.5999L7.79961 19.1999L11.9996 21.5999L16.1996 19.1999L20.3996 21.5999V4.7999C20.3996 3.47442 19.3251 2.3999 17.9996 2.3999H5.99961ZM8.99961 5.9999C8.00549 5.9999 7.19961 6.80579 7.19961 7.7999C7.19961 8.79402 8.00549 9.5999 8.99961 9.5999C9.99372 9.5999 10.7996 8.79402 10.7996 7.7999C10.7996 6.80579 9.99372 5.9999 8.99961 5.9999ZM16.4481 6.35137C15.9795 5.88275 15.2197 5.88275 14.7511 6.35137L7.55108 13.5514C7.08245 14.02 7.08245 14.7798 7.55108 15.2484C8.01971 15.717 8.7795 15.717 9.24814 15.2484L16.4481 8.04843C16.9167 7.5798 16.9167 6.82001 16.4481 6.35137ZM14.9996 11.9999C14.0055 11.9999 13.1996 12.8058 13.1996 13.7999C13.1996 14.794 14.0055 15.5999 14.9996 15.5999C15.9937 15.5999 16.7996 14.794 16.7996 13.7999C16.7996 12.8058 15.9937 11.9999 14.9996 11.9999Z" fill="#8D8D8D"/>
</svg>
