<svg width="18" height="15" viewBox="0 0 18 15" fill="none" xmlns="http://www.w3.org/2000/svg">
<path fill-rule="evenodd" clip-rule="evenodd" d="M17.7962 8.18989C17.7962 8.20987 17.7962 8.23004 17.7962 8.25021V10.0835C17.7962 10.1037 17.7962 10.1239 17.7962 10.1439C17.7962 10.9565 17.7963 11.6566 17.7223 12.2174C17.643 12.8182 17.4641 13.3943 17.0054 13.8614C16.5468 14.3286 15.9812 14.5108 15.3913 14.5916C14.8408 14.667 14.1534 14.667 13.3555 14.6669H7.83719C7.03936 14.667 6.35192 14.667 5.80143 14.5916C5.21148 14.5108 4.64598 14.3286 4.18728 13.8614C3.7286 13.3943 3.54974 12.8182 3.47042 12.2174C3.39641 11.6566 3.39644 10.9565 3.39649 10.1439V8.18989C3.39644 7.37726 3.39641 6.67711 3.47042 6.11639C3.54974 5.51551 3.7286 4.93953 4.18728 4.47233C4.64598 4.00514 5.21148 3.82296 5.80143 3.74217C6.35192 3.66679 7.03936 3.66683 7.83719 3.66687H13.2963C13.3161 3.66687 13.3359 3.66687 13.3555 3.66687C14.1534 3.66683 14.8408 3.66679 15.3913 3.74218C15.9812 3.82296 16.5468 4.00514 17.0054 4.47233C17.4641 4.93953 17.643 5.51551 17.7223 6.11639C17.7963 6.67711 17.7962 7.37726 17.7962 8.18989ZM7.89641 9.16687C7.89641 7.64805 9.10527 6.41687 10.5964 6.41687C12.0875 6.41687 13.2963 7.64805 13.2963 9.16687C13.2963 10.6857 12.0875 11.9169 10.5964 11.9169C9.10527 11.9169 7.89641 10.6857 7.89641 9.16687Z" fill="#8D8D8D"/>
<path d="M14.3966 2.7537C14.139 2.75006 13.8742 2.75008 13.6068 2.75012H7.99303C7.23371 2.75004 6.49579 2.74996 5.88505 2.83359C5.19589 2.92796 4.40849 3.15788 3.75444 3.82406C3.10038 4.49024 2.87465 5.29224 2.78199 5.99419C2.69988 6.61624 2.69995 7.36782 2.70003 8.1413V10.1923C2.70001 10.4609 2.69998 10.7269 2.7034 10.9858C2.64512 10.9829 2.58876 10.9794 2.53438 10.9751C2.19849 10.9487 1.86372 10.8905 1.53851 10.7326C0.979463 10.4613 0.528985 10.0025 0.26259 9.43307C0.107613 9.10179 0.0504734 8.76088 0.0245538 8.41878C-1.57141e-05 8.09437 -6.78521e-06 7.70112 1.12145e-05 7.24535L2.2024e-06 4.52308C-4.27968e-05 3.71049 -7.88153e-05 3.01031 0.0739358 2.44962C0.153251 1.84874 0.332114 1.27275 0.790809 0.805551C1.24949 0.338362 1.815 0.156184 2.40495 0.0753981C2.95543 1.13919e-05 3.64286 4.80783e-05 4.44068 9.39116e-05L11.2849 4.80161e-05C11.6645 -0.000291151 11.9916 -0.00058426 12.2825 0.0649116C13.3082 0.295847 14.1094 1.11181 14.3361 2.15656C14.376 2.34015 14.391 2.53787 14.3966 2.7537Z" fill="#8D8D8D"/>
</svg>
