<svg width="24" height="24" viewBox="0 0 24 24" fill="none" xmlns="http://www.w3.org/2000/svg">
<path d="M21.4898 8.73L19.5798 7.63V5.43C19.5798 4.88 19.1298 4.43 18.5798 4.43H16.3798L15.9698 3.73L15.2698 2.53C15.2045 2.41541 15.1171 2.31488 15.0128 2.2342C14.9084 2.15352 14.7892 2.09427 14.6618 2.05988C14.5345 2.02549 14.4016 2.01663 14.2708 2.03381C14.14 2.051 14.014 2.09388 13.8998 2.16L11.9898 3.26L10.0798 2.16C9.59983 1.88 8.98983 2.05 8.70983 2.53L8.00983 3.73L7.59983 4.44H5.39983C4.84983 4.44 4.39983 4.89 4.39983 5.44V7.64L2.48983 8.74C2.37511 8.8043 2.27499 8.89172 2.1958 8.99672C2.11662 9.10172 2.0601 9.22202 2.02983 9.35C1.95983 9.61 1.99983 9.88 2.12983 10.11L3.22983 12.02L2.12983 13.93C2.06371 14.0441 2.02082 14.1702 2.00364 14.301C1.98646 14.4318 1.99531 14.5647 2.02971 14.692C2.0641 14.8193 2.12334 14.9386 2.20403 15.043C2.28471 15.1473 2.38524 15.2347 2.49983 15.3L4.40983 16.4V18.6C4.40983 19.15 4.85983 19.6 5.40983 19.6H7.60983L8.70983 21.51C8.89983 21.83 9.22983 22.01 9.57983 22.01C9.74983 22.01 9.91983 21.97 10.0798 21.88L11.9898 20.78L13.8998 21.88C14.1298 22.01 14.3998 22.05 14.6598 21.98C14.9198 21.91 15.1298 21.74 15.2698 21.51L16.3698 19.6H18.5698C19.1198 19.6 19.5698 19.15 19.5698 18.6V16.4L21.4798 15.3C21.9598 15.02 22.1198 14.41 21.8498 13.93L20.7498 12.02L21.8498 10.11C22.1298 9.63 21.9598 9.02 21.4798 8.74L21.4898 8.73ZM9.49983 8C10.3298 8 10.9998 8.67 10.9998 9.5C10.9998 10.33 10.3298 11 9.49983 11C8.66983 11 7.99983 10.33 7.99983 9.5C7.99983 8.67 8.66983 8 9.49983 8ZM9.79983 16.6L8.19983 15.4L14.1998 7.4L15.7998 8.6L9.79983 16.6ZM14.4998 16C13.6698 16 12.9998 15.33 12.9998 14.5C12.9998 13.67 13.6698 13 14.4998 13C15.3298 13 15.9998 13.67 15.9998 14.5C15.9998 15.33 15.3298 16 14.4998 16Z" fill="#8D8D8D"/>
</svg>
