<svg width="22" height="22" viewBox="0 0 22 22" fill="none" xmlns="http://www.w3.org/2000/svg">
<path d="M2.75 11.9166C2.75 14.1047 3.61919 16.2031 5.16637 17.7503C6.71354 19.2974 8.81196 20.1666 11 20.1666C11 15.5833 7.30583 11.9166 2.75 11.9166ZM11 5.04163C11.6078 5.04163 12.1907 5.28307 12.6205 5.71284C13.0502 6.14261 13.2917 6.7255 13.2917 7.33329C13.2917 7.94108 13.0502 8.52397 12.6205 8.95375C12.1907 9.38352 11.6078 9.62496 11 9.62496C10.3922 9.62496 9.80932 9.38352 9.37955 8.95375C8.94978 8.52397 8.70833 7.94108 8.70833 7.33329C8.70833 6.7255 8.94978 6.14261 9.37955 5.71284C9.80932 5.28307 10.3922 5.04163 11 5.04163ZM5.13333 9.39579C5.13333 10.0036 5.37478 10.5865 5.80455 11.0162C6.23432 11.446 6.81721 11.6875 7.425 11.6875C7.91083 11.6875 8.36 11.5316 8.70833 11.2841V11.4583C8.70833 12.0661 8.94978 12.649 9.37955 13.0787C9.80932 13.5085 10.3922 13.75 11 13.75C11.6078 13.75 12.1907 13.5085 12.6205 13.0787C13.0502 12.649 13.2917 12.0661 13.2917 11.4583V11.2841C13.64 11.5316 14.0892 11.6875 14.575 11.6875C15.1828 11.6875 15.7657 11.446 16.1955 11.0162C16.6252 10.5865 16.8667 10.0036 16.8667 9.39579C16.8667 8.47913 16.3258 7.69996 15.5558 7.33329C16.3258 6.96663 16.8667 6.17829 16.8667 5.27079C16.8667 4.663 16.6252 4.08011 16.1955 3.65034C15.7657 3.22057 15.1828 2.97913 14.575 2.97913C14.0892 2.97913 13.64 3.12579 13.2917 3.38246V3.20829C13.2917 2.6005 13.0502 2.01761 12.6205 1.58784C12.1907 1.15807 11.6078 0.916626 11 0.916626C10.3922 0.916626 9.80932 1.15807 9.37955 1.58784C8.94978 2.01761 8.70833 2.6005 8.70833 3.20829V3.38246C8.36 3.12579 7.91083 2.97913 7.425 2.97913C6.81721 2.97913 6.23432 3.22057 5.80455 3.65034C5.37478 4.08011 5.13333 4.663 5.13333 5.27079C5.13333 6.17829 5.67417 6.96663 6.44417 7.33329C5.67417 7.69996 5.13333 8.47913 5.13333 9.39579ZM11 20.1666C13.188 20.1666 15.2865 19.2974 16.8336 17.7503C18.3808 16.2031 19.25 14.1047 19.25 11.9166C14.6667 11.9166 11 15.5833 11 20.1666Z" fill="#8D8D8D"/>
</svg>
