<svg width="22" height="22" viewBox="0 0 22 22" fill="none" xmlns="http://www.w3.org/2000/svg">
<g clip-path="url(#clip0_551_495)">
<path d="M18.3345 19.4992L16.6974 16.1004C16.3451 15.3742 15.8896 14.8457 15.1033 15.168L13.5521 15.7437C12.3103 16.3195 11.6916 15.7437 11.0685 14.8758L8.27556 8.5207C7.92322 7.79453 8.10798 7.11132 8.89431 6.78906L11.0642 5.92109C11.8506 5.59452 11.726 4.91562 11.3736 4.18945L9.51306 0.726166C9.16072 -6.31809e-06 8.43884 -0.176178 7.65251 0.146087C6.07986 0.794916 4.7779 1.81328 3.93142 3.32148C2.90017 5.16484 3.41579 7.73007 3.62204 8.80859C3.82829 9.8871 4.55017 11.7777 5.48259 13.7156C6.41501 15.6578 7.23142 17.1832 7.96619 18.0469C8.69665 18.9105 10.4498 21.2738 12.6197 21.8023C14.3986 22.232 16.3193 21.8711 17.892 21.2223C18.6826 20.9129 18.6826 20.2297 18.3345 19.4992Z" fill="#8D8D8D"/>
</g>
<defs>
<clipPath id="clip0_551_495">
<rect width="22" height="22" fill="white"/>
</clipPath>
</defs>
</svg>
