<svg width="22" height="22" viewBox="0 0 22 22" fill="none" xmlns="http://www.w3.org/2000/svg">
<g clip-path="url(#clip0_551_562)">
<path d="M18.3345 19.4993L16.6974 16.1004C16.3451 15.3743 15.8896 14.8458 15.1033 15.168L13.5521 15.7438C12.3103 16.3196 11.6916 15.7438 11.0685 14.8758L8.27556 8.52076C7.92322 7.79459 8.10798 7.11138 8.89431 6.78912L11.0642 5.92115C11.8506 5.59459 11.726 4.91568 11.3736 4.18951L9.51306 0.726227C9.16072 5.47171e-05 8.43884 -0.176117 7.65251 0.146148C6.07986 0.794977 4.7779 1.81334 3.93142 3.32154C2.90017 5.1649 3.41579 7.73013 3.62204 8.80865C3.82829 9.88716 4.55017 11.7778 5.48259 13.7157C6.41501 15.6579 7.23142 17.1833 7.96619 18.0469C8.69665 18.9106 10.4498 21.2739 12.6197 21.8024C14.3986 22.2321 16.3193 21.8711 17.892 21.2223C18.6826 20.9129 18.6826 20.2297 18.3345 19.4993Z" fill="#8D8D8D"/>
</g>
<defs>
<clipPath id="clip0_551_562">
<rect width="22" height="22" fill="white"/>
</clipPath>
</defs>
</svg>
