<svg width="26" height="25" viewBox="0 0 26 25" fill="none" xmlns="http://www.w3.org/2000/svg">
<mask id="mask0_805_430" style="mask-type:luminance" maskUnits="userSpaceOnUse" x="0" y="0" width="26" height="25">
<path d="M9 6.3335H23.6667C24.4 6.3335 25 6.9335 25 7.66683V22.3335C25 23.0668 24.4 23.6668 23.6667 23.6668H2.33333C1.6 23.6668 1 23.0668 1 22.3335V7.66683C1 6.9335 1.6 6.3335 2.33333 6.3335H9Z" fill="white" stroke="white" stroke-width="2" stroke-linecap="round" stroke-linejoin="round"/>
<path d="M9 6.33333V2.33333C9 1.6 9.6 1 10.3333 1H15.6667C16.4 1 17 1.6 17 2.33333V6.33333" stroke="white" stroke-width="2" stroke-linecap="round" stroke-linejoin="round"/>
<path d="M13 11.6667V19.6667" stroke="black" stroke-width="2" stroke-linecap="round" stroke-linejoin="round" stroke-dasharray="8 8"/>
<path d="M9 15.6667H17" stroke="black" stroke-width="2" stroke-linecap="round" stroke-linejoin="round" stroke-dasharray="8 8"/>
</mask>
<g mask="url(#mask0_805_430)">
<path d="M-3 -2.99976H29V29.0002H-3V-2.99976Z" fill="white"/>
</g>
</svg>
