<svg width="20" height="18" viewBox="0 0 20 18" fill="none" xmlns="http://www.w3.org/2000/svg">
<path fill-rule="evenodd" clip-rule="evenodd" d="M7.79961 17.4C7.95874 17.4 8.11135 17.3368 8.22387 17.2243C8.3364 17.1118 8.39961 16.9592 8.39961 16.8V8.40005C8.39961 8.24092 8.3364 8.08831 8.22387 7.97578C8.11135 7.86326 7.95874 7.80005 7.79961 7.80005H6.59961C6.44048 7.80005 6.28787 7.86326 6.17535 7.97578C6.06282 8.08831 5.99961 8.24092 5.99961 8.40005V16.8C5.99961 16.9592 6.06282 17.1118 6.17535 17.2243C6.28787 17.3368 6.44048 17.4 6.59961 17.4H7.79961ZM2.39961 17.4C2.55874 17.4 2.71135 17.3368 2.82387 17.2243C2.9364 17.1118 2.99961 16.9592 2.99961 16.8V13.8C2.99961 13.6409 2.9364 13.4883 2.82387 13.3758C2.71135 13.2633 2.55874 13.2 2.39961 13.2H1.19961C1.04048 13.2 0.887867 13.2633 0.775345 13.3758C0.662824 13.4883 0.599609 13.6409 0.599609 13.8V16.8C0.599609 16.9592 0.662824 17.1118 0.775345 17.2243C0.887867 17.3368 1.04048 17.4 1.19961 17.4H2.39961ZM13.1996 12C13.3587 12 13.5114 12.0633 13.6239 12.1758C13.7364 12.2883 13.7996 12.4409 13.7996 12.6V16.8C13.7996 16.9592 13.7364 17.1118 13.6239 17.2243C13.5114 17.3368 13.3587 17.4 13.1996 17.4H11.9996C11.8405 17.4 11.6879 17.3368 11.5753 17.2243C11.4628 17.1118 11.3996 16.9592 11.3996 16.8V12.6C11.3996 12.4409 11.4628 12.2883 11.5753 12.1758C11.6879 12.0633 11.8405 12 11.9996 12H13.1996ZM18.5996 17.4C18.7587 17.4 18.9114 17.3368 19.0239 17.2243C19.1364 17.1118 19.1996 16.9592 19.1996 16.8V8.40005C19.1996 8.24092 19.1364 8.08831 19.0239 7.97578C18.9114 7.86326 18.7587 7.80005 18.5996 7.80005H17.3996C17.2405 7.80005 17.0879 7.86326 16.9753 7.97578C16.8628 8.08831 16.7996 8.24092 16.7996 8.40005V16.8C16.7996 16.9592 16.8628 17.1118 16.9753 17.2243C17.0879 17.3368 17.2405 17.4 17.3996 17.4H18.5996Z" fill="white"/>
<path d="M7.8 8.40012V16.8001H9V8.40012H7.8ZM6.6 8.40012H7.8V7.20012H6.6V8.40012ZM6.6 16.8001V8.40012H5.4V16.8001H6.6ZM7.8 16.8001H6.6V18.0001H7.8V16.8001ZM2.4 13.8001V16.8001H3.6V13.8001H2.4ZM1.2 13.8001H2.4V12.6001H1.2V13.8001ZM1.2 16.8001V13.8001H0V16.8001H1.2ZM2.4 16.8001H1.2V18.0001H2.4V16.8001ZM14.4 16.8001V12.6001H13.2V16.8001H14.4ZM12 18.0001H13.2V16.8001H12V18.0001ZM10.8 12.6001V16.8001H12V12.6001H10.8ZM13.2 11.4001H12V12.6001H13.2V11.4001ZM18.6 8.40012V16.8001H19.8V8.40012H18.6ZM17.4 8.40012H18.6V7.20012H17.4V8.40012ZM17.4 16.8001V8.40012H16.2V16.8001H17.4ZM18.6 16.8001H17.4V18.0001H18.6V16.8001ZM16.2 16.8001C16.2 17.1184 16.3264 17.4236 16.5515 17.6487C16.7765 17.8737 17.0817 18.0001 17.4 18.0001V16.8001H16.2ZM17.4 7.20012C17.0817 7.20012 16.7765 7.32655 16.5515 7.55159C16.3264 7.77664 16.2 8.08186 16.2 8.40012H17.4V7.20012ZM18.6 16.8001V18.0001C18.9183 18.0001 19.2235 17.8737 19.4485 17.6487C19.6736 17.4236 19.8 17.1184 19.8 16.8001H18.6ZM19.8 8.40012C19.8 8.08186 19.6736 7.77664 19.4485 7.55159C19.2235 7.32655 18.9183 7.20012 18.6 7.20012V8.40012H19.8ZM12 12.6001V11.4001C11.6817 11.4001 11.3765 11.5266 11.1515 11.7516C10.9264 11.9766 10.8 12.2819 10.8 12.6001H12ZM12 16.8001H10.8C10.8 17.1184 10.9264 17.4236 11.1515 17.6487C11.3765 17.8737 11.6817 18.0001 12 18.0001V16.8001ZM14.4 12.6001C14.4 12.2819 14.2736 11.9766 14.0485 11.7516C13.8235 11.5266 13.5183 11.4001 13.2 11.4001V12.6001H14.4ZM13.2 16.8001V18.0001C13.5183 18.0001 13.8235 17.8737 14.0485 17.6487C14.2736 17.4236 14.4 17.1184 14.4 16.8001H13.2ZM0 16.8001C0 17.1184 0.126428 17.4236 0.351472 17.6487C0.576515 17.8737 0.88174 18.0001 1.2 18.0001V16.8001H0ZM1.2 12.6001C0.88174 12.6001 0.576515 12.7266 0.351472 12.9516C0.126428 13.1766 0 13.4819 0 13.8001H1.2V12.6001ZM2.4 16.8001V18.0001C2.71826 18.0001 3.02348 17.8737 3.24853 17.6487C3.47357 17.4236 3.6 17.1184 3.6 16.8001H2.4ZM3.6 13.8001C3.6 13.4819 3.47357 13.1766 3.24853 12.9516C3.02348 12.7266 2.71826 12.6001 2.4 12.6001V13.8001H3.6ZM5.4 16.8001C5.4 17.1184 5.52643 17.4236 5.75147 17.6487C5.97652 17.8737 6.28174 18.0001 6.6 18.0001V16.8001H5.4ZM6.6 7.20012C6.28174 7.20012 5.97652 7.32655 5.75147 7.55159C5.52643 7.77664 5.4 8.08186 5.4 8.40012H6.6V7.20012ZM7.8 16.8001V18.0001C8.11826 18.0001 8.42348 17.8737 8.64853 17.6487C8.87357 17.4236 9 17.1184 9 16.8001H7.8ZM9 8.40012C9 8.08186 8.87357 7.77664 8.64853 7.55159C8.42348 7.32655 8.11826 7.20012 7.8 7.20012V8.40012H9ZM2.2941 5.64552C2.15748 5.78697 2.08189 5.97643 2.08359 6.17307C2.0853 6.36972 2.16418 6.55783 2.30324 6.69689C2.44229 6.83594 2.6304 6.91482 2.82705 6.91653C3.0237 6.91824 3.21315 6.84264 3.3546 6.70602L2.2941 5.64552ZM6.7062 3.35472C6.77585 3.28507 6.8311 3.20238 6.8688 3.11137C6.9065 3.02037 6.9259 2.92283 6.9259 2.82432C6.9259 2.72582 6.9065 2.62828 6.8688 2.53727C6.8311 2.44626 6.77585 2.36357 6.7062 2.29392C6.63655 2.22427 6.55386 2.16902 6.46285 2.13132C6.37184 2.09362 6.2743 2.07422 6.1758 2.07422C6.0773 2.07422 5.97976 2.09362 5.88875 2.13132C5.79774 2.16902 5.71505 2.22427 5.6454 2.29392L6.7062 3.35472ZM8.7864 2.14572C8.63355 2.01842 8.4364 1.95704 8.23831 1.9751C8.04021 1.99316 7.8574 2.08918 7.7301 2.24202C7.6028 2.39487 7.54142 2.59202 7.55948 2.79012C7.57754 2.98821 7.67356 3.17102 7.8264 3.29832L8.7864 2.14572ZM11.0136 5.95422C11.1668 6.07768 11.3625 6.13598 11.5583 6.11653C11.7541 6.09708 11.9344 6.00145 12.0604 5.85027C12.1863 5.69908 12.2478 5.50444 12.2316 5.30833C12.2154 5.11222 12.1227 4.93034 11.9736 4.80192L11.0136 5.95422ZM13.2264 4.80222C13.1481 4.86438 13.0829 4.94158 13.0349 5.02928C12.9868 5.11698 12.9568 5.2134 12.9465 5.31288C12.9363 5.41236 12.946 5.51289 12.9752 5.60854C13.0044 5.7042 13.0524 5.79306 13.1164 5.86988C13.1804 5.94671 13.2592 6.00996 13.348 6.0559C13.4368 6.10185 13.5339 6.12957 13.6336 6.13743C13.7333 6.14528 13.8336 6.13312 13.9285 6.10166C14.0235 6.0702 14.1111 6.02007 14.1864 5.95422L13.2264 4.80222ZM17.3739 3.29832C17.45 3.23539 17.5128 3.15807 17.559 3.07078C17.6051 2.9835 17.6335 2.88797 17.6426 2.78967C17.6517 2.69138 17.6413 2.59225 17.612 2.49798C17.5828 2.4037 17.5352 2.31614 17.472 2.24031C17.4088 2.16447 17.3312 2.10186 17.2438 2.05606C17.1563 2.01026 17.0607 1.98218 16.9624 1.97342C16.864 1.96466 16.7649 1.9754 16.6708 2.00502C16.5766 2.03463 16.4892 2.08255 16.4136 2.14602L17.3739 3.29832ZM3.3549 6.70632L6.7062 3.35472L5.6454 2.29392L2.2941 5.64552L3.3549 6.70632ZM7.8264 3.29832L11.0136 5.95422L11.9736 4.80192L8.7864 2.14572L7.8264 3.29832ZM14.1867 5.95422L17.3739 3.29832L16.4136 2.14602L13.2264 4.80222L14.1867 5.95422Z" fill="white"/>
<path fill-rule="evenodd" clip-rule="evenodd" d="M8.39961 1.2001C8.39961 1.04097 8.3364 0.888356 8.22387 0.775834C8.11135 0.663312 7.95874 0.600098 7.79961 0.600098H6.59961C6.44048 0.600098 6.28787 0.663312 6.17535 0.775834C6.06282 0.888356 5.99961 1.04097 5.99961 1.2001V2.4001C5.99961 2.55923 6.06282 2.71184 6.17535 2.82436C6.28787 2.93688 6.44048 3.0001 6.59961 3.0001H7.79961C7.95874 3.0001 8.11135 2.93688 8.22387 2.82436C8.3364 2.71184 8.39961 2.55923 8.39961 2.4001V1.2001ZM2.99961 6.6001C2.99961 6.44097 2.9364 6.28836 2.82387 6.17583C2.71135 6.06331 2.55874 6.0001 2.39961 6.0001H1.19961C1.04048 6.0001 0.887867 6.06331 0.775345 6.17583C0.662824 6.28836 0.599609 6.44097 0.599609 6.6001V7.8001C0.599609 7.95923 0.662824 8.11184 0.775345 8.22436C0.887867 8.33688 1.04048 8.4001 1.19961 8.4001H2.39961C2.55874 8.4001 2.71135 8.33688 2.82387 8.22436C2.9364 8.11184 2.99961 7.95923 2.99961 7.8001V6.6001ZM11.3996 5.7001C11.3996 5.54097 11.4628 5.38836 11.5753 5.27583C11.6879 5.16331 11.8405 5.1001 11.9996 5.1001H13.1996C13.3587 5.1001 13.5114 5.16331 13.6239 5.27583C13.7364 5.38836 13.7996 5.54097 13.7996 5.7001V6.9001C13.7996 7.05923 13.7364 7.21184 13.6239 7.32436C13.5114 7.43688 13.3587 7.5001 13.1996 7.5001H11.9996C11.8405 7.5001 11.6879 7.43688 11.5753 7.32436C11.4628 7.21184 11.3996 7.05923 11.3996 6.9001V5.7001ZM19.1996 1.2001C19.1996 1.04097 19.1364 0.888356 19.0239 0.775834C18.9114 0.663312 18.7587 0.600098 18.5996 0.600098H17.3996C17.2405 0.600098 17.0879 0.663312 16.9753 0.775834C16.8628 0.888356 16.7996 1.04097 16.7996 1.2001V2.4001C16.7996 2.55923 16.8628 2.71184 16.9753 2.82436C17.0879 2.93688 17.2405 3.0001 17.3996 3.0001H18.5996C18.7587 3.0001 18.9114 2.93688 19.0239 2.82436C19.1364 2.71184 19.1996 2.55923 19.1996 2.4001V1.2001Z" fill="white"/>
<path d="M6.6 1.2H7.8V0H6.6V1.2ZM6.6 2.4V1.2H5.4V2.4H6.6ZM7.8 2.4H6.6V3.6H7.8V2.4ZM7.8 1.2V2.4H9V1.2H7.8ZM1.2 6.6H2.4V5.4H1.2V6.6ZM1.2 7.8V6.6H0V7.8H1.2ZM2.4 7.8H1.2V9H2.4V7.8ZM2.4 6.6V7.8H3.6V6.6H2.4ZM13.2 4.5H12V5.7H13.2V4.5ZM14.4 6.9V5.7H13.2V6.9H14.4ZM12 8.1H13.2V6.9H12V8.1ZM10.8 5.7V6.9H12V5.7H10.8ZM17.4 1.2H18.6V0H17.4V1.2ZM17.4 2.4V1.2H16.2V2.4H17.4ZM18.6 2.4H17.4V3.6H18.6V2.4ZM18.6 1.2V2.4H19.8V1.2H18.6ZM18.6 3.6C18.9183 3.6 19.2235 3.47357 19.4485 3.24853C19.6736 3.02348 19.8 2.71826 19.8 2.4H18.6V3.6ZM16.2 2.4C16.2 2.71826 16.3264 3.02348 16.5515 3.24853C16.7765 3.47357 17.0817 3.6 17.4 3.6V2.4H16.2ZM18.6 1.2H19.8C19.8 0.88174 19.6736 0.576515 19.4485 0.351472C19.2235 0.126428 18.9183 0 18.6 0V1.2ZM17.4 0C17.0817 0 16.7765 0.126428 16.5515 0.351472C16.3264 0.576515 16.2 0.88174 16.2 1.2H17.4V0ZM12 6.9H10.8C10.8 7.21826 10.9264 7.52348 11.1515 7.74853C11.3765 7.97357 11.6817 8.1 12 8.1V6.9ZM13.2 6.9V8.1C13.5183 8.1 13.8235 7.97357 14.0485 7.74853C14.2736 7.52348 14.4 7.21826 14.4 6.9H13.2ZM12 4.5C11.6817 4.5 11.3765 4.62643 11.1515 4.85147C10.9264 5.07652 10.8 5.38174 10.8 5.7H12V4.5ZM13.2 5.7H14.4C14.4 5.38174 14.2736 5.07652 14.0485 4.85147C13.8235 4.62643 13.5183 4.5 13.2 4.5V5.7ZM2.4 9C2.71826 9 3.02348 8.87357 3.24853 8.64853C3.47357 8.42348 3.6 8.11826 3.6 7.8H2.4V9ZM0 7.8C0 8.11826 0.126428 8.42348 0.351472 8.64853C0.576515 8.87357 0.88174 9 1.2 9V7.8H0ZM2.4 6.6H3.6C3.6 6.28174 3.47357 5.97652 3.24853 5.75147C3.02348 5.52643 2.71826 5.4 2.4 5.4V6.6ZM1.2 5.4C0.88174 5.4 0.576515 5.52643 0.351472 5.75147C0.126428 5.97652 0 6.28174 0 6.6H1.2V5.4ZM7.8 3.6C8.11826 3.6 8.42348 3.47357 8.64853 3.24853C8.87357 3.02348 9 2.71826 9 2.4H7.8V3.6ZM5.4 2.4C5.4 2.71826 5.52643 3.02348 5.75147 3.24853C5.97652 3.47357 6.28174 3.6 6.6 3.6V2.4H5.4ZM7.8 1.2H9C9 0.88174 8.87357 0.576515 8.64853 0.351472C8.42348 0.126428 8.11826 0 7.8 0V1.2ZM6.6 0C6.28174 0 5.97652 0.126428 5.75147 0.351472C5.52643 0.576515 5.4 0.88174 5.4 1.2H6.6V0Z" fill="white"/>
</svg>
