<svg width="28" height="28" viewBox="0 0 28 28" fill="none" xmlns="http://www.w3.org/2000/svg">
<g clip-path="url(#clip0_688_1167)">
<path fill-rule="evenodd" clip-rule="evenodd" d="M4.60062 8.57533C4.72011 8.60727 4.96093 8.76387 5.08096 8.83604L12.3228 13.0213L19.5607 8.83163C19.7572 8.71537 19.9657 8.6489 20.0063 8.49725C19.8787 8.46745 19.6474 8.31537 19.5216 8.24084L16.1585 6.29968C15.576 5.98164 12.5062 4.14181 12.284 4.08997L8.43495 6.32517C8.00968 6.56179 4.69709 8.44358 4.60072 8.57522L4.60062 8.57533ZM4.01562 18.4817L5.94323 19.5963C6.59748 19.9809 7.23593 20.3219 7.87459 20.707L11.7379 22.9279V13.9965L4.01562 9.55032V18.4817ZM12.8689 14.1136V22.8109C12.8689 23.035 13.1833 22.7758 13.5001 22.584L14.9105 21.7712C15.0932 21.6715 15.4761 21.411 15.6382 21.3679C15.5898 20.7869 15.5212 20.8936 15.5212 20.0418C15.5212 19.0716 16.0307 17.8288 16.6428 17.1462L16.9161 16.8345C17.2797 16.4709 17.8186 16.1256 18.2771 15.8943C19.0788 15.4901 19.7198 15.4396 20.6305 15.4396V9.55042C19.3717 10.2165 17.0991 11.5816 15.7532 12.3565C15.4161 12.5507 15.1063 12.7243 14.7636 12.9269L13.3059 13.7703C13.1868 13.8417 12.869 13.9676 12.869 14.1137L12.8689 14.1136ZM18.2512 19.6907H19.6552C19.7451 19.6907 19.7721 19.6635 19.7721 19.5737V18.1698H20.9033V19.5737C20.9033 19.6636 20.9304 19.6907 21.0202 19.6907H22.4242V20.8218H20.9032V22.3429H19.772V20.8218H18.251V19.6907H18.2512ZM23.9844 19.9417V20.6041C23.9452 21.0162 23.8322 21.432 23.6343 21.8368C22.5435 24.066 19.6002 24.676 17.6953 22.7817C17.1245 22.2142 16.652 21.321 16.652 20.1979C16.652 19.6767 16.8345 19.064 16.9979 18.7107C17.1902 18.2951 17.447 17.9402 17.7535 17.6331C17.9061 17.48 18.0863 17.3425 18.2673 17.2108C18.4336 17.0898 18.6473 16.9782 18.8466 16.8931C21.4292 15.7928 23.7735 17.6828 23.9844 19.9417Z" fill="#8D8D8D"/>
</g>
<defs>
<clipPath id="clip0_688_1167">
<rect width="28" height="28" fill="white"/>
</clipPath>
</defs>
</svg>
