<svg width="24" height="24" viewBox="0 0 24 24" fill="none" xmlns="http://www.w3.org/2000/svg">
<g clip-path="url(#clip0_702_1171)">
<path fill-rule="evenodd" clip-rule="evenodd" d="M1.7725 7.73891H12.9963C13.6536 7.73891 13.5942 7.5264 14.2516 6.46921C14.5613 5.97214 14.8675 5.39042 15.2403 4.92577C15.5033 5.13288 16.058 6.11442 16.2615 6.4368C16.8756 7.40573 16.8558 7.73891 17.5816 7.73891C19.0008 7.73891 21.5654 7.81816 22.8531 7.66687C23.0602 7.04553 22.0048 5.38682 21.5546 4.46111C21.1782 3.68849 21.2826 3.7173 20.2164 3.7173C14.5884 3.7173 8.96025 3.7173 3.33216 3.7173C2.61356 3.7173 2.46588 4.50253 1.86615 5.70019C1.25201 6.92667 0.587449 7.73891 1.7707 7.73891H1.7725ZM12.9963 8.51874H2.65138C2.66399 10.4854 2.61176 17.1617 2.78286 18.6223C3.65814 18.8168 6.63698 18.6889 7.7626 18.6889C7.2277 17.5057 6.78646 16.8213 6.98637 15.2022C7.26912 12.9222 9.11694 11.1788 11.415 10.8564C13.0629 10.6259 13.7257 11.1428 14.8639 11.6471V7.05814C14.2354 7.72811 14.293 8.51874 12.9963 8.51874ZM16.2813 18.6889C17.4105 18.6889 20.3785 18.8168 21.2412 18.6187C21.4897 17.8641 21.3331 10.0334 21.3331 8.51694C20.1138 8.51694 18.8963 8.51874 17.677 8.52054C16.3371 8.52234 16.2525 7.86498 15.6798 7.01492L15.6527 12.1405C15.732 12.8609 17.0971 13.4697 17.0863 15.9496C17.0809 17.2103 16.6973 17.774 16.2813 18.6871V18.6889ZM12.0075 11.6327C14.3956 11.6327 16.3335 13.5687 16.3335 15.9586C16.3335 18.3467 14.3974 20.2828 12.0075 20.2828C9.61942 20.2828 7.68155 18.3467 7.68155 15.9586C7.68155 13.5705 9.61762 11.6327 12.0075 11.6327ZM14.0192 15.9586C14.0192 16.1261 13.8824 16.2648 13.7131 16.2648H12.3137V17.6642C12.3137 17.8317 12.1768 17.9703 12.0075 17.9703C11.84 17.9703 11.7014 17.8335 11.7014 17.6642V16.2648H10.302C10.1345 16.2648 9.99582 16.1279 9.99582 15.9586C9.99582 15.7911 10.1327 15.6525 10.302 15.6525H11.7014V14.2531C11.7014 14.0856 11.8382 13.9469 12.0075 13.9469C12.175 13.9469 12.3137 14.0838 12.3137 14.2531V15.6525H13.7131C13.8806 15.6525 14.0192 15.7893 14.0192 15.9586Z" fill="#8D8D8D"/>
</g>
<defs>
<clipPath id="clip0_702_1171">
<rect width="24" height="24" fill="white"/>
</clipPath>
</defs>
</svg>
