<svg width="24" height="24" viewBox="0 0 24 24" fill="none" xmlns="http://www.w3.org/2000/svg">
<path d="M3.7147 14.5714V16.8571C3.72385 18.464 4.4827 18.2143 5.04499 17.732L8.28613 14.8057V16.2857C8.28613 17.6743 8.60613 18 10.0004 18H15.1433C15.1433 18 18.1198 21.5 18.1433 21.4765C18.5718 22 19.7324 21.8217 19.7147 20.8571V18H21.429C22.829 18 23.1433 17.652 23.1433 16.2857V7.71425C23.1433 6.34282 22.8061 5.99997 21.429 5.99997H15.7147V4.85711C15.7147 3.44568 15.4518 3.14282 14.0004 3.14282H2.00042C0.651847 3.14282 0.286133 3.43425 0.286133 4.85711V12.2857C0.286133 13.6794 0.600419 14.5714 2.00042 14.5714H3.7147ZM18.0004 16.2857V18.9834L15.7147 16.2857H10.5718C10.1433 16.2857 10.0004 16.1314 10.0004 15.7143V8.28568C10.0004 7.90282 10.1776 7.71425 10.5718 7.71425H20.8576C21.2513 7.71425 21.429 7.92568 21.429 8.25139V15.7143C21.429 16.1263 21.2238 16.2857 20.8576 16.2857H18.0004Z" fill="#8D8D8D"/>
</svg>
