<svg width="24" height="24" viewBox="0 0 24 24" fill="none" xmlns="http://www.w3.org/2000/svg">
<g clip-path="url(#clip0_784_404)">
<path d="M21.7267 6.76732C21.8001 6.76732 21.8001 6.76732 21.8731 6.76732L20.7734 2.51481C20.4801 1.26787 19.1598 0.534565 17.9865 0.901217L1.70785 5.22771C0.46123 5.52103 -0.272074 6.84098 0.094578 8.01427L1.48786 13.2941V10.1409C1.48786 8.23491 3.0278 6.69497 4.93439 6.69497H21.7267V6.76732Z" fill="white"/>
<path d="M21.7268 7.94061H4.86081C3.61419 7.94061 2.58789 8.96757 2.58789 10.2139V20.9194C2.58789 22.1667 3.61452 23.1927 4.86081 23.1927H21.7268C22.9734 23.1927 23.9997 22.1657 23.9997 20.9194V10.2145C24.0004 8.96724 22.9734 7.94061 21.7268 7.94061ZM22.4604 20.9204C22.4604 21.3607 22.0941 21.6534 21.7275 21.6534H4.86146C4.42148 21.6534 4.12848 21.2871 4.12848 20.9201V18.2075H22.5341V20.9201L22.4604 20.9204ZM22.4604 12.9274H4.12783V10.2145C4.12783 9.7742 4.49448 9.48121 4.86081 9.48121H21.7268C22.1671 9.48121 22.4598 9.84786 22.4598 10.2145L22.4604 12.9274Z" fill="white"/>
</g>
<defs>
<clipPath id="clip0_784_404">
<rect width="24" height="24" fill="white"/>
</clipPath>
</defs>
</svg>
