<svg width="28" height="28" viewBox="0 0 28 28" fill="none" xmlns="http://www.w3.org/2000/svg">
<g clip-path="url(#clip0_688_1155)">
<path fill-rule="evenodd" clip-rule="evenodd" d="M14.5537 15.4997L15.6529 16.8289C15.9341 17.3572 15.7722 18.4735 15.8063 19.1466H16.8885C16.9225 18.695 16.8714 16.062 16.914 15.9087C16.9566 15.7553 17.0333 15.7553 17.1185 15.6616L17.2975 15.6275L17.911 15.6189H18.0473H18.3711H19.6663C20.2457 15.6701 20.0924 16.3347 20.0924 17.1612C20.0924 17.7918 20.0583 18.5246 20.1009 19.1381C20.8763 19.1722 21.7113 19.1466 22.4953 19.1466C22.8872 19.1466 23.3218 19.2319 23.4922 18.9421C23.603 18.7547 23.5434 15.7468 23.5434 15.3974C23.5434 14.9884 23.603 13.2672 23.5348 13.003C23.5008 12.8411 23.0662 12.5343 22.9469 12.398L21.3875 10.9494C21.2683 10.8557 21.166 10.779 21.0637 10.6682C20.6207 10.2081 19.547 9.32193 19.1891 8.93849L18.5501 8.35054C18.4393 8.40166 14.5622 11.9805 14.0084 12.5088C13.446 13.0626 13.5227 12.6536 13.5227 13.6336C13.5227 14.3834 13.3863 14.1704 13.9487 14.7754C14.0595 14.9032 14.2129 15.0821 14.3236 15.2185C14.4515 15.3292 14.4429 15.3804 14.5622 15.4911L14.5537 15.4997ZM12.7984 15.6104C12.8751 15.7468 12.9944 15.849 13.0881 15.9768C13.1903 16.1046 13.2926 16.2325 13.3949 16.3432C13.5056 16.4625 13.5994 16.5818 13.7016 16.7096C13.7953 16.8204 13.9572 16.9312 13.9317 17.076L11.8866 17.0931L11.8696 15.4485H12.5257C12.6706 15.4485 12.6024 15.4485 12.662 15.4911C12.662 15.4911 12.7132 15.5423 12.7217 15.5508C12.7813 15.6019 12.7217 15.5593 12.7899 15.6104H12.7984ZM11.4435 14.7924H11.222C11.1709 14.5283 11.2902 14.0937 10.8982 13.9147C10.6426 13.7955 5.9475 13.8636 5.31695 13.8636C4.21774 13.8636 3.90246 13.7358 3.90246 14.6987L2.3346 14.818L3.89394 14.9202L3.90246 15.1673L5.47032 15.2696C5.24878 15.3548 4.43076 15.3633 4.10696 15.3804C3.79169 15.3974 3.94507 15.4059 3.86838 15.653L2.29199 15.7638L3.88542 15.8661L3.89394 16.1046L5.55553 16.2154L3.91098 16.3347L3.8769 16.5818L2.32608 16.6926L3.88542 16.8034L3.91098 17.0505C4.22626 17.0675 5.24878 17.0846 5.43624 17.1698L3.90246 17.272V17.9367H15.0394C15.0394 17.1783 14.9627 17.1868 14.3407 16.4796C14.1958 16.3177 13.4375 15.3974 13.3437 15.3548C13.25 15.1673 13.2159 15.1588 13.0711 15.0054C12.9092 14.8435 12.9177 14.8606 12.6706 14.7924H11.435H11.4435ZM11.3669 13.003H12.645C12.8921 13.003 12.9603 12.8837 13.0796 12.7644C13.3608 12.4662 14.1703 11.7845 14.5196 11.4266L15.9597 10.0888C16.1045 9.96101 16.1897 9.90988 16.3346 9.74798L18.533 7.75407L20.9359 9.96101C21.0808 10.0888 21.1916 10.2081 21.3449 10.3359L22.9469 11.8101C23.1003 11.9805 23.2025 12.0401 23.3644 12.185C24.4807 13.1819 23.8416 13.02 25.6821 12.9945L24.0631 11.4863C23.603 11.1028 23.6967 11.1113 23.6967 10.5149V7.78815H21.984V9.552L19.2232 7.02126C18.8824 6.63782 18.8142 6.70598 18.2859 6.70598C18.0899 6.70598 16.4113 8.36758 16.096 8.63173L11.3754 12.9945L11.3669 13.003ZM5.12948 19.9391C5.28286 19.5471 5.32547 19.3085 5.5811 19.087C6.14348 18.5757 6.95298 18.5757 7.55797 19.07C7.84768 19.3085 7.8562 19.5216 8.02662 19.9306L11.0601 19.9391C11.1964 19.5727 11.2731 19.3 11.5117 19.087C12.0826 18.5843 12.8751 18.5757 13.4971 19.07C13.7698 19.283 13.8124 19.5642 13.9743 19.9391C14.4344 19.9391 14.8605 19.9987 15.0138 19.6068C15.0905 19.4108 15.065 18.4905 15.0479 18.2349H3.92802C3.91098 18.5076 3.88542 19.4449 3.97063 19.6323C4.14957 20.0328 4.67787 19.9391 5.14653 19.9391H5.12948ZM12.2445 19.0444C10.7107 19.4704 11.3754 21.6348 12.8154 21.2428C13.3267 21.1065 13.7698 20.5356 13.6164 19.8794C13.4886 19.3426 12.9092 18.8569 12.2445 19.0359V19.0444ZM6.3139 19.0444C4.80569 19.4619 5.44476 21.6263 6.88481 21.2428C7.39607 21.1065 7.84768 20.5611 7.68578 19.8709C7.55797 19.3426 6.98706 18.8484 6.3139 19.0359V19.0444Z" fill="#8D8D8D"/>
</g>
<defs>
<clipPath id="clip0_688_1155">
<rect width="28" height="28" fill="white"/>
</clipPath>
</defs>
</svg>
