<svg width="24" height="24" viewBox="0 0 24 24" fill="none" xmlns="http://www.w3.org/2000/svg">
<g clip-path="url(#clip0_688_1125)">
<path d="M12.5501 13.2562H6.22237V14.2613H11.716C11.432 14.7189 11.2205 15.2258 11.1041 15.7686H6.22237V16.7737H10.9963C10.9963 17.6969 11.263 18.5556 11.7167 19.286H5.21796C4.66321 19.286 4.21289 18.8363 4.21289 18.2809V4.21125C4.21289 3.6565 4.66255 3.20618 5.21796 3.20618H15.5195L17.7804 5.46709V12.448C17.1691 12.1634 16.4893 11.9997 15.7702 11.9997C14.5277 11.9997 13.4002 12.478 12.5508 13.2562H12.5501ZM15.0159 3.70905V5.96996H17.2768L15.0159 3.70905ZM13.7594 5.71919H6.22237V6.72426H13.7601V5.71919H13.7594ZM6.22237 9.23661H15.7696V8.23154H6.22237V9.23661ZM6.22237 11.749H15.7696V10.7439H6.22237V11.749Z" fill="#8D8D8D"/>
<path d="M18.0412 14.6877L15.0207 17.7075L13.244 15.9309L12.5336 16.6413L15.0207 19.1284L18.7516 15.3974L18.0412 14.687V14.6877ZM15.7683 20.7939C13.548 20.7939 11.748 18.994 11.748 16.7743C11.748 14.554 13.548 12.754 15.7683 12.754C17.9887 12.754 19.788 14.554 19.788 16.7743C19.788 18.9947 17.988 20.7939 15.7683 20.7939Z" fill="#8D8D8D"/>
</g>
<defs>
<clipPath id="clip0_688_1125">
<rect width="24" height="24" fill="white"/>
</clipPath>
</defs>
</svg>
