<svg width="24" height="24" viewBox="0 0 24 24" fill="none" xmlns="http://www.w3.org/2000/svg">
<path d="M15.2139 15.4286C16.0423 15.4286 16.7139 16.1002 16.7139 16.9286V18.6446L16.7071 18.7375C16.4407 20.56 14.8037 21.4363 12.0568 21.4363C9.31982 21.4363 7.6567 20.57 7.29769 18.7685L7.2853 18.6429V16.9286C7.2853 16.1002 7.95687 15.4286 8.7853 15.4286H15.2139ZM15.6372 10.2857L20.7853 10.2857C21.6137 10.2857 22.2853 10.9573 22.2853 11.7857V13.5017L22.2785 13.5947C22.0122 15.4171 20.3752 16.2935 17.6283 16.2935L17.4841 16.2921C17.2196 15.3468 16.3805 14.6414 15.3671 14.5763L15.2139 14.5714L14.4234 14.5721C15.2977 13.865 15.8567 12.7835 15.8567 11.5714C15.8567 11.1206 15.7794 10.6878 15.6372 10.2857ZM3.21387 10.2857L8.36194 10.2857C8.21979 10.6878 8.14244 11.1206 8.14244 11.5714C8.14244 12.7122 8.63765 13.7373 9.42481 14.4434L9.57578 14.5721L8.7853 14.5714C7.70341 14.5714 6.79176 15.3003 6.51461 16.2938L6.4854 16.2935C3.74839 16.2935 2.08527 15.4272 1.72626 13.6257L1.71387 13.5V11.7857C1.71387 10.9573 2.38544 10.2857 3.21387 10.2857ZM11.9996 8.57145C13.6564 8.57145 14.9996 9.91459 14.9996 11.5714C14.9996 13.2283 13.6564 14.5714 11.9996 14.5714C10.3427 14.5714 8.99958 13.2283 8.99958 11.5714C8.99958 9.91459 10.3427 8.57145 11.9996 8.57145ZM17.571 3.42859C19.2279 3.42859 20.571 4.77173 20.571 6.42859C20.571 8.08544 19.2279 9.42859 17.571 9.42859C15.9142 9.42859 14.571 8.08544 14.571 6.42859C14.571 4.77173 15.9142 3.42859 17.571 3.42859ZM6.42815 3.42859C8.08501 3.42859 9.42815 4.77173 9.42815 6.42859C9.42815 8.08544 8.08501 9.42859 6.42815 9.42859C4.7713 9.42859 3.42815 8.08544 3.42815 6.42859C3.42815 4.77173 4.7713 3.42859 6.42815 3.42859Z" fill="#8D8D8D"/>
</svg>
