<svg xmlns="http://www.w3.org/2000/svg" width="22" height="22" fill="none" viewBox="0 0 22 22"><g clip-path="url(#clip0_191_794)"><path fill="#8d8d8d" d="m18.335 19.5-1.638-3.4c-.352-.726-.807-1.254-1.594-.932l-1.55.576c-1.243.576-1.861 0-2.485-.868L8.277 8.52c-.353-.727-.168-1.41.618-1.732l2.17-.868c.787-.327.662-1.005.31-1.732L9.514.726C9.16 0 8.438-.176 7.652.146 6.08.795 4.778 1.813 3.93 3.321 2.9 5.165 3.415 7.73 3.621 8.809c.206 1.078.928 2.969 1.86 4.907.933 1.942 1.75 3.467 2.484 4.33.73.864 2.484 3.228 4.654 3.756 1.779.43 3.7.069 5.272-.58.79-.31.79-.992.442-1.723"/></g><defs><clipPath id="clip0_191_794"><path fill="#fff" d="M0 0h22v22H0z"/></clipPath></defs></svg>