<svg xmlns="http://www.w3.org/2000/svg" width="16" height="16" fill="none" viewBox="0 0 16 16"><path fill="#626262" d="m12.625 3.073.302.302a.6.6 0 0 1 0 .848l-.727.73L11.047 3.8l.728-.727a.6.6 0 0 1 .847 0zm-5.78 4.932L10.2 4.648 11.352 5.8 7.995 9.155a.6.6 0 0 1-.26.153l-1.463.417.418-1.462a.6.6 0 0 1 .152-.26zm4.082-5.78-4.932 4.93a1.8 1.8 0 0 0-.458.778l-.715 2.5a.6.6 0 0 0 .743.742l2.5-.715c.295-.085.562-.242.777-.457l4.933-4.93a1.8 1.8 0 0 0 0-2.545l-.303-.303a1.8 1.8 0 0 0-2.545 0M3.8 3.2a2.2 2.2 0 0 0-2.2 2.2v6.8a2.2 2.2 0 0 0 2.2 2.2h6.8a2.2 2.2 0 0 0 2.2-2.2V9.4a.6.6 0 1 0-1.2 0v2.8a1 1 0 0 1-1 1H3.8a1 1 0 0 1-1-1V5.4a1 1 0 0 1 1-1h2.8c.332 0 .6-.267.6-.6s-.268-.6-.6-.6z"/></svg>