<svg width="53" height="53" viewBox="0 0 53 53" fill="none" xmlns="http://www.w3.org/2000/svg">
<path fill-rule="evenodd" clip-rule="evenodd" d="M35.3327 19.8748C35.3327 22.2176 34.402 24.4644 32.7455 26.1209C31.0889 27.7775 28.8421 28.7082 26.4993 28.7082C24.1566 28.7082 21.9098 27.7775 20.2532 26.1209C18.5967 24.4644 17.666 22.2176 17.666 19.8748C17.666 17.5321 18.5967 15.2853 20.2532 13.6287C21.9098 11.9722 24.1566 11.0415 26.4993 11.0415C28.8421 11.0415 31.0889 11.9722 32.7455 13.6287C34.402 15.2853 35.3327 17.5321 35.3327 19.8748ZM30.916 19.8748C30.916 21.0462 30.4507 22.1696 29.6224 22.9979C28.7941 23.8262 27.6707 24.2915 26.4993 24.2915C25.328 24.2915 24.2046 23.8262 23.3763 22.9979C22.548 22.1696 22.0827 21.0462 22.0827 19.8748C22.0827 18.7035 22.548 17.5801 23.3763 16.7518C24.2046 15.9235 25.328 15.4582 26.4993 15.4582C27.6707 15.4582 28.7941 15.9235 29.6224 16.7518C30.4507 17.5801 30.916 18.7035 30.916 19.8748Z" fill="#8D8D8D"/>
<path fill-rule="evenodd" clip-rule="evenodd" d="M26.4997 2.20825C13.0841 2.20825 2.20801 13.0843 2.20801 26.4999C2.20801 39.9155 13.0841 50.7916 26.4997 50.7916C39.9153 50.7916 50.7913 39.9155 50.7913 26.4999C50.7913 13.0843 39.9153 2.20825 26.4997 2.20825ZM6.62467 26.4999C6.62467 31.1153 8.19922 35.3642 10.8382 38.7385C12.6919 36.3052 15.0829 34.3332 17.8245 32.9764C20.5662 31.6195 23.5842 30.9146 26.6432 30.9166C29.6628 30.9131 32.6434 31.5992 35.3576 32.9226C38.0718 34.246 40.4479 36.1718 42.3047 38.553C44.2181 36.0435 45.5064 33.1144 46.0631 30.0081C46.6197 26.9018 46.4286 23.7076 45.5057 20.6898C44.5827 17.672 42.9545 14.9173 40.7555 12.6538C38.5566 10.3902 35.8503 8.68278 32.8605 7.67279C29.8707 6.66281 26.6834 6.37929 23.5623 6.84569C20.4412 7.3121 17.476 8.51501 14.912 10.3549C12.3481 12.1948 10.2592 14.6188 8.81806 17.4263C7.37694 20.2338 6.62507 23.3441 6.62467 26.4999ZM26.4997 46.3749C21.9371 46.3823 17.5121 44.8127 13.974 41.9318C15.398 39.8926 17.2936 38.2277 19.4994 37.0788C21.7053 35.93 24.1561 35.3311 26.6432 35.3333C29.0993 35.3311 31.5204 35.915 33.7054 37.0366C35.8905 38.1581 37.7764 39.7848 39.2064 41.7816C35.641 44.7562 31.143 46.3822 26.4997 46.3749Z" fill="#8D8D8D"/>
</svg>
