<svg width="17" height="17" viewBox="0 0 17 17" fill="none" xmlns="http://www.w3.org/2000/svg">
<path d="M7.09954 0.889836C7.73247 0.370079 8.64449 0.370079 9.27742 0.889836L9.84912 1.35931C10.1831 1.63356 10.6082 1.7717 11.0396 1.74612L11.7781 1.70235C12.5956 1.65388 13.3335 2.18995 13.54 2.98247L13.7266 3.69832C13.8356 4.11649 14.0983 4.47814 14.4623 4.71101L15.0855 5.10965C15.7754 5.55099 16.0572 6.41837 15.7585 7.18094L15.4887 7.86973C15.331 8.2721 15.331 8.71912 15.4887 9.12148L15.7585 9.81027C16.0572 10.5728 15.7754 11.4402 15.0855 11.8816L14.4623 12.2802C14.0983 12.5131 13.8356 12.8747 13.7266 13.2929L13.54 14.0087C13.3335 14.8013 12.5956 15.3373 11.7781 15.2889L11.0396 15.2451C10.6082 15.2195 10.1831 15.3577 9.84912 15.6319L9.27742 16.1014C8.64449 16.6211 7.73247 16.6211 7.09954 16.1014L6.52784 15.6319C6.19388 15.3577 5.76873 15.2195 5.33736 15.2451L4.59889 15.2889C3.78133 15.3373 3.04349 14.8013 2.83695 14.0087L2.65038 13.2929C2.5414 12.8747 2.27865 12.5131 1.91463 12.2802L1.29146 11.8816C0.601556 11.4402 0.319726 10.5728 0.618459 9.81027L0.888293 9.12148C1.04592 8.71912 1.04592 8.27209 0.888293 7.86973L0.618459 7.18094C0.319726 6.41837 0.601556 5.55099 1.29146 5.10965L1.91463 4.71101C2.27865 4.47814 2.5414 4.11649 2.65038 3.69832L2.83695 2.98247C3.04349 2.18995 3.78133 1.65388 4.59889 1.70235L5.33736 1.74612C5.76873 1.7717 6.19388 1.63356 6.52784 1.35931L7.09954 0.889836Z" stroke="white"/>
</svg>
